<svg width="112" height="68" viewBox="0 0 112 68" fill="none" xmlns="http://www.w3.org/2000/svg">
<rect x="0.5" y="0.5" width="111" height="67" rx="15.5" fill="white"/>
<path fill-rule="evenodd" clip-rule="evenodd" d="M67.8334 45.9332C68.8168 44.4332 69.1834 43.6665 69.9334 41.9832C64.4001 39.8832 63.5168 31.9998 68.9834 28.9832C67.3168 26.8832 64.9668 25.6665 62.7501 25.6665C61.1501 25.6665 60.0501 26.0832 59.0668 26.4665C58.2334 26.7832 57.4834 27.0665 56.5501 27.0665C55.5501 27.0665 54.6668 26.7499 53.7334 26.4165C52.7168 26.0499 51.6501 25.6665 50.3168 25.6665C47.8334 25.6665 45.1834 27.1832 43.5001 29.7832C41.1334 33.4498 41.5501 40.3165 45.3668 46.1832C46.7334 48.2832 48.5668 50.6332 50.9501 50.6665C51.9501 50.6832 52.6001 50.3832 53.3168 50.0665C54.1334 49.6999 55.0168 49.2998 56.5668 49.2998C58.1168 49.2832 58.9834 49.6999 59.8001 50.0665C60.5001 50.3832 61.1334 50.6832 62.1168 50.6665C64.5334 50.6332 66.4668 48.0332 67.8334 45.9332Z" fill="black"/>
<path fill-rule="evenodd" clip-rule="evenodd" d="M62.4002 17.3335C62.6669 19.1668 61.9169 20.9835 60.9336 22.2502C59.8836 23.6168 58.0502 24.6835 56.2836 24.6168C55.9669 22.8502 56.7836 21.0335 57.7836 19.8168C58.9002 18.4835 60.7836 17.4502 62.4002 17.3335Z" fill="black"/>
<rect x="0.5" y="0.5" width="111" height="67" rx="15.5" stroke="#D1D0D2"/>
</svg>
