<svg width="575" height="464" viewBox="0 0 575 464" fill="none" xmlns="http://www.w3.org/2000/svg">
<rect y="13.5" width="575" height="450" rx="32" fill="#F1EEFC"/>
<path d="M236.263 37.1628C256.239 39.0719 270.965 39.5267 289.506 33.7932C299.771 30.6189 310.898 25.437 317.971 18.4536C318.996 17.4414 331.232 4.69002 326.725 2.85634C321.965 0.919999 316.302 8.07833 314.015 10.3784C306.439 17.9972 293.265 37.6604 314.849 38.6842C329.82 39.3943 344.479 33.1072 358.164 29.0027C382.997 21.5551 407.714 16.9556 433.892 13.9083" stroke="black" stroke-width="4" stroke-linecap="round"/>
<rect x="139" y="132.5" width="394" height="279" rx="16" fill="white"/>
<path d="M164.232 173.5V161.58H165.992L170.472 167.788H169.592L173.992 161.58H175.752V173.5H173.88V163.804L174.584 163.996L170.088 170.14H169.896L165.496 163.996L166.12 163.804V173.5H164.232ZM178.808 177.036C178.595 177.036 178.382 177.015 178.168 176.972C177.966 176.94 177.779 176.887 177.608 176.812V175.26C177.736 175.292 177.891 175.319 178.072 175.34C178.254 175.372 178.43 175.388 178.6 175.388C179.102 175.388 179.47 175.276 179.704 175.052C179.95 174.839 180.168 174.503 180.36 174.044L180.936 172.732L180.904 174.252L177.16 164.844H179.096L181.864 172.06H181.208L183.96 164.844H185.912L182.088 174.444C181.886 174.956 181.63 175.404 181.32 175.788C181.022 176.183 180.664 176.487 180.248 176.7C179.843 176.924 179.363 177.036 178.808 177.036ZM190.123 173.5V161.58H197.979V163.26H192.011V166.684H197.659V168.364H192.011V171.82H197.979V173.5H190.123ZM202.148 173.692C201.561 173.692 201.044 173.591 200.596 173.388C200.159 173.175 199.817 172.887 199.572 172.524C199.327 172.151 199.204 171.713 199.204 171.212C199.204 170.743 199.305 170.321 199.508 169.948C199.721 169.575 200.047 169.26 200.484 169.004C200.921 168.748 201.471 168.567 202.132 168.46L205.14 167.964V169.388L202.484 169.852C202.004 169.937 201.652 170.092 201.428 170.316C201.204 170.529 201.092 170.807 201.092 171.148C201.092 171.479 201.215 171.751 201.46 171.964C201.716 172.167 202.041 172.268 202.436 172.268C202.927 172.268 203.353 172.161 203.716 171.948C204.089 171.735 204.377 171.452 204.58 171.1C204.783 170.737 204.884 170.337 204.884 169.9V167.676C204.884 167.249 204.724 166.903 204.404 166.636C204.095 166.359 203.679 166.22 203.156 166.22C202.676 166.22 202.255 166.348 201.892 166.604C201.54 166.849 201.279 167.169 201.108 167.564L199.604 166.812C199.764 166.385 200.025 166.012 200.388 165.692C200.751 165.361 201.172 165.105 201.652 164.924C202.143 164.743 202.66 164.652 203.204 164.652C203.887 164.652 204.489 164.78 205.012 165.036C205.545 165.292 205.956 165.649 206.244 166.108C206.543 166.556 206.692 167.079 206.692 167.676V173.5H204.964V171.932L205.332 171.98C205.129 172.332 204.868 172.636 204.548 172.892C204.239 173.148 203.881 173.345 203.476 173.484C203.081 173.623 202.639 173.692 202.148 173.692ZM208.806 173.5V164.844H210.534V166.588L210.374 166.332C210.566 165.767 210.875 165.361 211.302 165.116C211.729 164.86 212.241 164.732 212.838 164.732H213.366V166.38H212.614C212.017 166.38 211.531 166.567 211.158 166.94C210.795 167.303 210.614 167.825 210.614 168.508V173.5H208.806ZM214.603 173.5V164.844H216.331V166.54L216.123 166.316C216.336 165.772 216.678 165.361 217.147 165.084C217.616 164.796 218.16 164.652 218.779 164.652C219.419 164.652 219.984 164.791 220.475 165.068C220.966 165.345 221.35 165.729 221.627 166.22C221.904 166.711 222.043 167.276 222.043 167.916V173.5H220.251V168.396C220.251 167.959 220.171 167.591 220.011 167.292C219.851 166.983 219.622 166.748 219.323 166.588C219.035 166.417 218.704 166.332 218.331 166.332C217.958 166.332 217.622 166.417 217.323 166.588C217.035 166.748 216.811 166.983 216.651 167.292C216.491 167.601 216.411 167.969 216.411 168.396V173.5H214.603ZM223.978 173.5V164.844H225.786V173.5H223.978ZM223.978 163.66V161.58H225.786V163.66H223.978ZM227.9 173.5V164.844H229.628V166.54L229.42 166.316C229.633 165.772 229.974 165.361 230.444 165.084C230.913 164.796 231.457 164.652 232.076 164.652C232.716 164.652 233.281 164.791 233.772 165.068C234.262 165.345 234.646 165.729 234.924 166.22C235.201 166.711 235.34 167.276 235.34 167.916V173.5H233.548V168.396C233.548 167.959 233.468 167.591 233.308 167.292C233.148 166.983 232.918 166.748 232.62 166.588C232.332 166.417 232.001 166.332 231.628 166.332C231.254 166.332 230.918 166.417 230.62 166.588C230.332 166.748 230.108 166.983 229.948 167.292C229.788 167.601 229.708 167.969 229.708 168.396V173.5H227.9ZM241.451 177.02C240.821 177.02 240.24 176.919 239.707 176.716C239.173 176.513 238.715 176.231 238.331 175.868C237.947 175.516 237.659 175.1 237.467 174.62L239.131 173.932C239.28 174.337 239.552 174.673 239.947 174.94C240.352 175.207 240.848 175.34 241.435 175.34C241.893 175.34 242.304 175.249 242.667 175.068C243.029 174.897 243.317 174.641 243.531 174.3C243.744 173.969 243.851 173.569 243.851 173.1V171.148L244.171 171.516C243.872 172.071 243.456 172.492 242.923 172.78C242.4 173.068 241.808 173.212 241.147 173.212C240.347 173.212 239.627 173.025 238.987 172.652C238.347 172.279 237.84 171.767 237.467 171.116C237.104 170.465 236.923 169.735 236.923 168.924C236.923 168.103 237.104 167.372 237.467 166.732C237.84 166.092 238.341 165.585 238.971 165.212C239.6 164.839 240.32 164.652 241.131 164.652C241.792 164.652 242.379 164.796 242.891 165.084C243.413 165.361 243.84 165.767 244.171 166.3L243.931 166.748V164.844H245.643V173.1C245.643 173.847 245.461 174.513 245.099 175.1C244.747 175.697 244.256 176.167 243.627 176.508C242.997 176.849 242.272 177.02 241.451 177.02ZM241.355 171.532C241.835 171.532 242.261 171.42 242.635 171.196C243.008 170.961 243.301 170.652 243.515 170.268C243.739 169.873 243.851 169.431 243.851 168.94C243.851 168.449 243.739 168.007 243.515 167.612C243.291 167.217 242.992 166.908 242.619 166.684C242.245 166.449 241.824 166.332 241.355 166.332C240.864 166.332 240.427 166.449 240.043 166.684C239.659 166.908 239.355 167.217 239.131 167.612C238.917 167.996 238.811 168.439 238.811 168.94C238.811 169.42 238.917 169.857 239.131 170.252C239.355 170.647 239.659 170.961 240.043 171.196C240.427 171.42 240.864 171.532 241.355 171.532ZM250.959 173.692C250.074 173.692 249.295 173.473 248.623 173.036C247.962 172.599 247.498 172.012 247.231 171.276L248.623 170.62C248.858 171.111 249.178 171.5 249.583 171.788C249.999 172.076 250.458 172.22 250.959 172.22C251.386 172.22 251.732 172.124 251.999 171.932C252.266 171.74 252.399 171.479 252.399 171.148C252.399 170.935 252.34 170.764 252.223 170.636C252.106 170.497 251.956 170.385 251.775 170.3C251.604 170.215 251.428 170.151 251.247 170.108L249.887 169.724C249.14 169.511 248.58 169.191 248.207 168.764C247.844 168.327 247.663 167.82 247.663 167.244C247.663 166.721 247.796 166.268 248.063 165.884C248.33 165.489 248.698 165.185 249.167 164.972C249.636 164.759 250.164 164.652 250.751 164.652C251.54 164.652 252.244 164.849 252.863 165.244C253.482 165.628 253.919 166.167 254.175 166.86L252.783 167.516C252.612 167.1 252.34 166.769 251.967 166.524C251.604 166.279 251.194 166.156 250.735 166.156C250.34 166.156 250.026 166.252 249.791 166.444C249.556 166.625 249.439 166.865 249.439 167.164C249.439 167.367 249.492 167.537 249.599 167.676C249.706 167.804 249.844 167.911 250.015 167.996C250.186 168.071 250.362 168.135 250.543 168.188L251.951 168.604C252.666 168.807 253.215 169.127 253.599 169.564C253.983 169.991 254.175 170.503 254.175 171.1C254.175 171.612 254.036 172.065 253.759 172.46C253.492 172.844 253.119 173.148 252.639 173.372C252.159 173.585 251.599 173.692 250.959 173.692Z" fill="black"/>
<path d="M496.083 163.1V167.392C496.083 169.958 494.617 171.058 492.417 171.058H485.092C484.717 171.058 484.358 171.025 484.025 170.95C483.817 170.917 483.617 170.858 483.433 170.792C482.183 170.325 481.425 169.242 481.425 167.392V163.1C481.425 160.533 482.892 159.433 485.092 159.433H492.417C494.283 159.433 495.625 160.225 495.983 162.033C496.042 162.367 496.083 162.708 496.083 163.1Z" stroke="#292D32" stroke-width="1.5" stroke-miterlimit="10" stroke-linecap="round" stroke-linejoin="round"/>
<path d="M498.584 165.6V169.892C498.584 172.458 497.118 173.558 494.918 173.558H487.593C486.976 173.558 486.418 173.475 485.934 173.292C484.943 172.925 484.268 172.167 484.026 170.95C484.359 171.025 484.718 171.058 485.093 171.058H492.418C494.618 171.058 496.084 169.958 496.084 167.392V163.1C496.084 162.708 496.051 162.358 495.984 162.033C497.568 162.367 498.584 163.483 498.584 165.6Z" stroke="#292D32" stroke-width="1.5" stroke-miterlimit="10" stroke-linecap="round" stroke-linejoin="round"/>
<path d="M488.749 167.45C489.964 167.45 490.949 166.465 490.949 165.25C490.949 164.035 489.964 163.05 488.749 163.05C487.534 163.05 486.549 164.035 486.549 165.25C486.549 166.465 487.534 167.45 488.749 167.45Z" stroke="#292D32" stroke-width="1.5" stroke-miterlimit="10" stroke-linecap="round" stroke-linejoin="round"/>
<path d="M483.983 163.417V167.083" stroke="#292D32" stroke-width="1.5" stroke-miterlimit="10" stroke-linecap="round" stroke-linejoin="round"/>
<path d="M493.518 163.417V167.084" stroke="#292D32" stroke-width="1.5" stroke-miterlimit="10" stroke-linecap="round" stroke-linejoin="round"/>
<path d="M166.195 250.5V240.675H163.165V239.325H170.665V240.675H167.68V250.5H166.195ZM174.702 250.68C173.922 250.68 173.217 250.5 172.587 250.14C171.957 249.77 171.457 249.265 171.087 248.625C170.717 247.985 170.532 247.26 170.532 246.45C170.532 245.64 170.712 244.92 171.072 244.29C171.442 243.66 171.942 243.16 172.572 242.79C173.202 242.42 173.912 242.235 174.702 242.235C175.482 242.235 176.187 242.42 176.817 242.79C177.447 243.15 177.942 243.645 178.302 244.275C178.672 244.905 178.857 245.63 178.857 246.45C178.857 247.27 178.667 248 178.287 248.64C177.907 249.27 177.402 249.77 176.772 250.14C176.152 250.5 175.462 250.68 174.702 250.68ZM174.702 249.33C175.202 249.33 175.652 249.205 176.052 248.955C176.462 248.705 176.782 248.36 177.012 247.92C177.252 247.48 177.372 246.99 177.372 246.45C177.372 245.9 177.252 245.415 177.012 244.995C176.782 244.565 176.462 244.225 176.052 243.975C175.652 243.715 175.202 243.585 174.702 243.585C174.192 243.585 173.732 243.715 173.322 243.975C172.922 244.225 172.602 244.565 172.362 244.995C172.122 245.415 172.002 245.9 172.002 246.45C172.002 246.99 172.122 247.48 172.362 247.92C172.602 248.36 172.922 248.705 173.322 248.955C173.732 249.205 174.192 249.33 174.702 249.33ZM183.815 250.59C183.025 250.59 182.415 250.365 181.985 249.915C181.565 249.465 181.355 248.83 181.355 248.01V243.75H179.885V242.415H180.185C180.545 242.415 180.83 242.305 181.04 242.085C181.25 241.865 181.355 241.575 181.355 241.215V240.555H182.75V242.415H184.565V243.75H182.75V247.965C182.75 248.235 182.79 248.47 182.87 248.67C182.96 248.87 183.105 249.03 183.305 249.15C183.505 249.26 183.77 249.315 184.1 249.315C184.17 249.315 184.255 249.31 184.355 249.3C184.465 249.29 184.565 249.28 184.655 249.27V250.5C184.525 250.53 184.38 250.55 184.22 250.56C184.06 250.58 183.925 250.59 183.815 250.59ZM188.745 250.68C188.215 250.68 187.745 250.585 187.335 250.395C186.935 250.195 186.62 249.925 186.39 249.585C186.16 249.235 186.045 248.835 186.045 248.385C186.045 247.955 186.135 247.57 186.315 247.23C186.505 246.88 186.795 246.585 187.185 246.345C187.585 246.105 188.085 245.935 188.685 245.835L191.685 245.34V246.51L189 246.96C188.48 247.05 188.1 247.215 187.86 247.455C187.63 247.695 187.515 247.99 187.515 248.34C187.515 248.67 187.645 248.945 187.905 249.165C188.175 249.385 188.51 249.495 188.91 249.495C189.42 249.495 189.86 249.39 190.23 249.18C190.61 248.96 190.905 248.665 191.115 248.295C191.335 247.925 191.445 247.515 191.445 247.065V245.01C191.445 244.57 191.28 244.215 190.95 243.945C190.63 243.665 190.205 243.525 189.675 243.525C189.215 243.525 188.805 243.645 188.445 243.885C188.095 244.115 187.835 244.425 187.665 244.815L186.45 244.185C186.6 243.815 186.84 243.485 187.17 243.195C187.5 242.895 187.885 242.66 188.325 242.49C188.765 242.32 189.225 242.235 189.705 242.235C190.325 242.235 190.87 242.355 191.34 242.595C191.81 242.825 192.175 243.15 192.435 243.57C192.705 243.98 192.84 244.46 192.84 245.01V250.5H191.475V248.97L191.73 249.06C191.56 249.38 191.33 249.66 191.04 249.9C190.75 250.14 190.41 250.33 190.02 250.47C189.63 250.61 189.205 250.68 188.745 250.68ZM195.003 250.5V239.145H196.398V250.5H195.003ZM201.32 250.5V239.325H208.595V240.675H202.79V244.215H208.295V245.565H202.79V249.15H208.595V250.5H201.32ZM212.622 250.68C212.092 250.68 211.622 250.585 211.212 250.395C210.812 250.195 210.497 249.925 210.267 249.585C210.037 249.235 209.922 248.835 209.922 248.385C209.922 247.955 210.012 247.57 210.192 247.23C210.382 246.88 210.672 246.585 211.062 246.345C211.462 246.105 211.962 245.935 212.562 245.835L215.562 245.34V246.51L212.877 246.96C212.357 247.05 211.977 247.215 211.737 247.455C211.507 247.695 211.392 247.99 211.392 248.34C211.392 248.67 211.522 248.945 211.782 249.165C212.052 249.385 212.387 249.495 212.787 249.495C213.297 249.495 213.737 249.39 214.107 249.18C214.487 248.96 214.782 248.665 214.992 248.295C215.212 247.925 215.322 247.515 215.322 247.065V245.01C215.322 244.57 215.157 244.215 214.827 243.945C214.507 243.665 214.082 243.525 213.552 243.525C213.092 243.525 212.682 243.645 212.322 243.885C211.972 244.115 211.712 244.425 211.542 244.815L210.327 244.185C210.477 243.815 210.717 243.485 211.047 243.195C211.377 242.895 211.762 242.66 212.202 242.49C212.642 242.32 213.102 242.235 213.582 242.235C214.202 242.235 214.747 242.355 215.217 242.595C215.687 242.825 216.052 243.15 216.312 243.57C216.582 243.98 216.717 244.46 216.717 245.01V250.5H215.352V248.97L215.607 249.06C215.437 249.38 215.207 249.66 214.917 249.9C214.627 250.14 214.287 250.33 213.897 250.47C213.507 250.61 213.082 250.68 212.622 250.68ZM218.88 250.5V242.415H220.245V243.9L220.095 243.69C220.285 243.23 220.575 242.89 220.965 242.67C221.355 242.44 221.83 242.325 222.39 242.325H222.885V243.645H222.18C221.61 243.645 221.15 243.825 220.8 244.185C220.45 244.535 220.275 245.035 220.275 245.685V250.5H218.88ZM224.124 250.5V242.415H225.489V243.99L225.264 243.855C225.464 243.345 225.784 242.95 226.224 242.67C226.674 242.38 227.199 242.235 227.799 242.235C228.379 242.235 228.894 242.365 229.344 242.625C229.804 242.885 230.164 243.245 230.424 243.705C230.694 244.165 230.829 244.685 230.829 245.265V250.5H229.419V245.715C229.419 245.265 229.339 244.885 229.179 244.575C229.019 244.265 228.789 244.025 228.489 243.855C228.199 243.675 227.864 243.585 227.484 243.585C227.104 243.585 226.764 243.675 226.464 243.855C226.174 244.025 225.944 244.27 225.774 244.59C225.604 244.9 225.519 245.275 225.519 245.715V250.5H224.124ZM232.825 250.5V242.415H234.22V250.5H232.825ZM232.825 241.125V239.325H234.22V241.125H232.825ZM236.385 250.5V242.415H237.75V243.99L237.525 243.855C237.725 243.345 238.045 242.95 238.485 242.67C238.935 242.38 239.46 242.235 240.06 242.235C240.64 242.235 241.155 242.365 241.605 242.625C242.065 242.885 242.425 243.245 242.685 243.705C242.955 244.165 243.09 244.685 243.09 245.265V250.5H241.68V245.715C241.68 245.265 241.6 244.885 241.44 244.575C241.28 244.265 241.05 244.025 240.75 243.855C240.46 243.675 240.125 243.585 239.745 243.585C239.365 243.585 239.025 243.675 238.725 243.855C238.435 244.025 238.205 244.27 238.035 244.59C237.865 244.9 237.78 245.275 237.78 245.715V250.5H236.385ZM248.941 253.8C248.371 253.8 247.841 253.71 247.351 253.53C246.871 253.35 246.456 253.1 246.106 252.78C245.766 252.47 245.506 252.105 245.326 251.685L246.631 251.085C246.771 251.465 247.036 251.785 247.426 252.045C247.826 252.315 248.326 252.45 248.926 252.45C249.386 252.45 249.801 252.36 250.171 252.18C250.551 252.01 250.851 251.75 251.071 251.4C251.291 251.06 251.401 250.645 251.401 250.155V248.34L251.656 248.61C251.376 249.16 250.971 249.58 250.441 249.87C249.921 250.16 249.346 250.305 248.716 250.305C247.956 250.305 247.276 250.13 246.676 249.78C246.076 249.42 245.606 248.935 245.266 248.325C244.926 247.705 244.756 247.02 244.756 246.27C244.756 245.51 244.926 244.825 245.266 244.215C245.606 243.605 246.071 243.125 246.661 242.775C247.261 242.415 247.941 242.235 248.701 242.235C249.331 242.235 249.901 242.38 250.411 242.67C250.931 242.95 251.346 243.34 251.656 243.84L251.446 244.215V242.415H252.811V250.155C252.811 250.855 252.646 251.48 252.316 252.03C251.986 252.58 251.526 253.01 250.936 253.32C250.356 253.64 249.691 253.8 248.941 253.8ZM248.836 248.955C249.316 248.955 249.746 248.835 250.126 248.595C250.516 248.355 250.826 248.035 251.056 247.635C251.286 247.225 251.401 246.77 251.401 246.27C251.401 245.78 251.286 245.33 251.056 244.92C250.826 244.51 250.516 244.185 250.126 243.945C249.746 243.705 249.316 243.585 248.836 243.585C248.346 243.585 247.901 243.705 247.501 243.945C247.101 244.185 246.786 244.51 246.556 244.92C246.336 245.32 246.226 245.77 246.226 246.27C246.226 246.77 246.336 247.225 246.556 247.635C246.786 248.035 247.096 248.355 247.486 248.595C247.886 248.835 248.336 248.955 248.836 248.955Z" fill="#9E9CA0"/>
<path d="M165.448 288.5V263.17H169.052L182.992 281.938L181.122 282.312V263.17H185.746V288.5H182.108L168.372 269.596L170.072 269.222V288.5H165.448ZM201.053 288.5V282.924H189.425V279.048L200.781 263.17H205.609V279.048H209.315V282.924H205.609V288.5H201.053ZM192.825 280.714L192.009 279.048H201.053V266.808L202.243 267.182L192.825 280.714ZM222.483 288.908C220.466 288.908 218.698 288.364 217.179 287.276C215.661 286.188 214.471 284.658 213.609 282.686C212.771 280.714 212.351 278.425 212.351 275.818C212.351 273.189 212.771 270.899 213.609 268.95C214.448 267.001 215.627 265.482 217.145 264.394C218.664 263.306 220.432 262.762 222.449 262.762C224.512 262.762 226.291 263.306 227.787 264.394C229.306 265.482 230.496 267.012 231.357 268.984C232.219 270.933 232.649 273.211 232.649 275.818C232.649 278.425 232.219 280.714 231.357 282.686C230.519 284.635 229.34 286.165 227.821 287.276C226.303 288.364 224.523 288.908 222.483 288.908ZM222.517 284.692C223.673 284.692 224.659 284.341 225.475 283.638C226.291 282.913 226.915 281.893 227.345 280.578C227.799 279.241 228.025 277.654 228.025 275.818C228.025 273.982 227.799 272.407 227.345 271.092C226.915 269.755 226.28 268.735 225.441 268.032C224.625 267.329 223.628 266.978 222.449 266.978C221.316 266.978 220.341 267.329 219.525 268.032C218.709 268.735 218.075 269.755 217.621 271.092C217.191 272.407 216.975 273.982 216.975 275.818C216.975 277.631 217.191 279.207 217.621 280.544C218.075 281.859 218.709 282.879 219.525 283.604C220.364 284.329 221.361 284.692 222.517 284.692ZM238.022 293.804V291.594C238.77 291.413 239.37 291.061 239.824 290.54C240.3 290.041 240.594 289.361 240.708 288.5H238.702V283.74H243.19V286.664C243.19 288.659 242.748 290.257 241.864 291.458C241.002 292.659 239.722 293.441 238.022 293.804ZM256.634 288.908C255.251 288.908 253.937 288.659 252.69 288.16C251.466 287.639 250.412 286.913 249.528 285.984C248.667 285.032 248.077 283.91 247.76 282.618L251.806 281.19C252.214 282.346 252.837 283.23 253.676 283.842C254.515 284.431 255.501 284.726 256.634 284.726C257.541 284.726 258.323 284.556 258.98 284.216C259.66 283.876 260.193 283.389 260.578 282.754C260.963 282.097 261.156 281.326 261.156 280.442C261.156 279.558 260.963 278.81 260.578 278.198C260.215 277.563 259.694 277.076 259.014 276.736C258.334 276.396 257.529 276.226 256.6 276.226C256.169 276.226 255.716 276.271 255.24 276.362C254.787 276.453 254.379 276.589 254.016 276.77L252.962 274.56L259.524 267.08H249.188V263.17H264.726V266.808L258.13 274.526L258.198 272.792C259.717 272.815 261.043 273.143 262.176 273.778C263.309 274.413 264.193 275.285 264.828 276.396C265.463 277.507 265.78 278.81 265.78 280.306C265.78 281.938 265.383 283.411 264.59 284.726C263.797 286.018 262.709 287.038 261.326 287.786C259.943 288.534 258.379 288.908 256.634 288.908ZM269.905 288.5L280.445 267.08H268.511V263.17H285.307V267.08L275.005 288.5H269.905ZM288.013 288.5V284.998L294.881 277.824C296.241 276.396 297.284 275.263 298.009 274.424C298.757 273.563 299.279 272.826 299.573 272.214C299.868 271.602 300.015 270.979 300.015 270.344C300.015 269.279 299.675 268.44 298.995 267.828C298.338 267.216 297.488 266.91 296.445 266.91C295.357 266.91 294.417 267.227 293.623 267.862C292.83 268.474 292.252 269.381 291.889 270.582L287.843 269.324C288.115 267.987 288.671 266.831 289.509 265.856C290.348 264.859 291.368 264.099 292.569 263.578C293.793 263.034 295.085 262.762 296.445 262.762C298.077 262.762 299.505 263.057 300.729 263.646C301.976 264.235 302.939 265.063 303.619 266.128C304.322 267.193 304.673 268.44 304.673 269.868C304.673 270.775 304.503 271.67 304.163 272.554C303.823 273.438 303.313 274.345 302.633 275.274C301.953 276.181 301.069 277.201 299.981 278.334L294.031 284.59H305.013V288.5H288.013Z" fill="black"/>
<mask id="path-12-outside-1_3387_8293" maskUnits="userSpaceOnUse" x="349" y="273.5" width="141" height="66" fill="black">
<rect fill="white" x="349" y="273.5" width="141" height="66"/>
<path d="M360.867 277.561C355.104 278.737 351.31 284.404 353.334 289.926C357.655 301.721 365.054 312.222 374.846 320.292C387.392 330.631 403.107 336.352 419.365 336.497C435.622 336.643 451.437 331.204 464.167 321.091C474.101 313.198 481.687 302.831 486.218 291.115C488.34 285.63 484.648 279.895 478.907 278.617C473.166 277.339 467.575 281.033 465.105 286.371C461.868 293.366 457.027 299.559 450.917 304.413C442.006 311.493 430.936 315.3 419.555 315.198C408.175 315.096 397.175 311.092 388.392 303.854C382.369 298.891 377.64 292.613 374.529 285.561C372.154 280.18 366.631 276.386 360.867 277.561Z"/>
</mask>
<path d="M360.867 277.561C355.104 278.737 351.31 284.404 353.334 289.926C357.655 301.721 365.054 312.222 374.846 320.292C387.392 330.631 403.107 336.352 419.365 336.497C435.622 336.643 451.437 331.204 464.167 321.091C474.101 313.198 481.687 302.831 486.218 291.115C488.34 285.63 484.648 279.895 478.907 278.617C473.166 277.339 467.575 281.033 465.105 286.371C461.868 293.366 457.027 299.559 450.917 304.413C442.006 311.493 430.936 315.3 419.555 315.198C408.175 315.096 397.175 311.092 388.392 303.854C382.369 298.891 377.64 292.613 374.529 285.561C372.154 280.18 366.631 276.386 360.867 277.561Z" fill="#0167E7"/>
<path d="M360.867 277.561C355.104 278.737 351.31 284.404 353.334 289.926C357.655 301.721 365.054 312.222 374.846 320.292C387.392 330.631 403.107 336.352 419.365 336.497C435.622 336.643 451.437 331.204 464.167 321.091C474.101 313.198 481.687 302.831 486.218 291.115C488.34 285.63 484.648 279.895 478.907 278.617C473.166 277.339 467.575 281.033 465.105 286.371C461.868 293.366 457.027 299.559 450.917 304.413C442.006 311.493 430.936 315.3 419.555 315.198C408.175 315.096 397.175 311.092 388.392 303.854C382.369 298.891 377.64 292.613 374.529 285.561C372.154 280.18 366.631 276.386 360.867 277.561Z" stroke="white" stroke-width="6" mask="url(#path-12-outside-1_3387_8293)"/>
<mask id="path-13-outside-2_3387_8293" maskUnits="userSpaceOnUse" x="346" y="191.5" width="148" height="83" fill="black">
<rect fill="white" x="346" y="191.5" width="148" height="83"/>
<path d="M480.35 265.5C486.232 265.5 491.082 260.706 490.203 254.89C489.306 248.959 487.66 243.151 485.292 237.609C481.526 228.793 476.014 220.83 469.087 214.202C462.16 207.574 453.963 202.417 444.989 199.043C436.016 195.669 426.452 194.147 416.874 194.569C407.296 194.991 397.903 197.348 389.261 201.499C380.619 205.65 372.907 211.508 366.591 218.719C360.274 225.931 355.483 234.348 352.507 243.461C350.636 249.19 349.507 255.12 349.136 261.107C348.772 266.978 354.025 271.327 359.884 270.809C365.743 270.292 369.955 265.08 370.695 259.245C371.09 256.137 371.778 253.066 372.755 250.073C374.838 243.693 378.192 237.802 382.613 232.754C387.035 227.705 392.433 223.605 398.483 220.699C404.532 217.794 411.107 216.144 417.812 215.848C424.516 215.553 431.211 216.618 437.492 218.98C443.774 221.342 449.512 224.952 454.361 229.591C459.21 234.231 463.068 239.805 465.705 245.976C466.941 248.872 467.897 251.87 468.563 254.931C469.814 260.679 474.468 265.5 480.35 265.5Z"/>
</mask>
<path d="M480.35 265.5C486.232 265.5 491.082 260.706 490.203 254.89C489.306 248.959 487.66 243.151 485.292 237.609C481.526 228.793 476.014 220.83 469.087 214.202C462.16 207.574 453.963 202.417 444.989 199.043C436.016 195.669 426.452 194.147 416.874 194.569C407.296 194.991 397.903 197.348 389.261 201.499C380.619 205.65 372.907 211.508 366.591 218.719C360.274 225.931 355.483 234.348 352.507 243.461C350.636 249.19 349.507 255.12 349.136 261.107C348.772 266.978 354.025 271.327 359.884 270.809C365.743 270.292 369.955 265.08 370.695 259.245C371.09 256.137 371.778 253.066 372.755 250.073C374.838 243.693 378.192 237.802 382.613 232.754C387.035 227.705 392.433 223.605 398.483 220.699C404.532 217.794 411.107 216.144 417.812 215.848C424.516 215.553 431.211 216.618 437.492 218.98C443.774 221.342 449.512 224.952 454.361 229.591C459.21 234.231 463.068 239.805 465.705 245.976C466.941 248.872 467.897 251.87 468.563 254.931C469.814 260.679 474.468 265.5 480.35 265.5Z" fill="#00A858"/>
<path d="M480.35 265.5C486.232 265.5 491.082 260.706 490.203 254.89C489.306 248.959 487.66 243.151 485.292 237.609C481.526 228.793 476.014 220.83 469.087 214.202C462.16 207.574 453.963 202.417 444.989 199.043C436.016 195.669 426.452 194.147 416.874 194.569C407.296 194.991 397.903 197.348 389.261 201.499C380.619 205.65 372.907 211.508 366.591 218.719C360.274 225.931 355.483 234.348 352.507 243.461C350.636 249.19 349.507 255.12 349.136 261.107C348.772 266.978 354.025 271.327 359.884 270.809C365.743 270.292 369.955 265.08 370.695 259.245C371.09 256.137 371.778 253.066 372.755 250.073C374.838 243.693 378.192 237.802 382.613 232.754C387.035 227.705 392.433 223.605 398.483 220.699C404.532 217.794 411.107 216.144 417.812 215.848C424.516 215.553 431.211 216.618 437.492 218.98C443.774 221.342 449.512 224.952 454.361 229.591C459.21 234.231 463.068 239.805 465.705 245.976C466.941 248.872 467.897 251.87 468.563 254.931C469.814 260.679 474.468 265.5 480.35 265.5Z" stroke="white" stroke-width="6" mask="url(#path-13-outside-2_3387_8293)"/>
<rect x="163" y="358.5" width="8" height="8" rx="4" fill="#00A858"/>
<path d="M180.155 368.5V357.325H184.22C184.97 357.325 185.63 357.465 186.2 357.745C186.78 358.015 187.23 358.415 187.55 358.945C187.87 359.465 188.03 360.09 188.03 360.82C188.03 361.54 187.865 362.16 187.535 362.68C187.215 363.2 186.77 363.6 186.2 363.88C185.63 364.16 184.97 364.3 184.22 364.3H181.925V368.5H180.155ZM181.925 362.725H184.265C184.665 362.725 185.015 362.645 185.315 362.485C185.615 362.325 185.85 362.105 186.02 361.825C186.19 361.535 186.275 361.195 186.275 360.805C186.275 360.415 186.19 360.08 186.02 359.8C185.85 359.51 185.615 359.29 185.315 359.14C185.015 358.98 184.665 358.9 184.265 358.9H181.925V362.725ZM191.59 368.68C191.04 368.68 190.555 368.585 190.135 368.395C189.725 368.195 189.405 367.925 189.175 367.585C188.945 367.235 188.83 366.825 188.83 366.355C188.83 365.915 188.925 365.52 189.115 365.17C189.315 364.82 189.62 364.525 190.03 364.285C190.44 364.045 190.955 363.875 191.575 363.775L194.395 363.31V364.645L191.905 365.08C191.455 365.16 191.125 365.305 190.915 365.515C190.705 365.715 190.6 365.975 190.6 366.295C190.6 366.605 190.715 366.86 190.945 367.06C191.185 367.25 191.49 367.345 191.86 367.345C192.32 367.345 192.72 367.245 193.06 367.045C193.41 366.845 193.68 366.58 193.87 366.25C194.06 365.91 194.155 365.535 194.155 365.125V363.04C194.155 362.64 194.005 362.315 193.705 362.065C193.415 361.805 193.025 361.675 192.535 361.675C192.085 361.675 191.69 361.795 191.35 362.035C191.02 362.265 190.775 362.565 190.615 362.935L189.205 362.23C189.355 361.83 189.6 361.48 189.94 361.18C190.28 360.87 190.675 360.63 191.125 360.46C191.585 360.29 192.07 360.205 192.58 360.205C193.22 360.205 193.785 360.325 194.275 360.565C194.775 360.805 195.16 361.14 195.43 361.57C195.71 361.99 195.85 362.48 195.85 363.04V368.5H194.23V367.03L194.575 367.075C194.385 367.405 194.14 367.69 193.84 367.93C193.55 368.17 193.215 368.355 192.835 368.485C192.465 368.615 192.05 368.68 191.59 368.68ZM197.832 368.5V360.385H199.527V368.5H197.832ZM197.832 359.275V357.325H199.527V359.275H197.832ZM205.259 368.68C204.479 368.68 203.779 368.495 203.159 368.125C202.549 367.745 202.064 367.235 201.704 366.595C201.354 365.955 201.179 365.235 201.179 364.435C201.179 363.635 201.359 362.915 201.719 362.275C202.079 361.635 202.564 361.13 203.174 360.76C203.784 360.39 204.474 360.205 205.244 360.205C205.894 360.205 206.469 360.335 206.969 360.595C207.469 360.855 207.864 361.215 208.154 361.675L207.899 362.065V357.145H209.579V368.5H207.974V366.85L208.169 367.165C207.889 367.655 207.489 368.03 206.969 368.29C206.449 368.55 205.879 368.68 205.259 368.68ZM205.424 367.105C205.894 367.105 206.314 366.99 206.684 366.76C207.064 366.53 207.359 366.215 207.569 365.815C207.789 365.405 207.899 364.945 207.899 364.435C207.899 363.925 207.789 363.47 207.569 363.07C207.359 362.67 207.064 362.355 206.684 362.125C206.314 361.895 205.894 361.78 205.424 361.78C204.954 361.78 204.529 361.895 204.149 362.125C203.769 362.355 203.474 362.67 203.264 363.07C203.054 363.47 202.949 363.925 202.949 364.435C202.949 364.945 203.054 365.405 203.264 365.815C203.474 366.215 203.764 366.53 204.134 366.76C204.514 366.99 204.944 367.105 205.424 367.105Z" fill="#9E9CA0"/>
<rect x="230" y="358.5" width="8" height="8" rx="4" fill="#0167E7"/>
<path d="M247.155 368.5V357.325H251.22C251.97 357.325 252.63 357.465 253.2 357.745C253.78 358.015 254.23 358.415 254.55 358.945C254.87 359.465 255.03 360.09 255.03 360.82C255.03 361.54 254.865 362.16 254.535 362.68C254.215 363.2 253.77 363.6 253.2 363.88C252.63 364.16 251.97 364.3 251.22 364.3H248.925V368.5H247.155ZM248.925 362.725H251.265C251.665 362.725 252.015 362.645 252.315 362.485C252.615 362.325 252.85 362.105 253.02 361.825C253.19 361.535 253.275 361.195 253.275 360.805C253.275 360.415 253.19 360.08 253.02 359.8C252.85 359.51 252.615 359.29 252.315 359.14C252.015 358.98 251.665 358.9 251.265 358.9H248.925V362.725ZM260.204 368.68C259.394 368.68 258.674 368.495 258.044 368.125C257.424 367.745 256.939 367.235 256.589 366.595C256.239 365.945 256.064 365.22 256.064 364.42C256.064 363.6 256.239 362.875 256.589 362.245C256.949 361.615 257.429 361.12 258.029 360.76C258.629 360.39 259.309 360.205 260.069 360.205C260.679 360.205 261.224 360.31 261.704 360.52C262.184 360.73 262.589 361.02 262.919 361.39C263.249 361.75 263.499 362.165 263.669 362.635C263.849 363.105 263.939 363.605 263.939 364.135C263.939 364.265 263.934 364.4 263.924 364.54C263.914 364.68 263.894 364.81 263.864 364.93H257.399V363.58H262.904L262.094 364.195C262.194 363.705 262.159 363.27 261.989 362.89C261.829 362.5 261.579 362.195 261.239 361.975C260.909 361.745 260.519 361.63 260.069 361.63C259.619 361.63 259.219 361.745 258.869 361.975C258.519 362.195 258.249 362.515 258.059 362.935C257.869 363.345 257.794 363.845 257.834 364.435C257.784 364.985 257.859 365.465 258.059 365.875C258.269 366.285 258.559 366.605 258.929 366.835C259.309 367.065 259.739 367.18 260.219 367.18C260.709 367.18 261.124 367.07 261.464 366.85C261.814 366.63 262.089 366.345 262.289 365.995L263.669 366.67C263.509 367.05 263.259 367.395 262.919 367.705C262.589 368.005 262.189 368.245 261.719 368.425C261.259 368.595 260.754 368.68 260.204 368.68ZM265.594 368.5V360.385H267.214V361.975L267.019 361.765C267.219 361.255 267.539 360.87 267.979 360.61C268.419 360.34 268.929 360.205 269.509 360.205C270.109 360.205 270.639 360.335 271.099 360.595C271.559 360.855 271.919 361.215 272.179 361.675C272.439 362.135 272.569 362.665 272.569 363.265V368.5H270.889V363.715C270.889 363.305 270.814 362.96 270.664 362.68C270.514 362.39 270.299 362.17 270.019 362.02C269.749 361.86 269.439 361.78 269.089 361.78C268.739 361.78 268.424 361.86 268.144 362.02C267.874 362.17 267.664 362.39 267.514 362.68C267.364 362.97 267.289 363.315 267.289 363.715V368.5H265.594ZM278.133 368.68C277.353 368.68 276.653 368.495 276.033 368.125C275.423 367.745 274.938 367.235 274.578 366.595C274.228 365.955 274.053 365.235 274.053 364.435C274.053 363.635 274.233 362.915 274.593 362.275C274.953 361.635 275.438 361.13 276.048 360.76C276.658 360.39 277.348 360.205 278.118 360.205C278.768 360.205 279.343 360.335 279.843 360.595C280.343 360.855 280.738 361.215 281.028 361.675L280.773 362.065V357.145H282.453V368.5H280.848V366.85L281.043 367.165C280.763 367.655 280.363 368.03 279.843 368.29C279.323 368.55 278.753 368.68 278.133 368.68ZM278.298 367.105C278.768 367.105 279.188 366.99 279.558 366.76C279.938 366.53 280.233 366.215 280.443 365.815C280.663 365.405 280.773 364.945 280.773 364.435C280.773 363.925 280.663 363.47 280.443 363.07C280.233 362.67 279.938 362.355 279.558 362.125C279.188 361.895 278.768 361.78 278.298 361.78C277.828 361.78 277.403 361.895 277.023 362.125C276.643 362.355 276.348 362.67 276.138 363.07C275.928 363.47 275.823 363.925 275.823 364.435C275.823 364.945 275.928 365.405 276.138 365.815C276.348 366.215 276.638 366.53 277.008 366.76C277.388 366.99 277.818 367.105 278.298 367.105ZM284.431 368.5V360.385H286.126V368.5H284.431ZM284.431 359.275V357.325H286.126V359.275H284.431ZM288.108 368.5V360.385H289.728V361.975L289.533 361.765C289.733 361.255 290.053 360.87 290.493 360.61C290.933 360.34 291.443 360.205 292.023 360.205C292.623 360.205 293.153 360.335 293.613 360.595C294.073 360.855 294.433 361.215 294.693 361.675C294.953 362.135 295.083 362.665 295.083 363.265V368.5H293.403V363.715C293.403 363.305 293.328 362.96 293.178 362.68C293.028 362.39 292.813 362.17 292.533 362.02C292.263 361.86 291.953 361.78 291.603 361.78C291.253 361.78 290.938 361.86 290.658 362.02C290.388 362.17 290.178 362.39 290.028 362.68C289.878 362.97 289.803 363.315 289.803 363.715V368.5H288.108ZM300.812 371.8C300.222 371.8 299.677 371.705 299.177 371.515C298.677 371.325 298.247 371.06 297.887 370.72C297.527 370.39 297.257 370 297.077 369.55L298.637 368.905C298.777 369.285 299.032 369.6 299.402 369.85C299.782 370.1 300.247 370.225 300.797 370.225C301.227 370.225 301.612 370.14 301.952 369.97C302.292 369.81 302.562 369.57 302.762 369.25C302.962 368.94 303.062 368.565 303.062 368.125V366.295L303.362 366.64C303.082 367.16 302.692 367.555 302.192 367.825C301.702 368.095 301.147 368.23 300.527 368.23C299.777 368.23 299.102 368.055 298.502 367.705C297.902 367.355 297.427 366.875 297.077 366.265C296.737 365.655 296.567 364.97 296.567 364.21C296.567 363.44 296.737 362.755 297.077 362.155C297.427 361.555 297.897 361.08 298.487 360.73C299.077 360.38 299.752 360.205 300.512 360.205C301.132 360.205 301.682 360.34 302.162 360.61C302.652 360.87 303.052 361.25 303.362 361.75L303.137 362.17V360.385H304.742V368.125C304.742 368.825 304.572 369.45 304.232 370C303.902 370.56 303.442 371 302.852 371.32C302.262 371.64 301.582 371.8 300.812 371.8ZM300.722 366.655C301.172 366.655 301.572 366.55 301.922 366.34C302.272 366.12 302.547 365.83 302.747 365.47C302.957 365.1 303.062 364.685 303.062 364.225C303.062 363.765 302.957 363.35 302.747 362.98C302.537 362.61 302.257 362.32 301.907 362.11C301.557 361.89 301.162 361.78 300.722 361.78C300.262 361.78 299.852 361.89 299.492 362.11C299.132 362.32 298.847 362.61 298.637 362.98C298.437 363.34 298.337 363.755 298.337 364.225C298.337 364.675 298.437 365.085 298.637 365.455C298.847 365.825 299.132 366.12 299.492 366.34C299.852 366.55 300.262 366.655 300.722 366.655Z" fill="#9E9CA0"/>
</svg>
