<svg width="112" height="68" viewBox="0 0 112 68" fill="none" xmlns="http://www.w3.org/2000/svg">
<rect x="0.5" y="0.5" width="111" height="67" rx="15.5" fill="white"/>
<path d="M61.6654 20.6665H50.3307C45.5944 20.6665 42.6641 23.5968 42.6641 28.3332V39.6678C42.6641 44.4042 45.5944 47.3345 50.3307 47.3345H61.6654C66.4018 47.3345 69.3321 44.4042 69.3321 39.6678V28.3332C69.3321 23.5968 66.4018 20.6665 61.6654 20.6665ZM63.1917 28.4521L61.0607 28.4532C59.3897 28.4532 59.0662 29.2472 59.0662 30.4124V32.9818H63.0515L62.5325 37.0064H59.0663V47.3331H54.9101V37.0064H52.435V32.9818H54.9101V30.0138C54.6431 27.349 56.587 24.9723 59.2518 24.7054C59.5292 24.6776 59.8084 24.6738 60.0864 24.6939C61.1236 24.6903 62.1603 24.7433 63.1917 24.8526V28.4521Z" fill="#1578EF"/>
<rect x="0.5" y="0.5" width="111" height="67" rx="15.5" stroke="#D1D0D2"/>
</svg>
