<svg width="48" height="48" viewBox="0 0 48 48" fill="none" xmlns="http://www.w3.org/2000/svg">
<rect width="48" height="48" rx="12" fill="#F7F7F7"/>
<g clip-path="url(#clip0_1701_5093)">
<path d="M34 24C34 18.4771 29.5229 14 24 14C18.4771 14 14 18.4771 14 24C14 28.9912 17.6568 33.1283 22.4375 33.8785V26.8906H19.8984V24H22.4375V21.7969C22.4375 19.2906 23.9305 17.9063 26.2146 17.9063C27.3084 17.9063 28.4531 18.1016 28.4531 18.1016V20.5625H27.1922C25.95 20.5625 25.5625 21.3334 25.5625 22.125V24H28.3359L27.8926 26.8906H25.5625V33.8785C30.3432 33.1283 34 28.9912 34 24Z" fill="#0167E7"/>
<path d="M27.8926 26.8906L28.3359 24H25.5625V22.125C25.5625 21.3342 25.95 20.5625 27.1922 20.5625H28.4531V18.1016C28.4531 18.1016 27.3088 17.9062 26.2146 17.9062C23.9305 17.9062 22.4375 19.2906 22.4375 21.7969V24H19.8984V26.8906H22.4375V33.8785C23.4729 34.0405 24.5271 34.0405 25.5625 33.8785V26.8906H27.8926Z" fill="white"/>
</g>
<defs>
<clipPath id="clip0_1701_5093">
<rect width="20" height="20" fill="white" transform="translate(14 14)"/>
</clipPath>
</defs>
</svg>
