<svg width="1712" height="1160" viewBox="0 0 1712 1160" fill="none" xmlns="http://www.w3.org/2000/svg">
<g clip-path="url(#clip0_1701_5259)">
<rect width="1712" height="1160" fill="#F1EDFD"/>
<path d="M463 -10H993L873 1165H343L463 -10Z" fill="#EEE9FC"/>
<path d="M987 -10H1517L1397 1165H867L987 -10Z" fill="#E8E1F9"/>
<path d="M1511 -10H2041L1921 1165H1391L1511 -10Z" fill="#E1D8F8"/>
<path d="M-127.418 1036.42L248.364 982.451C332.76 970.33 413.603 940.36 485.506 894.54L504.986 882.127C610.382 814.964 692.175 716.566 738.945 600.67L804.43 438.4C851.589 321.54 935.974 223.496 1044.51 159.462V159.462C1194.75 70.8202 1377.2 55.4861 1540.14 117.807L1899.62 255.312" stroke="#5937BE" stroke-width="4" stroke-linecap="round" stroke-dasharray="18 18"/>
<path d="M116.697 277C118.555 261.186 118.997 249.528 113.419 234.849C110.331 226.723 105.289 217.914 98.4946 212.315C97.5098 211.503 85.1037 201.816 83.3196 205.384C81.4357 209.152 88.4002 213.636 90.638 215.447C98.0506 221.444 117.181 231.873 118.177 214.786C118.868 202.934 112.751 191.329 108.758 180.495C101.512 160.836 97.0372 141.268 94.0724 120.544" stroke="black" stroke-width="4" stroke-linecap="round"/>
<path d="M1595.3 1035C1593.45 1019.19 1593 1007.53 1598.58 992.849C1601.67 984.723 1606.71 975.914 1613.51 970.315C1614.49 969.503 1626.9 959.816 1628.68 963.384C1630.56 967.152 1623.6 971.636 1621.36 973.447C1613.95 979.444 1594.82 989.873 1593.82 972.786C1593.13 960.934 1599.25 949.329 1603.24 938.495C1610.49 918.836 1614.96 899.268 1617.93 878.544" stroke="black" stroke-width="4" stroke-linecap="round"/>
</g>
<defs>
<clipPath id="clip0_1701_5259">
<rect width="1712" height="1160" fill="white"/>
</clipPath>
</defs>
</svg>
