<svg width="112" height="68" viewBox="0 0 112 68" fill="none" xmlns="http://www.w3.org/2000/svg">
<rect x="0.5" y="0.5" width="111" height="67" rx="15.5" fill="white"/>
<path d="M56.2955 25.9699C58.1907 25.938 60.022 26.6545 61.3925 27.9639L65.2168 24.1396C62.8034 21.8729 59.6063 20.6284 56.2955 20.6669C51.2543 20.6649 46.6433 23.5075 44.3804 28.0123L48.8349 31.4669C49.8853 28.224 52.8871 26.0123 56.2955 25.9699Z" fill="#F53326"/>
<path d="M44.3806 28.0122C42.4897 31.7802 42.4897 36.22 44.3806 39.988L48.8351 36.5334C48.2776 34.8906 48.2776 33.1096 48.8351 31.4668L44.3806 28.0122Z" fill="#FBDC11"/>
<path d="M60.8112 40.7575C57.0725 43.1572 52.0963 42.0718 49.6966 38.3331C49.3359 37.7712 49.0466 37.1666 48.8354 36.5332L44.3809 39.9877C46.6438 44.4926 51.2548 47.3352 56.296 47.3332C59.5418 47.4212 62.6984 46.2657 65.1202 44.103L60.8112 40.7575Z" fill="#1CBA43"/>
<path d="M68.8534 31.5757H56.2959V36.7332H63.4716C63.1716 38.3818 62.2104 39.8358 60.811 40.7575L65.12 44.103C67.7738 41.5471 69.2187 37.9854 69.0959 34.303C69.0966 33.3884 69.0155 32.4758 68.8534 31.5757Z" fill="#417FEA"/>
<rect x="0.5" y="0.5" width="111" height="67" rx="15.5" stroke="#D1D0D2"/>
</svg>
