<svg width="725" height="548" viewBox="0 0 725 548" fill="none" xmlns="http://www.w3.org/2000/svg">
<rect x="26" width="672" height="548" rx="32" fill="#F1EEFC"/>
<g filter="url(#filter0_d_1701_5311)">
<rect x="101" y="94" width="520" height="360" rx="20" fill="white" shape-rendering="crispEdges"/>
<path d="M146.304 166V145.14H149.608V166H146.304Z" fill="black"/>
<path d="M153.625 166V150.852H156.649V153.82L156.285 153.428C156.658 152.476 157.255 151.757 158.077 151.272C158.898 150.768 159.85 150.516 160.933 150.516C162.053 150.516 163.042 150.759 163.901 151.244C164.759 151.729 165.431 152.401 165.917 153.26C166.402 154.119 166.645 155.108 166.645 156.228V166H163.509V157.068C163.509 156.303 163.369 155.659 163.089 155.136C162.809 154.595 162.407 154.184 161.885 153.904C161.381 153.605 160.802 153.456 160.149 153.456C159.495 153.456 158.907 153.605 158.385 153.904C157.881 154.184 157.489 154.595 157.209 155.136C156.929 155.677 156.789 156.321 156.789 157.068V166H153.625Z" fill="black"/>
<path d="M177.227 166.336C175.715 166.336 174.371 165.991 173.195 165.3C172.038 164.591 171.114 163.639 170.423 162.444C169.751 161.249 169.415 159.896 169.415 158.384C169.415 156.891 169.751 155.547 170.423 154.352C171.095 153.157 172.019 152.224 173.195 151.552C174.371 150.861 175.715 150.516 177.227 150.516C178.254 150.516 179.215 150.703 180.111 151.076C181.007 151.431 181.782 151.925 182.435 152.56C183.107 153.195 183.602 153.932 183.919 154.772L181.147 156.06C180.83 155.276 180.316 154.651 179.607 154.184C178.916 153.699 178.123 153.456 177.227 153.456C176.368 153.456 175.594 153.671 174.903 154.1C174.231 154.511 173.699 155.099 173.307 155.864C172.915 156.611 172.719 157.46 172.719 158.412C172.719 159.364 172.915 160.223 173.307 160.988C173.699 161.735 174.231 162.323 174.903 162.752C175.594 163.181 176.368 163.396 177.227 163.396C178.142 163.396 178.935 163.163 179.607 162.696C180.298 162.211 180.811 161.567 181.147 160.764L183.919 162.08C183.62 162.883 183.135 163.611 182.463 164.264C181.81 164.899 181.035 165.403 180.139 165.776C179.243 166.149 178.272 166.336 177.227 166.336Z" fill="black"/>
<path d="M194.319 166.336C192.863 166.336 191.529 165.991 190.315 165.3C189.121 164.609 188.169 163.667 187.459 162.472C186.75 161.277 186.395 159.924 186.395 158.412C186.395 156.881 186.75 155.528 187.459 154.352C188.169 153.157 189.121 152.224 190.315 151.552C191.51 150.861 192.845 150.516 194.319 150.516C195.813 150.516 197.147 150.861 198.323 151.552C199.518 152.224 200.461 153.157 201.151 154.352C201.861 155.528 202.215 156.881 202.215 158.412C202.215 159.943 201.861 161.305 201.151 162.5C200.442 163.695 199.49 164.637 198.295 165.328C197.101 166 195.775 166.336 194.319 166.336ZM194.319 163.396C195.215 163.396 196.009 163.181 196.699 162.752C197.39 162.323 197.931 161.735 198.323 160.988C198.734 160.223 198.939 159.364 198.939 158.412C198.939 157.46 198.734 156.611 198.323 155.864C197.931 155.117 197.39 154.529 196.699 154.1C196.009 153.671 195.215 153.456 194.319 153.456C193.442 153.456 192.649 153.671 191.939 154.1C191.249 154.529 190.698 155.117 190.287 155.864C189.895 156.611 189.699 157.46 189.699 158.412C189.699 159.364 189.895 160.223 190.287 160.988C190.698 161.735 191.249 162.323 191.939 162.752C192.649 163.181 193.442 163.396 194.319 163.396Z" fill="black"/>
<path d="M205.304 166V150.852H208.328V154.128L207.936 153.624C208.254 152.597 208.832 151.823 209.672 151.3C210.512 150.777 211.474 150.516 212.556 150.516C213.77 150.516 214.843 150.843 215.776 151.496C216.728 152.131 217.363 152.98 217.68 154.044L216.784 154.128C217.232 152.915 217.914 152.009 218.828 151.412C219.762 150.815 220.826 150.516 222.02 150.516C223.066 150.516 224.008 150.759 224.848 151.244C225.707 151.729 226.388 152.401 226.892 153.26C227.396 154.119 227.648 155.099 227.648 156.2V166H224.484V157.068C224.484 156.303 224.344 155.659 224.064 155.136C223.803 154.595 223.43 154.184 222.944 153.904C222.478 153.605 221.927 153.456 221.292 153.456C220.658 153.456 220.098 153.605 219.612 153.904C219.127 154.184 218.744 154.595 218.464 155.136C218.184 155.677 218.044 156.321 218.044 157.068V166H214.908V157.068C214.908 156.303 214.768 155.659 214.488 155.136C214.227 154.595 213.854 154.184 213.368 153.904C212.902 153.605 212.342 153.456 211.688 153.456C211.054 153.456 210.494 153.605 210.008 153.904C209.523 154.184 209.14 154.595 208.86 155.136C208.599 155.677 208.468 156.321 208.468 157.068V166H205.304Z" fill="black"/>
<path d="M238.147 166.336C236.635 166.336 235.291 165.991 234.115 165.3C232.957 164.591 232.052 163.639 231.399 162.444C230.745 161.231 230.419 159.877 230.419 158.384C230.419 156.853 230.745 155.5 231.399 154.324C232.071 153.148 232.967 152.224 234.087 151.552C235.207 150.861 236.476 150.516 237.895 150.516C239.033 150.516 240.051 150.712 240.947 151.104C241.843 151.496 242.599 152.037 243.215 152.728C243.831 153.4 244.297 154.175 244.615 155.052C244.951 155.929 245.119 156.863 245.119 157.852C245.119 158.095 245.109 158.347 245.091 158.608C245.072 158.869 245.035 159.112 244.979 159.336H232.911V156.816H243.187L241.675 157.964C241.861 157.049 241.796 156.237 241.479 155.528C241.18 154.8 240.713 154.231 240.079 153.82C239.463 153.391 238.735 153.176 237.895 153.176C237.055 153.176 236.308 153.391 235.655 153.82C235.001 154.231 234.497 154.828 234.143 155.612C233.788 156.377 233.648 157.311 233.723 158.412C233.629 159.439 233.769 160.335 234.143 161.1C234.535 161.865 235.076 162.463 235.767 162.892C236.476 163.321 237.279 163.536 238.175 163.536C239.089 163.536 239.864 163.331 240.499 162.92C241.152 162.509 241.665 161.977 242.039 161.324L244.615 162.584C244.316 163.293 243.849 163.937 243.215 164.516C242.599 165.076 241.852 165.524 240.975 165.86C240.116 166.177 239.173 166.336 238.147 166.336Z" fill="black"/>
<path d="M253.409 166V145.14H267.157V148.08H256.713V154.072H266.597V157.012H256.713V163.06H267.157V166H253.409Z" fill="black"/>
<path d="M274.454 166.336C273.427 166.336 272.522 166.159 271.738 165.804C270.972 165.431 270.375 164.927 269.946 164.292C269.516 163.639 269.302 162.873 269.302 161.996C269.302 161.175 269.479 160.437 269.834 159.784C270.207 159.131 270.776 158.58 271.542 158.132C272.307 157.684 273.268 157.367 274.426 157.18L279.69 156.312V158.804L275.042 159.616C274.202 159.765 273.586 160.036 273.194 160.428C272.802 160.801 272.606 161.287 272.606 161.884C272.606 162.463 272.82 162.939 273.25 163.312C273.698 163.667 274.267 163.844 274.958 163.844C275.816 163.844 276.563 163.657 277.198 163.284C277.851 162.911 278.355 162.416 278.71 161.8C279.064 161.165 279.242 160.465 279.242 159.7V155.808C279.242 155.061 278.962 154.455 278.402 153.988C277.86 153.503 277.132 153.26 276.218 153.26C275.378 153.26 274.64 153.484 274.006 153.932C273.39 154.361 272.932 154.921 272.634 155.612L270.002 154.296C270.282 153.549 270.739 152.896 271.374 152.336C272.008 151.757 272.746 151.309 273.586 150.992C274.444 150.675 275.35 150.516 276.302 150.516C277.496 150.516 278.551 150.74 279.466 151.188C280.399 151.636 281.118 152.261 281.622 153.064C282.144 153.848 282.406 154.763 282.406 155.808V166H279.382V163.256L280.026 163.34C279.671 163.956 279.214 164.488 278.654 164.936C278.112 165.384 277.487 165.729 276.778 165.972C276.087 166.215 275.312 166.336 274.454 166.336Z" fill="black"/>
<path d="M286.105 166V150.852H289.129V153.904L288.849 153.456C289.185 152.467 289.726 151.757 290.473 151.328C291.22 150.88 292.116 150.656 293.161 150.656H294.085V153.54H292.769C291.724 153.54 290.874 153.867 290.221 154.52C289.586 155.155 289.269 156.069 289.269 157.264V166H286.105Z" fill="black"/>
<path d="M296.25 166V150.852H299.274V153.82L298.91 153.428C299.283 152.476 299.88 151.757 300.702 151.272C301.523 150.768 302.475 150.516 303.558 150.516C304.678 150.516 305.667 150.759 306.526 151.244C307.384 151.729 308.056 152.401 308.542 153.26C309.027 154.119 309.27 155.108 309.27 156.228V166H306.134V157.068C306.134 156.303 305.994 155.659 305.714 155.136C305.434 154.595 305.032 154.184 304.51 153.904C304.006 153.605 303.427 153.456 302.774 153.456C302.12 153.456 301.532 153.605 301.01 153.904C300.506 154.184 300.114 154.595 299.834 155.136C299.554 155.677 299.414 156.321 299.414 157.068V166H296.25Z" fill="black"/>
<path d="M319.768 166.336C318.256 166.336 316.912 165.991 315.736 165.3C314.579 164.591 313.673 163.639 313.02 162.444C312.367 161.231 312.04 159.877 312.04 158.384C312.04 156.853 312.367 155.5 313.02 154.324C313.692 153.148 314.588 152.224 315.708 151.552C316.828 150.861 318.097 150.516 319.516 150.516C320.655 150.516 321.672 150.712 322.568 151.104C323.464 151.496 324.22 152.037 324.836 152.728C325.452 153.4 325.919 154.175 326.236 155.052C326.572 155.929 326.74 156.863 326.74 157.852C326.74 158.095 326.731 158.347 326.712 158.608C326.693 158.869 326.656 159.112 326.6 159.336H314.532V156.816H324.808L323.296 157.964C323.483 157.049 323.417 156.237 323.1 155.528C322.801 154.8 322.335 154.231 321.7 153.82C321.084 153.391 320.356 153.176 319.516 153.176C318.676 153.176 317.929 153.391 317.276 153.82C316.623 154.231 316.119 154.828 315.764 155.612C315.409 156.377 315.269 157.311 315.344 158.412C315.251 159.439 315.391 160.335 315.764 161.1C316.156 161.865 316.697 162.463 317.388 162.892C318.097 163.321 318.9 163.536 319.796 163.536C320.711 163.536 321.485 163.331 322.12 162.92C322.773 162.509 323.287 161.977 323.66 161.324L326.236 162.584C325.937 163.293 325.471 163.937 324.836 164.516C324.22 165.076 323.473 165.524 322.596 165.86C321.737 166.177 320.795 166.336 319.768 166.336Z" fill="black"/>
<path d="M336.828 166.336C335.372 166.336 334.065 165.991 332.908 165.3C331.769 164.591 330.864 163.639 330.192 162.444C329.538 161.249 329.212 159.905 329.212 158.412C329.212 156.919 329.548 155.575 330.22 154.38C330.892 153.185 331.797 152.243 332.936 151.552C334.074 150.861 335.362 150.516 336.8 150.516C338.013 150.516 339.086 150.759 340.02 151.244C340.953 151.729 341.69 152.401 342.232 153.26L341.756 153.988V144.804H344.892V166H341.896V162.92L342.26 163.508C341.737 164.423 340.99 165.123 340.02 165.608C339.049 166.093 337.985 166.336 336.828 166.336ZM337.136 163.396C338.013 163.396 338.797 163.181 339.488 162.752C340.197 162.323 340.748 161.735 341.14 160.988C341.55 160.223 341.756 159.364 341.756 158.412C341.756 157.46 341.55 156.611 341.14 155.864C340.748 155.117 340.197 154.529 339.488 154.1C338.797 153.671 338.013 153.456 337.136 153.456C336.258 153.456 335.465 153.671 334.756 154.1C334.046 154.529 333.496 155.117 333.104 155.864C332.712 156.611 332.516 157.46 332.516 158.412C332.516 159.364 332.712 160.223 333.104 160.988C333.496 161.735 334.037 162.323 334.728 162.752C335.437 163.181 336.24 163.396 337.136 163.396Z" fill="black"/>
<rect x="455.6" y="148.184" width="14.4" height="14.4" rx="7.2" fill="#00A858"/>
<path d="M484.62 163V149.245H480.378V147.355H490.878V149.245H486.699V163H484.62Z" fill="#999999"/>
<path d="M492.631 163V147.103H494.584V153.886L494.227 153.697C494.507 152.983 494.955 152.43 495.571 152.038C496.201 151.632 496.936 151.429 497.776 151.429C498.588 151.429 499.309 151.611 499.939 151.975C500.583 152.339 501.087 152.843 501.451 153.487C501.829 154.131 502.018 154.859 502.018 155.671V163H500.044V156.301C500.044 155.671 499.925 155.139 499.687 154.705C499.463 154.271 499.148 153.935 498.742 153.697C498.336 153.445 497.867 153.319 497.335 153.319C496.817 153.319 496.348 153.445 495.928 153.697C495.508 153.935 495.179 154.278 494.941 154.726C494.703 155.16 494.584 155.685 494.584 156.301V163H492.631Z" fill="#999999"/>
<path d="M504.813 163V151.681H506.766V163H504.813ZM504.813 149.875V147.355H506.766V149.875H504.813Z" fill="#999999"/>
<path d="M513.849 163.252C512.715 163.252 511.728 162.972 510.888 162.412C510.048 161.852 509.453 161.096 509.103 160.144L510.657 159.388C510.979 160.06 511.42 160.592 511.98 160.984C512.54 161.376 513.163 161.572 513.849 161.572C514.465 161.572 514.976 161.425 515.382 161.131C515.788 160.837 515.991 160.452 515.991 159.976C515.991 159.64 515.893 159.374 515.697 159.178C515.515 158.968 515.291 158.807 515.025 158.695C514.759 158.569 514.514 158.478 514.29 158.422L512.589 157.939C511.567 157.645 510.818 157.225 510.342 156.679C509.88 156.133 509.649 155.496 509.649 154.768C509.649 154.096 509.817 153.515 510.153 153.025C510.503 152.521 510.972 152.129 511.56 151.849C512.162 151.569 512.834 151.429 513.576 151.429C514.57 151.429 515.459 151.681 516.243 152.185C517.041 152.689 517.608 153.396 517.944 154.306L516.348 155.041C516.096 154.453 515.718 153.991 515.214 153.655C514.71 153.305 514.143 153.13 513.513 153.13C512.939 153.13 512.484 153.277 512.148 153.571C511.812 153.851 511.644 154.208 511.644 154.642C511.644 154.964 511.728 155.23 511.896 155.44C512.064 155.636 512.267 155.79 512.505 155.902C512.743 156 512.974 156.084 513.198 156.154L515.046 156.7C515.97 156.966 516.684 157.379 517.188 157.939C517.706 158.499 517.965 159.171 517.965 159.955C517.965 160.585 517.79 161.152 517.44 161.656C517.09 162.16 516.607 162.552 515.991 162.832C515.375 163.112 514.661 163.252 513.849 163.252Z" fill="#999999"/>
<path d="M526.756 163L522.871 151.681H525.034L528.121 161.152L527.365 161.131L530.389 151.681H532.237L535.261 161.131L534.505 161.152L537.613 151.681H539.755L535.87 163H534.001L531.019 153.55H531.607L528.625 163H526.756Z" fill="#999999"/>
<path d="M546.504 163.252C545.412 163.252 544.439 162.993 543.585 162.475C542.731 161.957 542.059 161.25 541.569 160.354C541.079 159.444 540.834 158.429 540.834 157.309C540.834 156.175 541.072 155.167 541.548 154.285C542.038 153.403 542.696 152.71 543.522 152.206C544.362 151.688 545.3 151.429 546.336 151.429C547.176 151.429 547.918 151.583 548.562 151.891C549.22 152.185 549.773 152.591 550.221 153.109C550.683 153.613 551.033 154.194 551.271 154.852C551.523 155.496 551.649 156.168 551.649 156.868C551.649 157.022 551.635 157.197 551.607 157.393C551.593 157.575 551.572 157.75 551.544 157.918H542.262V156.238H550.41L549.486 156.994C549.612 156.266 549.542 155.615 549.276 155.041C549.01 154.467 548.618 154.012 548.1 153.676C547.582 153.34 546.994 153.172 546.336 153.172C545.678 153.172 545.076 153.34 544.53 153.676C543.984 154.012 543.557 154.495 543.249 155.125C542.955 155.741 542.836 156.476 542.892 157.33C542.836 158.156 542.962 158.884 543.27 159.514C543.592 160.13 544.04 160.613 544.614 160.963C545.202 161.299 545.839 161.467 546.525 161.467C547.281 161.467 547.918 161.292 548.436 160.942C548.954 160.592 549.374 160.144 549.696 159.598L551.334 160.438C551.11 160.956 550.76 161.432 550.284 161.866C549.822 162.286 549.269 162.622 548.625 162.874C547.995 163.126 547.288 163.252 546.504 163.252Z" fill="#999999"/>
<path d="M559.403 163.252C558.311 163.252 557.338 162.993 556.484 162.475C555.63 161.957 554.958 161.25 554.468 160.354C553.978 159.444 553.733 158.429 553.733 157.309C553.733 156.175 553.971 155.167 554.447 154.285C554.937 153.403 555.595 152.71 556.421 152.206C557.261 151.688 558.199 151.429 559.235 151.429C560.075 151.429 560.817 151.583 561.461 151.891C562.119 152.185 562.672 152.591 563.12 153.109C563.582 153.613 563.932 154.194 564.17 154.852C564.422 155.496 564.548 156.168 564.548 156.868C564.548 157.022 564.534 157.197 564.506 157.393C564.492 157.575 564.471 157.75 564.443 157.918H555.161V156.238H563.309L562.385 156.994C562.511 156.266 562.441 155.615 562.175 155.041C561.909 154.467 561.517 154.012 560.999 153.676C560.481 153.34 559.893 153.172 559.235 153.172C558.577 153.172 557.975 153.34 557.429 153.676C556.883 154.012 556.456 154.495 556.148 155.125C555.854 155.741 555.735 156.476 555.791 157.33C555.735 158.156 555.861 158.884 556.169 159.514C556.491 160.13 556.939 160.613 557.513 160.963C558.101 161.299 558.738 161.467 559.424 161.467C560.18 161.467 560.817 161.292 561.335 160.942C561.853 160.592 562.273 160.144 562.595 159.598L564.233 160.438C564.009 160.956 563.659 161.432 563.183 161.866C562.721 162.286 562.168 162.622 561.524 162.874C560.894 163.126 560.187 163.252 559.403 163.252Z" fill="#999999"/>
<path d="M567.095 163V147.103H569.048V158.002L568.25 157.813L574.256 151.681H576.755L572.408 156.238L577.049 163H574.739L570.497 156.868L571.715 156.805L568.418 160.249L569.048 158.821V163H567.095Z" fill="#999999"/>
<path d="M144 313.447L185.308 271.439C192.833 263.786 205.056 263.437 213.005 270.647L244.949 299.622C251.838 305.87 262.125 306.545 269.772 301.25L334.913 256.141C343.614 250.115 355.504 251.913 362.036 260.241L404.069 313.837C410.51 322.049 422.183 323.928 430.876 318.152L578 220.384" stroke="#00A858" stroke-width="5" stroke-linecap="round"/>
<path d="M171.839 285.136L144 313.447V328.384H578V220.384L446.274 307.919C431.662 317.629 424.357 322.484 416.628 321.24C408.9 319.996 403.487 313.094 392.66 299.289L373.666 275.07C362.647 261.02 357.137 253.995 349.288 252.808C341.439 251.622 334.099 256.705 319.419 266.87L282.83 292.208C270.301 300.883 264.037 305.221 257.076 304.765C250.115 304.308 244.472 299.189 233.184 288.95L227.234 283.553C213.773 271.344 207.043 265.24 198.997 265.469C190.951 265.699 184.581 272.178 171.839 285.136Z" fill="url(#paint0_linear_1701_5311)"/>
<g filter="url(#filter1_d_1701_5311)">
<rect x="521.812" y="232.984" width="31" height="28.8" rx="14.4" fill="white"/>
</g>
<rect x="527.625" y="238.384" width="19.375" height="18" rx="9" fill="#00A858"/>
<path d="M157.667 401.48C155.774 401.48 154.014 401.133 152.387 400.44C150.787 399.747 149.4 398.787 148.227 397.56C147.08 396.307 146.24 394.853 145.707 393.2L150.227 391.24C150.947 392.947 151.987 394.293 153.347 395.28C154.707 396.24 156.24 396.72 157.947 396.72C158.907 396.72 159.733 396.573 160.427 396.28C161.147 395.96 161.694 395.533 162.067 395C162.467 394.467 162.667 393.827 162.667 393.08C162.667 392.2 162.4 391.48 161.867 390.92C161.36 390.333 160.587 389.88 159.547 389.56L153.827 387.72C151.507 387 149.76 385.92 148.587 384.48C147.413 383.04 146.827 381.347 146.827 379.4C146.827 377.693 147.24 376.187 148.067 374.88C148.92 373.573 150.093 372.56 151.587 371.84C153.107 371.093 154.84 370.72 156.787 370.72C158.574 370.72 160.214 371.04 161.707 371.68C163.2 372.293 164.48 373.16 165.547 374.28C166.64 375.373 167.454 376.667 167.987 378.16L163.507 380.16C162.92 378.667 162.04 377.52 160.867 376.72C159.694 375.893 158.333 375.48 156.787 375.48C155.88 375.48 155.08 375.64 154.387 375.96C153.693 376.253 153.147 376.68 152.747 377.24C152.373 377.773 152.187 378.413 152.187 379.16C152.187 379.987 152.453 380.72 152.987 381.36C153.52 381.973 154.333 382.453 155.427 382.8L160.907 384.52C163.28 385.293 165.054 386.36 166.227 387.72C167.427 389.08 168.027 390.76 168.027 392.76C168.027 394.467 167.587 395.973 166.707 397.28C165.827 398.587 164.614 399.613 163.067 400.36C161.52 401.107 159.72 401.48 157.667 401.48ZM155.747 405V367.2H159.147V405H155.747Z" fill="black"/>
<path d="M171.885 401V396.88L179.965 388.44C181.565 386.76 182.792 385.427 183.645 384.44C184.525 383.427 185.139 382.56 185.485 381.84C185.832 381.12 186.005 380.387 186.005 379.64C186.005 378.387 185.605 377.4 184.805 376.68C184.032 375.96 183.032 375.6 181.805 375.6C180.525 375.6 179.419 375.973 178.485 376.72C177.552 377.44 176.872 378.507 176.445 379.92L171.685 378.44C172.005 376.867 172.659 375.507 173.645 374.36C174.632 373.187 175.832 372.293 177.245 371.68C178.685 371.04 180.205 370.72 181.805 370.72C183.725 370.72 185.405 371.067 186.845 371.76C188.312 372.453 189.445 373.427 190.245 374.68C191.072 375.933 191.485 377.4 191.485 379.08C191.485 380.147 191.285 381.2 190.885 382.24C190.485 383.28 189.885 384.347 189.085 385.44C188.285 386.507 187.245 387.707 185.965 389.04L178.965 396.4H191.885V401H171.885Z" fill="black"/>
<path d="M196.792 401L209.192 375.8H195.152V371.2H214.912V375.8L202.792 401H196.792Z" fill="black"/>
<path d="M213.876 407.24V404.64C214.756 404.427 215.463 404.013 215.996 403.4C216.556 402.813 216.903 402.013 217.036 401H214.676V395.4H219.956V398.84C219.956 401.187 219.436 403.067 218.396 404.48C217.383 405.893 215.876 406.813 213.876 407.24Z" fill="black"/>
<path d="M243.173 401V394.44H229.493V389.88L242.853 371.2H248.533V389.88H252.893V394.44H248.533V401H243.173ZM233.493 391.84L232.533 389.88H243.173V375.48L244.573 375.92L233.493 391.84Z" fill="black"/>
<path d="M266.865 401.48C264.705 401.48 262.825 401.08 261.225 400.28C259.652 399.453 258.425 398.347 257.545 396.96C256.692 395.573 256.265 394.053 256.265 392.4C256.265 390.453 256.785 388.813 257.825 387.48C258.865 386.12 260.372 385.12 262.345 384.48L262.025 385.8C260.612 385.347 259.492 384.467 258.665 383.16C257.865 381.853 257.465 380.413 257.465 378.84C257.465 377.267 257.865 375.867 258.665 374.64C259.465 373.413 260.572 372.453 261.985 371.76C263.398 371.067 265.025 370.72 266.865 370.72C268.678 370.72 270.278 371.067 271.665 371.76C273.078 372.453 274.185 373.413 274.985 374.64C275.812 375.867 276.225 377.267 276.225 378.84C276.225 380.44 275.812 381.893 274.985 383.2C274.185 384.48 273.078 385.36 271.665 385.84L271.385 384.44C273.358 385.133 274.865 386.16 275.905 387.52C276.945 388.853 277.465 390.493 277.465 392.44C277.465 394.093 277.025 395.613 276.145 397C275.292 398.36 274.065 399.453 272.465 400.28C270.892 401.08 269.025 401.48 266.865 401.48ZM266.865 396.88C267.905 396.88 268.812 396.693 269.585 396.32C270.358 395.92 270.958 395.373 271.385 394.68C271.812 393.96 272.025 393.147 272.025 392.24C272.025 391.307 271.812 390.507 271.385 389.84C270.958 389.147 270.358 388.613 269.585 388.24C268.812 387.84 267.905 387.64 266.865 387.64C265.825 387.64 264.918 387.84 264.145 388.24C263.398 388.613 262.812 389.147 262.385 389.84C261.958 390.507 261.745 391.307 261.745 392.24C261.745 393.147 261.958 393.96 262.385 394.68C262.812 395.373 263.398 395.92 264.145 396.32C264.918 396.693 265.825 396.88 266.865 396.88ZM266.865 383.04C267.638 383.04 268.318 382.867 268.905 382.52C269.492 382.173 269.945 381.72 270.265 381.16C270.612 380.573 270.785 379.907 270.785 379.16C270.785 378.413 270.612 377.76 270.265 377.2C269.945 376.613 269.492 376.16 268.905 375.84C268.318 375.493 267.638 375.32 266.865 375.32C266.092 375.32 265.398 375.493 264.785 375.84C264.198 376.16 263.732 376.613 263.385 377.2C263.065 377.76 262.905 378.413 262.905 379.16C262.905 379.907 263.065 380.573 263.385 381.16C263.732 381.72 264.198 382.173 264.785 382.52C265.398 382.867 266.092 383.04 266.865 383.04Z" fill="black"/>
<path d="M281.338 401V396.88L289.418 388.44C291.018 386.76 292.245 385.427 293.098 384.44C293.978 383.427 294.592 382.56 294.938 381.84C295.285 381.12 295.458 380.387 295.458 379.64C295.458 378.387 295.058 377.4 294.258 376.68C293.485 375.96 292.485 375.6 291.258 375.6C289.978 375.6 288.872 375.973 287.938 376.72C287.005 377.44 286.325 378.507 285.898 379.92L281.138 378.44C281.458 376.867 282.112 375.507 283.098 374.36C284.085 373.187 285.285 372.293 286.698 371.68C288.138 371.04 289.658 370.72 291.258 370.72C293.178 370.72 294.858 371.067 296.298 371.76C297.765 372.453 298.898 373.427 299.698 374.68C300.525 375.933 300.938 377.4 300.938 379.08C300.938 380.147 300.738 381.2 300.338 382.24C299.938 383.28 299.338 384.347 298.538 385.44C297.738 386.507 296.698 387.707 295.418 389.04L288.418 396.4H301.338V401H281.338Z" fill="black"/>
<rect x="463" y="360.4" width="113.4" height="46.8" rx="23.4" fill="#F0FFF3"/>
<path d="M479.668 391V378.1H476.808V376.1H482.008V391H479.668Z" fill="#00A858"/>
<path d="M484.98 391V389.3L489.06 384.94C489.86 384.087 490.486 383.4 490.94 382.88C491.406 382.347 491.74 381.88 491.94 381.48C492.153 381.08 492.26 380.66 492.26 380.22C492.26 379.5 492.04 378.947 491.6 378.56C491.16 378.16 490.593 377.96 489.9 377.96C489.18 377.96 488.56 378.167 488.04 378.58C487.52 378.98 487.16 379.567 486.96 380.34L484.88 379.74C485.04 378.953 485.36 378.273 485.84 377.7C486.32 377.113 486.906 376.66 487.6 376.34C488.306 376.02 489.066 375.86 489.88 375.86C490.826 375.86 491.653 376.04 492.36 376.4C493.066 376.747 493.613 377.233 494 377.86C494.4 378.487 494.6 379.213 494.6 380.04C494.6 380.587 494.493 381.12 494.28 381.64C494.08 382.147 493.766 382.687 493.34 383.26C492.913 383.82 492.366 384.453 491.7 385.16L488.1 389H494.88V391H484.98Z" fill="#00A858"/>
<path d="M497.833 393.94V392.84C498.273 392.733 498.613 392.527 498.853 392.22C499.093 391.927 499.239 391.52 499.293 391H498.233V388.4H500.533V390.1C500.533 391.167 500.306 392.027 499.853 392.68C499.399 393.333 498.726 393.753 497.833 393.94Z" fill="#00A858"/>
<path d="M508.355 391.24C507.555 391.24 506.802 391.093 506.095 390.8C505.402 390.507 504.802 390.093 504.295 389.56C503.802 389.027 503.449 388.4 503.235 387.68L505.235 386.92C505.502 387.627 505.909 388.173 506.455 388.56C507.002 388.947 507.635 389.14 508.355 389.14C508.942 389.14 509.449 389.027 509.875 388.8C510.315 388.573 510.655 388.253 510.895 387.84C511.149 387.427 511.275 386.927 511.275 386.34C511.275 385.767 511.149 385.273 510.895 384.86C510.655 384.447 510.315 384.133 509.875 383.92C509.449 383.707 508.942 383.6 508.355 383.6C508.115 383.6 507.869 383.62 507.615 383.66C507.375 383.7 507.162 383.753 506.975 383.82L506.455 382.72L510.375 378.1H504.035V376.1H513.015V378L509.175 382.6L509.115 381.84C510.009 381.853 510.795 382.053 511.475 382.44C512.155 382.813 512.682 383.333 513.055 384C513.442 384.653 513.635 385.413 513.635 386.28C513.635 387.213 513.409 388.06 512.955 388.82C512.502 389.567 511.875 390.16 511.075 390.6C510.289 391.027 509.382 391.24 508.355 391.24Z" fill="#00A858"/>
<path d="M517.682 391L529.802 376.1H532.322L520.202 391H517.682ZM519.962 383.66C519.229 383.66 518.569 383.487 517.982 383.14C517.395 382.78 516.922 382.307 516.562 381.72C516.215 381.133 516.042 380.48 516.042 379.76C516.042 379.04 516.215 378.387 516.562 377.8C516.922 377.2 517.395 376.727 517.982 376.38C518.569 376.033 519.229 375.86 519.962 375.86C520.695 375.86 521.355 376.033 521.942 376.38C522.529 376.727 522.995 377.2 523.342 377.8C523.689 378.387 523.862 379.04 523.862 379.76C523.862 380.48 523.689 381.133 523.342 381.72C522.995 382.307 522.529 382.78 521.942 383.14C521.355 383.487 520.695 383.66 519.962 383.66ZM519.962 381.84C520.375 381.84 520.729 381.74 521.022 381.54C521.329 381.34 521.562 381.08 521.722 380.76C521.882 380.44 521.962 380.107 521.962 379.76C521.962 379.4 521.882 379.067 521.722 378.76C521.562 378.44 521.329 378.18 521.022 377.98C520.729 377.78 520.375 377.68 519.962 377.68C519.562 377.68 519.209 377.78 518.902 377.98C518.595 378.18 518.355 378.44 518.182 378.76C518.022 379.067 517.942 379.4 517.942 379.76C517.942 380.107 518.022 380.44 518.182 380.76C518.355 381.08 518.595 381.34 518.902 381.54C519.209 381.74 519.562 381.84 519.962 381.84ZM529.942 391.24C529.209 391.24 528.542 391.067 527.942 390.72C527.355 390.36 526.889 389.887 526.542 389.3C526.195 388.713 526.022 388.06 526.022 387.34C526.022 386.62 526.195 385.967 526.542 385.38C526.889 384.78 527.355 384.307 527.942 383.96C528.542 383.613 529.209 383.44 529.942 383.44C530.675 383.44 531.335 383.613 531.922 383.96C532.509 384.307 532.975 384.78 533.322 385.38C533.669 385.967 533.842 386.62 533.842 387.34C533.842 388.06 533.669 388.713 533.322 389.3C532.975 389.887 532.509 390.36 531.922 390.72C531.335 391.067 530.675 391.24 529.942 391.24ZM529.942 389.42C530.355 389.42 530.709 389.32 531.002 389.12C531.295 388.92 531.522 388.66 531.682 388.34C531.855 388.02 531.942 387.687 531.942 387.34C531.942 386.98 531.855 386.647 531.682 386.34C531.522 386.02 531.295 385.76 531.002 385.56C530.709 385.36 530.355 385.26 529.942 385.26C529.542 385.26 529.189 385.36 528.882 385.56C528.575 385.76 528.335 386.02 528.162 386.34C528.002 386.647 527.922 386.98 527.922 387.34C527.922 387.687 528.002 388.02 528.162 388.34C528.335 388.66 528.575 388.92 528.882 389.12C529.189 389.32 529.542 389.42 529.942 389.42Z" fill="#00A858"/>
<path d="M558.463 381.613L553 376.15L547.537 381.613" stroke="#00A858" stroke-width="2" stroke-miterlimit="10" stroke-linecap="round" stroke-linejoin="round"/>
<path d="M553 391.45V376.303" stroke="#00A858" stroke-width="2" stroke-miterlimit="10" stroke-linecap="round" stroke-linejoin="round"/>
</g>
<path d="M724.093 437.167C723.001 437.615 720.517 436.322 719.442 435.051C718.555 434.008 718.03 432.707 717.945 431.341L710.621 376.165C703.141 422.86 698.813 470.01 697.672 517.287C697.644 518.531 694.555 517.723 693 516.297C691.778 515.173 690.993 513.655 690.781 512.008C688.61 500.89 686.982 489.959 685.898 479.211C685.269 473.26 684.878 467.425 684.45 461.548C681.729 424.372 679.022 387.104 682.43 352.407C666.667 397.1 658.331 445.576 657.485 497.132C657.465 498.258 654.548 497.469 653.299 496.077C652.336 495.092 651.87 493.724 652.031 492.357C653.831 433.731 664.952 378.879 686.677 329.742C686.943 328.711 687.876 327.993 688.941 328C690.352 328.022 692.796 329.596 692.475 330.467C683.352 356.091 684.761 386.739 686.271 417.14C687.477 442.365 688.769 467.618 692.528 493.773L699.415 425.523C701.37 405.069 703.493 384.67 708.881 365.832C708.993 364.576 709.972 363.569 711.226 363.426C712.826 363.293 715.85 364.957 715.852 366.218C716.161 389.452 719.051 412.579 724.472 435.172C724.66 435.972 724.82 436.857 724.092 437.168L724.093 437.167Z" fill="black"/>
<path d="M0.53798 133.734C1.62967 133.286 4.11402 134.579 5.18908 135.85C6.07588 136.893 6.60062 138.194 6.68626 139.56L14.0095 194.736C21.4895 148.041 25.8181 100.891 26.9591 53.6138C26.9871 52.3696 30.0759 53.1777 31.6309 54.6042C32.8532 55.7281 33.6383 57.246 33.8498 58.8935C36.0206 70.0106 37.6493 80.9421 38.7334 91.6898C39.3619 97.6407 39.7527 103.476 40.1814 109.353C42.9019 146.529 45.6088 183.797 42.2012 218.494C57.9639 173.801 66.2997 125.325 67.1455 73.7688C67.1664 72.6425 70.0831 73.432 71.3323 74.8237C72.2946 75.8088 72.7608 77.1767 72.5996 78.5437C70.8004 137.17 59.6787 192.022 37.9543 241.159C37.6878 242.19 36.7548 242.908 35.6898 242.901C34.2792 242.879 31.8354 241.305 32.1555 240.434C41.2788 214.81 39.8696 184.162 38.3604 153.761C37.1536 128.536 35.8619 103.283 32.1026 77.1282L25.2159 145.378C23.2614 165.832 21.1382 186.231 15.7499 205.069C15.6381 206.325 14.6586 207.332 13.4048 207.475C11.8045 207.608 8.78129 205.944 8.77855 204.683C8.47035 181.449 5.57984 158.322 0.158921 135.729C-0.0295514 134.929 -0.189286 134.044 0.53892 133.733L0.53798 133.734Z" fill="black"/>
<defs>
<filter id="filter0_d_1701_5311" x="73" y="70" width="576" height="416" filterUnits="userSpaceOnUse" color-interpolation-filters="sRGB">
<feFlood flood-opacity="0" result="BackgroundImageFix"/>
<feColorMatrix in="SourceAlpha" type="matrix" values="0 0 0 0 0 0 0 0 0 0 0 0 0 0 0 0 0 0 127 0" result="hardAlpha"/>
<feOffset dy="4"/>
<feGaussianBlur stdDeviation="14"/>
<feComposite in2="hardAlpha" operator="out"/>
<feColorMatrix type="matrix" values="0 0 0 0 0.941176 0 0 0 0 0.941176 0 0 0 0 0.941176 0 0 0 0.2 0"/>
<feBlend mode="normal" in2="BackgroundImageFix" result="effect1_dropShadow_1701_5311"/>
<feBlend mode="normal" in="SourceGraphic" in2="effect1_dropShadow_1701_5311" result="shape"/>
</filter>
<filter id="filter1_d_1701_5311" x="513.812" y="226.984" width="47" height="44.8" filterUnits="userSpaceOnUse" color-interpolation-filters="sRGB">
<feFlood flood-opacity="0" result="BackgroundImageFix"/>
<feColorMatrix in="SourceAlpha" type="matrix" values="0 0 0 0 0 0 0 0 0 0 0 0 0 0 0 0 0 0 127 0" result="hardAlpha"/>
<feOffset dy="2"/>
<feGaussianBlur stdDeviation="4"/>
<feComposite in2="hardAlpha" operator="out"/>
<feColorMatrix type="matrix" values="0 0 0 0 0.82 0 0 0 0 0.82 0 0 0 0 0.82 0 0 0 0.2 0"/>
<feBlend mode="normal" in2="BackgroundImageFix" result="effect1_dropShadow_1701_5311"/>
<feBlend mode="normal" in="SourceGraphic" in2="effect1_dropShadow_1701_5311" result="shape"/>
</filter>
<linearGradient id="paint0_linear_1701_5311" x1="361" y1="220.384" x2="361" y2="328.384" gradientUnits="userSpaceOnUse">
<stop stop-color="#00A858" stop-opacity="0.1"/>
<stop offset="1" stop-color="#00A858" stop-opacity="0"/>
</linearGradient>
</defs>
</svg>
