<svg width="48" height="48" viewBox="0 0 48 48" fill="none" xmlns="http://www.w3.org/2000/svg">
<rect width="48" height="48" rx="12" fill="#F7F7F7"/>
<g clip-path="url(#clip0_1701_5097)">
<path d="M32.5236 14H15.4764C15.0848 14 14.7093 14.1555 14.4324 14.4324C14.1555 14.7093 14 15.0848 14 15.4764V32.5236C14 32.9152 14.1555 33.2907 14.4324 33.5676C14.7093 33.8445 15.0848 34 15.4764 34H32.5236C32.9152 34 33.2907 33.8445 33.5676 33.5676C33.8445 33.2907 34 32.9152 34 32.5236V15.4764C34 15.0848 33.8445 14.7093 33.5676 14.4324C33.2907 14.1555 32.9152 14 32.5236 14ZM19.9611 31.0375H16.9542V21.4861H19.9611V31.0375ZM18.4556 20.1625C18.1145 20.1606 17.7816 20.0577 17.4989 19.8667C17.2163 19.6758 16.9965 19.4054 16.8674 19.0897C16.7383 18.774 16.7055 18.4272 16.7734 18.0929C16.8412 17.7586 17.0065 17.4519 17.2485 17.2115C17.4904 16.9711 17.7982 16.8077 18.1329 16.7421C18.4676 16.6764 18.8143 16.7113 19.1291 16.8425C19.444 16.9736 19.7129 17.1951 19.9021 17.479C20.0912 17.7629 20.1919 18.0964 20.1917 18.4375C20.1949 18.6659 20.1521 18.8925 20.0658 19.104C19.9796 19.3155 19.8517 19.5074 19.6896 19.6684C19.5276 19.8294 19.3349 19.9561 19.1229 20.041C18.9108 20.1258 18.6839 20.1672 18.4556 20.1625ZM31.0444 31.0458H28.0389V25.8278C28.0389 24.2889 27.3847 23.8139 26.5403 23.8139C25.6486 23.8139 24.7736 24.4861 24.7736 25.8667V31.0458H21.7667V21.4931H24.6583V22.8167H24.6972C24.9875 22.2292 26.0042 21.225 27.5556 21.225C29.2333 21.225 31.0458 22.2208 31.0458 25.1375L31.0444 31.0458Z" fill="#144EB3"/>
</g>
<defs>
<clipPath id="clip0_1701_5097">
<rect width="20" height="20" fill="white" transform="translate(14 14)"/>
</clipPath>
</defs>
</svg>
