<svg width="34" height="36" viewBox="0 0 34 36" fill="none" xmlns="http://www.w3.org/2000/svg">
<path d="M12.6533 33.8072L0.180908 26.4285L2.30343 18.5072L13.4393 25.422L15.2024 26.5167C17.7613 28.1057 21.128 26.774 21.9076 23.8645C22.4003 22.026 21.6801 20.0766 20.1105 19L4.95659 8.60545L7.07911 0.684082L18.1398 8.21493L23.2013 11.6611L25.6599 13.335C29.9244 16.2386 31.8865 21.5214 30.5512 26.5048C28.4725 34.2626 19.5657 37.8966 12.6533 33.8072Z" fill="url(#paint0_linear_1092_3951)"/>
<path opacity="0.4" d="M13.4393 25.4219L13.9583 25.7993C14.8203 26.4263 15.7949 26.8815 16.829 27.14L0.180908 26.4284L13.4393 25.4219Z" fill="url(#paint1_linear_1092_3951)" fill-opacity="0.8"/>
<path opacity="0.4" d="M18.1398 8.21484L23.2013 11.661L4.95654 8.60536L18.1398 8.21484Z" fill="url(#paint2_linear_1092_3951)" fill-opacity="0.8"/>
<path d="M21.5699 0.530008L7.07911 0.683914L4.95659 8.60528L20.1322 8.11824C23.1427 8.02162 25.3926 10.8583 24.613 13.7678C24.1204 15.6063 22.522 16.9344 20.6243 17.082L2.30343 18.507L0.180908 26.4284L22.5978 24.7627C27.7428 24.3804 32.0834 20.7864 33.4186 15.803C35.4973 8.0452 29.6009 0.444711 21.5699 0.530008Z" fill="url(#paint3_linear_1092_3951)"/>
<defs>
<linearGradient id="paint0_linear_1092_3951" x1="-8.23423" y1="-3.3845" x2="47.932" y2="35.3643" gradientUnits="userSpaceOnUse">
<stop stop-color="#D6D6D6"/>
<stop offset="1" stop-color="white"/>
<stop offset="1" stop-color="white"/>
</linearGradient>
<linearGradient id="paint1_linear_1092_3951" x1="8.50493" y1="25.4219" x2="8.3987" y2="26.4904" gradientUnits="userSpaceOnUse">
<stop offset="0.270833" stop-color="#C4C4C4"/>
<stop offset="1" stop-color="#D9D9D9" stop-opacity="0"/>
</linearGradient>
<linearGradient id="paint2_linear_1092_3951" x1="14.0789" y1="8.21484" x2="13.6977" y2="10.3098" gradientUnits="userSpaceOnUse">
<stop offset="0.270833" stop-color="#C4C4C4"/>
<stop offset="1" stop-color="#D9D9D9" stop-opacity="0"/>
</linearGradient>
<linearGradient id="paint3_linear_1092_3951" x1="34.442" y1="13.4409" x2="1.17288" y2="13.4409" gradientUnits="userSpaceOnUse">
<stop offset="0.567708" stop-color="white"/>
<stop offset="1" stop-color="white"/>
</linearGradient>
</defs>
</svg>
