<svg width="706" height="548" viewBox="0 0 706 548" fill="none" xmlns="http://www.w3.org/2000/svg">
<rect x="17" width="672" height="548" rx="32" fill="#F1EEFC"/>
<g clip-path="url(#clip0_1701_5354)">
<path d="M103 69.9425C103 58.8968 111.954 49.9425 123 49.9425H583C594.046 49.9425 603 58.8968 603 69.9425V497.943H103V69.9425Z" fill="white"/>
<path d="M136.333 113.72V97.1648H138.778L145 105.787H143.778L149.889 97.1648H152.333V113.72H149.733V100.254L150.711 100.52L144.467 109.054H144.2L138.089 100.52L138.956 100.254V113.72H136.333Z" fill="black"/>
<path d="M161.156 113.987C159.956 113.987 158.889 113.713 157.956 113.165C157.038 112.602 156.319 111.846 155.801 110.898C155.282 109.935 155.023 108.861 155.023 107.676C155.023 106.461 155.282 105.387 155.801 104.454C156.334 103.52 157.045 102.787 157.934 102.254C158.823 101.706 159.83 101.431 160.956 101.431C161.86 101.431 162.667 101.587 163.378 101.898C164.089 102.209 164.689 102.639 165.178 103.187C165.667 103.72 166.038 104.335 166.289 105.031C166.556 105.728 166.689 106.468 166.689 107.254C166.689 107.446 166.682 107.646 166.667 107.854C166.652 108.061 166.623 108.254 166.578 108.431H157.001V106.431H165.156L163.956 107.343C164.104 106.617 164.052 105.972 163.801 105.409C163.563 104.831 163.193 104.38 162.689 104.054C162.201 103.713 161.623 103.543 160.956 103.543C160.289 103.543 159.697 103.713 159.178 104.054C158.66 104.38 158.26 104.854 157.978 105.476C157.697 106.083 157.586 106.824 157.645 107.698C157.571 108.513 157.682 109.224 157.978 109.831C158.289 110.439 158.719 110.913 159.267 111.254C159.83 111.594 160.467 111.765 161.178 111.765C161.904 111.765 162.519 111.602 163.023 111.276C163.541 110.95 163.949 110.528 164.245 110.009L166.289 111.009C166.052 111.572 165.682 112.083 165.178 112.543C164.689 112.987 164.097 113.343 163.401 113.609C162.719 113.861 161.971 113.987 161.156 113.987Z" fill="black"/>
<path d="M174.785 113.987C173.585 113.987 172.518 113.713 171.585 113.165C170.666 112.602 169.948 111.846 169.429 110.898C168.91 109.935 168.651 108.861 168.651 107.676C168.651 106.461 168.91 105.387 169.429 104.454C169.962 103.52 170.673 102.787 171.562 102.254C172.451 101.706 173.459 101.431 174.585 101.431C175.488 101.431 176.296 101.587 177.007 101.898C177.718 102.209 178.318 102.639 178.807 103.187C179.296 103.72 179.666 104.335 179.918 105.031C180.185 105.728 180.318 106.468 180.318 107.254C180.318 107.446 180.31 107.646 180.296 107.854C180.281 108.061 180.251 108.254 180.207 108.431H170.629V106.431H178.785L177.585 107.343C177.733 106.617 177.681 105.972 177.429 105.409C177.192 104.831 176.822 104.38 176.318 104.054C175.829 103.713 175.251 103.543 174.585 103.543C173.918 103.543 173.325 103.713 172.807 104.054C172.288 104.38 171.888 104.854 171.607 105.476C171.325 106.083 171.214 106.824 171.273 107.698C171.199 108.513 171.31 109.224 171.607 109.831C171.918 110.439 172.348 110.913 172.896 111.254C173.459 111.594 174.096 111.765 174.807 111.765C175.533 111.765 176.148 111.602 176.651 111.276C177.17 110.95 177.577 110.528 177.873 110.009L179.918 111.009C179.681 111.572 179.31 112.083 178.807 112.543C178.318 112.987 177.725 113.343 177.029 113.609C176.348 113.861 175.599 113.987 174.785 113.987Z" fill="black"/>
<path d="M187.969 113.854C186.709 113.854 185.732 113.498 185.035 112.787C184.339 112.076 183.991 111.076 183.991 109.787V103.965H181.88V101.698H182.213C182.776 101.698 183.213 101.535 183.524 101.209C183.835 100.883 183.991 100.439 183.991 99.8759V98.9426H186.502V101.698H189.235V103.965H186.502V109.676C186.502 110.091 186.569 110.446 186.702 110.743C186.835 111.024 187.05 111.246 187.346 111.409C187.643 111.557 188.028 111.631 188.502 111.631C188.62 111.631 188.754 111.624 188.902 111.609C189.05 111.594 189.191 111.58 189.324 111.565V113.72C189.117 113.75 188.887 113.78 188.635 113.809C188.383 113.839 188.161 113.854 187.969 113.854Z" fill="black"/>
<path d="M191.775 113.72V101.698H194.286V113.72H191.775ZM191.775 100.054V97.1648H194.286V100.054H191.775Z" fill="black"/>
<path d="M197.222 113.72V101.698H199.622V104.054L199.333 103.743C199.629 102.987 200.103 102.417 200.755 102.031C201.407 101.631 202.162 101.431 203.022 101.431C203.911 101.431 204.696 101.624 205.377 102.009C206.059 102.394 206.592 102.928 206.977 103.609C207.362 104.291 207.555 105.076 207.555 105.965V113.72H205.066V106.631C205.066 106.024 204.955 105.513 204.733 105.098C204.511 104.668 204.192 104.343 203.777 104.12C203.377 103.883 202.918 103.765 202.399 103.765C201.881 103.765 201.414 103.883 200.999 104.12C200.599 104.343 200.288 104.668 200.066 105.098C199.844 105.528 199.733 106.039 199.733 106.631V113.72H197.222Z" fill="black"/>
<path d="M216.043 118.609C215.168 118.609 214.361 118.469 213.62 118.187C212.88 117.906 212.243 117.513 211.709 117.009C211.176 116.52 210.776 115.943 210.509 115.276L212.82 114.32C213.028 114.883 213.405 115.35 213.954 115.72C214.517 116.091 215.206 116.276 216.02 116.276C216.657 116.276 217.228 116.15 217.731 115.898C218.235 115.661 218.635 115.306 218.931 114.831C219.228 114.372 219.376 113.817 219.376 113.165V110.454L219.82 110.965C219.405 111.735 218.828 112.32 218.087 112.72C217.361 113.12 216.539 113.32 215.62 113.32C214.509 113.32 213.509 113.061 212.62 112.543C211.731 112.024 211.028 111.313 210.509 110.409C210.005 109.506 209.754 108.491 209.754 107.365C209.754 106.224 210.005 105.209 210.509 104.32C211.028 103.431 211.724 102.728 212.598 102.209C213.472 101.691 214.472 101.431 215.598 101.431C216.517 101.431 217.331 101.631 218.043 102.031C218.768 102.417 219.361 102.98 219.82 103.72L219.487 104.343V101.698H221.865V113.165C221.865 114.202 221.613 115.128 221.109 115.943C220.62 116.772 219.939 117.424 219.065 117.898C218.191 118.372 217.183 118.609 216.043 118.609ZM215.909 110.987C216.576 110.987 217.168 110.831 217.687 110.52C218.206 110.194 218.613 109.765 218.909 109.231C219.22 108.683 219.376 108.068 219.376 107.387C219.376 106.706 219.22 106.091 218.909 105.543C218.598 104.994 218.183 104.565 217.665 104.254C217.146 103.928 216.561 103.765 215.909 103.765C215.228 103.765 214.62 103.928 214.087 104.254C213.554 104.565 213.131 104.994 212.82 105.543C212.524 106.076 212.376 106.691 212.376 107.387C212.376 108.054 212.524 108.661 212.82 109.209C213.131 109.757 213.554 110.194 214.087 110.52C214.62 110.831 215.228 110.987 215.909 110.987Z" fill="black"/>
<path d="M229.249 113.987C228.019 113.987 226.938 113.683 226.004 113.076C225.086 112.469 224.441 111.654 224.071 110.631L226.004 109.72C226.33 110.402 226.775 110.943 227.338 111.343C227.915 111.743 228.552 111.943 229.249 111.943C229.841 111.943 230.323 111.809 230.693 111.543C231.063 111.276 231.249 110.913 231.249 110.454C231.249 110.157 231.167 109.92 231.004 109.743C230.841 109.55 230.634 109.394 230.382 109.276C230.145 109.157 229.9 109.068 229.649 109.009L227.76 108.476C226.723 108.18 225.945 107.735 225.426 107.143C224.923 106.535 224.671 105.831 224.671 105.031C224.671 104.306 224.856 103.676 225.226 103.143C225.597 102.594 226.108 102.172 226.76 101.876C227.412 101.58 228.145 101.431 228.96 101.431C230.056 101.431 231.034 101.706 231.893 102.254C232.752 102.787 233.36 103.535 233.715 104.498L231.782 105.409C231.545 104.831 231.167 104.372 230.649 104.031C230.145 103.691 229.575 103.52 228.938 103.52C228.389 103.52 227.952 103.654 227.626 103.92C227.3 104.172 227.138 104.506 227.138 104.92C227.138 105.202 227.212 105.439 227.36 105.631C227.508 105.809 227.7 105.957 227.938 106.076C228.175 106.18 228.419 106.268 228.671 106.343L230.626 106.92C231.619 107.202 232.382 107.646 232.915 108.254C233.449 108.846 233.715 109.557 233.715 110.387C233.715 111.098 233.523 111.728 233.138 112.276C232.767 112.809 232.249 113.231 231.582 113.543C230.915 113.839 230.138 113.987 229.249 113.987Z" fill="black"/>
<path d="M561.333 105.373C561.291 105.373 561.264 105.373 561.222 105.373H561.153C558.528 105.29 556.569 103.262 556.569 100.762C556.569 98.2064 558.653 96.137 561.194 96.137C563.736 96.137 565.819 98.2203 565.819 100.762C565.805 103.276 563.847 105.304 561.347 105.387C561.347 105.373 561.347 105.373 561.333 105.373ZM561.194 98.2064C559.791 98.2064 558.653 99.3453 558.653 100.748C558.653 102.123 559.722 103.234 561.097 103.29C561.111 103.276 561.222 103.276 561.347 103.29C562.694 103.22 563.736 102.109 563.75 100.748C563.75 99.3453 562.611 98.2064 561.194 98.2064Z" fill="#292D32"/>
<path d="M561.347 115.609C560.806 115.609 560.264 115.568 559.722 115.47C559.153 115.373 558.778 114.831 558.875 114.262C558.972 113.693 559.514 113.318 560.083 113.415C561.792 113.706 563.597 113.387 564.806 112.581C565.458 112.151 565.806 111.609 565.806 111.068C565.806 110.526 565.444 109.998 564.806 109.568C563.597 108.762 561.764 108.443 560.042 108.748C559.472 108.859 558.931 108.47 558.833 107.901C558.736 107.331 559.111 106.79 559.681 106.693C561.944 106.29 564.292 106.72 565.958 107.831C567.181 108.651 567.889 109.818 567.889 111.068C567.889 112.304 567.194 113.484 565.958 114.318C564.694 115.151 563.056 115.609 561.347 115.609Z" fill="#292D32"/>
<path d="M544.625 105.373C544.611 105.373 544.597 105.373 544.597 105.373C542.097 105.29 540.139 103.262 540.125 100.762C540.125 98.2064 542.208 96.123 544.75 96.123C547.292 96.123 549.375 98.2064 549.375 100.748C549.375 103.262 547.417 105.29 544.917 105.373L544.625 104.331L544.722 105.373C544.694 105.373 544.653 105.373 544.625 105.373ZM544.764 103.29C544.847 103.29 544.917 103.29 545 103.304C546.236 103.248 547.319 102.137 547.319 100.762C547.319 99.3592 546.181 98.2203 544.778 98.2203C543.375 98.2203 542.236 99.3592 542.236 100.762C542.236 102.123 543.292 103.22 544.639 103.304C544.653 103.29 544.708 103.29 544.764 103.29Z" fill="#292D32"/>
<path d="M544.611 115.609C542.903 115.609 541.264 115.151 540 114.318C538.778 113.498 538.069 112.318 538.069 111.068C538.069 109.831 538.778 108.651 540 107.831C541.667 106.72 544.014 106.29 546.278 106.693C546.847 106.79 547.222 107.331 547.125 107.901C547.028 108.47 546.486 108.859 545.917 108.748C544.194 108.443 542.375 108.762 541.153 109.568C540.5 109.998 540.153 110.526 540.153 111.068C540.153 111.609 540.514 112.151 541.153 112.581C542.361 113.387 544.167 113.706 545.875 113.415C546.444 113.318 546.986 113.706 547.083 114.262C547.181 114.831 546.806 115.373 546.236 115.47C545.694 115.568 545.153 115.609 544.611 115.609Z" fill="#292D32"/>
<path d="M553 115.748C552.958 115.748 552.93 115.748 552.889 115.748H552.819C550.194 115.665 548.236 113.637 548.236 111.137C548.236 108.581 550.319 106.512 552.861 106.512C555.403 106.512 557.486 108.595 557.486 111.137C557.472 113.651 555.514 115.679 553.014 115.762C553.014 115.748 553.014 115.748 553 115.748ZM552.861 108.581C551.458 108.581 550.319 109.72 550.319 111.123C550.319 112.498 551.389 113.609 552.764 113.665C552.778 113.651 552.889 113.651 553.014 113.665C554.361 113.595 555.403 112.484 555.416 111.123C555.416 109.734 554.278 108.581 552.861 108.581Z" fill="#292D32"/>
<path d="M553 125.998C551.333 125.998 549.666 125.567 548.375 124.692C547.152 123.873 546.444 122.706 546.444 121.456C546.444 120.22 547.139 119.026 548.375 118.206C550.972 116.484 555.041 116.484 557.625 118.206C558.847 119.026 559.555 120.192 559.555 121.442C559.555 122.679 558.861 123.873 557.625 124.692C556.333 125.554 554.666 125.998 553 125.998ZM549.527 119.956C548.875 120.387 548.527 120.929 548.527 121.47C548.527 122.012 548.889 122.54 549.527 122.97C551.402 124.234 554.583 124.234 556.458 122.97C557.111 122.54 557.458 121.998 557.458 121.456C557.458 120.915 557.097 120.387 556.458 119.956C554.597 118.692 551.416 118.706 549.527 119.956Z" fill="#292D32"/>
<path d="M424.676 267.105C445.54 291.493 459.087 323.33 453.126 351.374C447.164 379.283 421.695 403.399 391.483 418.03C361.272 432.799 326.454 438.082 301.66 425.21C277.003 412.207 262.507 380.773 255.19 347.987C247.875 315.201 247.604 280.924 264.131 257.489C280.796 234.05 314.26 221.584 345.013 223.618C375.768 225.787 403.812 242.72 424.676 267.105Z" fill="#F8F8ED"/>
<path d="M339.998 411.896L327.515 440.247" stroke="#23221F" stroke-linecap="round" stroke-linejoin="round"/>
<path d="M364.109 221.907L368.672 202.315" stroke="#23221F" stroke-linecap="round" stroke-linejoin="round"/>
<path d="M369.601 243.129L389.924 219.121" stroke="#23221F" stroke-linecap="round" stroke-linejoin="round"/>
<path d="M218.073 278.433H306.546C316.891 278.433 325.278 286.817 325.278 297.162V385.178C325.278 395.524 316.891 403.907 306.546 403.907H218.073C207.727 403.907 199.344 395.524 199.344 385.178V297.162C199.344 286.817 207.727 278.433 218.073 278.433Z" fill="#FFDF9E"/>
<path d="M230.461 295.119L216.072 309.508" stroke="black" stroke-linecap="round" stroke-linejoin="round"/>
<path d="M230.461 309.508L216.072 295.119" stroke="black" stroke-linecap="round" stroke-linejoin="round"/>
<path d="M487.755 248.46H395.859C385.113 248.46 376.404 257.169 376.404 267.912V359.333C376.404 370.078 385.113 378.787 395.859 378.787H487.755C498.5 378.787 507.209 370.078 507.209 359.333V267.912C507.209 257.169 498.5 248.46 487.755 248.46Z" fill="#5937BE"/>
<path d="M474.886 265.791L489.833 280.739" stroke="black" stroke-linecap="round" stroke-linejoin="round"/>
<path d="M474.886 280.739L489.833 265.791" stroke="black" stroke-linecap="round" stroke-linejoin="round"/>
<path d="M320.84 346.64C320.84 344.6 320.78 342.435 320.655 340.21C320.81 340.18 324.952 339.036 324.982 330.351H325.012C325.57 330.351 327.114 330.166 327.455 328.434C327.918 326.179 327.855 323.151 326.652 321.511C326.096 320.8 325.445 320.43 324.674 320.338C324.642 318.205 323.468 316.691 321.828 316.691C321.428 316.691 321.025 316.751 320.655 316.906C320.314 315.022 318.985 314.618 317.904 314.618C316.978 314.618 316.112 314.896 315.772 315.022C319.078 306.77 319.666 303.894 318.182 302.72C318.029 302.598 317.841 302.535 317.656 302.535C315.276 302.535 310.578 311.993 309.126 315.422C308.26 317.494 304.769 329.237 301.4 340.58L301.152 341.384L301.523 341.539L320.192 346.67L320.84 346.64Z" fill="#F5BC8E"/>
<path d="M219.249 349.638L219.494 349.143C220.701 346.762 223.514 342.094 228.893 338.078C228.923 338.048 228.953 338.048 228.986 338.048C229.015 338.015 229.078 337.955 229.108 337.922C230.437 336.904 234.021 334.864 239.092 333.72H239.122L256.647 364.75L272.007 334.213C272.037 334.153 272.099 334.153 272.132 334.153L273.243 334.586C275.561 335.512 276.952 336.534 279.548 338.54C285.482 343.086 289.995 347.04 294.445 351.027C295.559 352.016 296.64 352.974 297.691 353.903C297.876 353.16 299.175 347.969 301.123 341.354L301.152 341.291L320.84 346.577V346.64C320.902 358.29 319.233 367.286 315.894 373.343C312.866 378.844 308.416 381.813 302.977 381.935H302.452C291.354 381.935 282.176 374.827 277.693 370.562L276.457 380.513C276.49 380.699 280.351 395.255 285.76 414.079L285.793 414.172H285.7C285.545 414.172 271.233 413.894 258.779 403.569C244.253 415.934 223.885 416.089 223.018 416.089H222.926V415.901C223.577 408.36 224.999 401.807 226.605 396.399C221.227 395.936 217.117 394.359 214.334 391.701C207.288 384.904 209.05 369.974 219.249 349.638Z" fill="#5937BE"/>
<path opacity="0.2" d="M224.658 404.651C242.428 399.335 242.706 395.38 242.768 395.288L234.887 396.276L226.946 396.432H226.605C226.605 396.432 224.533 404.713 224.566 404.621L224.533 404.713L224.658 404.651Z" fill="#212121"/>
<path d="M272.284 334.246L272.162 334.183C270.245 333.38 268.297 332.98 266.198 332.947C266.198 332.947 266.135 332.947 266.043 332.947C264.188 332.854 259.272 332.606 253.926 332.606C250.217 332.606 246.848 332.732 243.942 332.947C242.243 333.072 240.636 333.35 239.092 333.72L238.967 333.75L256.614 365.028L272.284 334.246Z" fill="#FED532"/>
<path opacity="0.2" d="M278.777 360.641L278.652 360.671L277.693 370.592L277.756 370.655C279.888 372.662 282.146 374.457 284.464 376.001L284.709 376.156L278.777 360.641Z" fill="#212121"/>
<path d="M249.443 332.669H262.581L258.346 338.818L261.282 355.818L256.614 365.028L250.898 354.862L253.678 338.818L249.443 332.669Z" fill="#23221F"/>
<path d="M266.043 330.94L265.887 328.249C266.476 328.312 267.031 328.374 267.62 328.374C269.874 328.374 272.936 327.816 274.82 325.128C277.075 321.882 276.734 317.772 276.024 313.848C275.809 312.549 275.716 310.724 275.653 309.15C275.501 305.5 275.313 300.525 273.428 297.682C270.245 292.891 266.29 293.046 258.779 293.046C254.915 293.046 251.331 294.468 248.64 297.063C246.015 299.599 244.531 302.968 244.468 306.522C244.408 310.601 243.046 318.298 243.449 325.961L243.542 327.756C243.605 328.897 243.664 329.948 243.697 330.877V330.94H266.043Z" fill="#F5BC8E"/>
<path opacity="0.2" d="M265.887 328.249L265.58 328.219C262.766 327.941 260.201 327.138 257.543 326.179L257.48 326.302C260.171 328.034 263.014 329.578 265.917 330.94L266.043 331.032L265.887 328.249Z" fill="#191919"/>
<path d="M256.369 333.472L261.097 338.881C261.189 338.974 261.375 338.974 261.437 338.881L266.102 333.195C266.135 333.165 266.165 333.102 266.165 333.039L266.043 331.032C266.043 330.907 265.917 330.814 265.825 330.814H243.664V330.877C243.697 331.588 243.727 332.236 243.757 332.791L243.79 333.257C243.79 333.317 243.82 333.38 243.882 333.41L250.372 339.066C250.465 339.159 250.62 339.129 250.68 339.066L256.029 333.472C256.121 333.38 256.277 333.38 256.369 333.472Z" fill="#FED532"/>
<path d="M253.896 322.933L253.956 322.87L253.896 322.84C253.896 322.84 253.896 322.84 253.711 322.718C253.123 322.347 251.331 321.234 249.754 319.719C247.992 318.02 246.107 315.455 247.126 313.012C247.992 311.005 249.632 309.983 252.009 309.983C254.237 309.983 256.584 310.909 257.758 311.468C257.821 311.497 257.851 311.497 257.851 311.497L257.913 311.527L257.943 311.468C259.398 308.902 259.645 305.441 258.594 302.224C260.171 302.412 261.56 302.472 262.796 302.472C272.007 302.472 273.613 298.022 273.613 297.959C273.554 297.867 273.461 297.714 273.428 297.682C270.245 292.891 264.373 290.263 256.862 290.263C253 290.263 249.414 291.688 246.726 294.283C244.097 296.848 242.613 300.217 242.553 303.741C242.491 307.633 242.986 317.246 243.387 325.006L243.449 326.209H244.127C244.127 326.209 250.65 326.179 253.896 322.933Z" fill="#191919"/>
<path d="M273.18 311.097C273.739 311.097 274.202 310.631 274.202 310.076C274.202 309.52 273.739 309.057 273.18 309.057C272.625 309.057 272.162 309.52 272.162 310.076C272.162 310.631 272.625 311.097 273.18 311.097Z" fill="#171314"/>
<path d="M266.043 311.62C265.478 311.62 265.021 311.163 265.021 310.601C265.021 310.04 265.478 309.58 266.043 309.58C266.604 309.58 267.061 310.04 267.061 310.601C267.061 311.163 266.604 311.62 266.043 311.62Z" fill="#171314"/>
<path d="M276.83 336.563L277.941 348.495L271.141 347.258L273.924 356.221L259.398 370.129L258.779 403.51" stroke="#212121" stroke-linecap="round" stroke-linejoin="round"/>
<path d="M234.547 335.264L234.361 349.42L241.469 349.113L238.071 357.765L258.779 377.422" stroke="#212121" stroke-linecap="round" stroke-linejoin="round"/>
<path d="M256.614 364.876L259.52 370.252" stroke="#212121" stroke-linecap="round" stroke-linejoin="round"/>
<path d="M265.887 328.249C264.403 327.786 262.641 327.723 260.942 327.29" stroke="#191919" stroke-linecap="round" stroke-linejoin="round"/>
<path d="M252.29 314.803L255.688 316.35" stroke="#191919" stroke-linecap="round" stroke-linejoin="round"/>
<path d="M270.185 318.638C268.949 318.916 267.649 318.298 267.061 317.184" stroke="#191919" stroke-linecap="round" stroke-linejoin="round"/>
<path d="M270.555 312.178C270.955 313.23 271.266 314 270.215 314.433" stroke="#191919" stroke-linecap="round" stroke-linejoin="round"/>
<path d="M277.693 370.592L278.311 364.258" stroke="#212121" stroke-linecap="round" stroke-linejoin="round"/>
<path d="M297.691 353.933L298.587 357.672" stroke="#212121" stroke-linecap="round" stroke-linejoin="round"/>
<path d="M285.7 414.142C285.7 414.142 271.451 414.016 258.779 403.51C243.942 416.182 222.989 416.056 222.989 416.056" stroke="#212121" stroke-linecap="round" stroke-linejoin="round"/>
<path d="M266.135 333.102L261.282 339.006L256.244 333.195L250.528 339.129L243.85 333.317" stroke="black" stroke-linecap="round" stroke-linejoin="round"/>
<path d="M324.919 330.259C323.808 329.703 323.035 328.682 322.757 327.475" stroke="#191919" stroke-linecap="round" stroke-linejoin="round"/>
<path d="M324.612 320.678C324.612 323.458 323.901 328.219 320.902 327.475C319.263 327.075 318.833 325.283 318.74 324.139" stroke="#191919" stroke-linecap="round" stroke-linejoin="round"/>
<path d="M320.592 316.969C320.439 318.205 320.192 319.442 319.914 320.678" stroke="#191919" stroke-linecap="round" stroke-linejoin="round"/>
<path d="M306.376 325.006C309.652 322.625 318.43 319.131 319.977 320.986C321.521 322.84 314.102 327.786 314.102 327.786C314.102 327.786 317.504 333.35 316.575 337.677" stroke="#191919" stroke-linecap="round" stroke-linejoin="round"/>
<path d="M276.705 402.303C277.108 402.303 277.415 402.148 277.571 401.87C278.126 400.882 277.075 398.501 276.582 397.543C277.138 398.006 280.044 400.263 282.298 400.263C283.442 400.263 284.246 399.675 284.708 398.564C284.708 398.564 284.708 398.564 284.741 398.564C284.927 398.564 286.038 398.501 286.718 397.635C287.214 397.017 287.367 396.154 287.151 395.103C287.274 395.04 287.462 394.825 287.647 394.514C288.047 393.866 288.481 392.445 287.122 389.909C284.989 386.015 277.633 379.214 266.165 376.497C259.983 375.042 252.412 374.457 247.159 374.179H247.096L248.58 393.804C252.567 392.722 255.225 391.794 255.503 391.701C258.439 393.526 261.808 394.484 265.239 394.484C265.547 394.484 265.825 394.484 266.135 394.452C266.165 394.484 266.29 394.607 266.443 394.762C273.151 401.004 275.746 402.303 276.705 402.303Z" fill="#F5BC8E"/>
<path d="M284.741 398.564C279.796 393.926 271.141 387.436 271.141 387.436" stroke="#191919" stroke-linecap="round" stroke-linejoin="round"/>
<path d="M287.214 395.162C284.741 392.074 277.941 386.51 273.924 384.037" stroke="#191919" stroke-linecap="round" stroke-linejoin="round"/>
<path d="M276.582 397.543L268.856 390.805" stroke="#191919" stroke-linecap="round" stroke-linejoin="round"/>
<path d="M239.462 390.279C237.975 390.279 236.771 389.079 236.771 387.591C236.771 386.107 237.975 384.904 239.462 384.904C240.947 384.904 242.15 386.107 242.15 387.591C242.15 389.079 240.947 390.279 239.462 390.279Z" fill="#C1B3E9"/>
<path d="M237.545 366.45L234.672 373.839" stroke="#212121" stroke-linecap="round" stroke-linejoin="round"/>
<path d="M226.48 396.369C234.084 397.05 242.706 395.318 248.58 393.774" stroke="#212121" stroke-linecap="round" stroke-linejoin="round"/>
<path d="M247.033 374.146C239.925 373.839 235.598 373.839 228.797 373.839" stroke="#212121" stroke-linecap="round" stroke-linejoin="round"/>
<path d="M315.772 315.021C315.031 316.35 314.042 320.182 313.762 321.419" stroke="#191919" stroke-linecap="round" stroke-linejoin="round"/>
<path d="M422.991 296.66C423.353 292.41 422.63 285.299 425.856 281.112C429.048 276.862 439.716 278.974 447.851 282.528C455.142 285.694 455.592 289.97 455.592 296.72V318.023L454.9 327.935L434.352 331.131V313.02C434.352 313.02 428.113 314.708 424.798 311.635C420.492 307.657 422.6 300.91 422.991 296.66Z" fill="#CA7358"/>
<path opacity="0.2" d="M439.683 311.124L434.561 315.855C434.472 315.944 434.322 315.885 434.322 315.762V313.113C434.322 313.05 434.352 312.991 434.412 312.991C434.893 312.841 437.034 312.178 439.504 310.882C439.683 310.822 439.806 311.002 439.683 311.124Z" fill="#171717"/>
<path d="M419.405 324.653C425.855 318.205 433.146 316.787 434.352 316.637C434.352 316.637 434.502 324.985 442.909 324.985C450.954 324.985 455.655 316.637 455.655 316.637C460.416 317.874 464.815 320.102 468.76 322.996L470.689 378.68H420.883L422.842 360.569C421.997 361.806 420.462 363.553 419.405 364.697L406.449 339.478C409.615 335.318 415.038 329.052 419.405 324.653Z" fill="#FED532"/>
<path opacity="0.2" d="M465.657 346.559L470.66 378.617H452.251L457.943 353.157C458.245 351.771 459.12 350.564 460.356 349.812L465.657 346.559Z" fill="#2C2710"/>
<path opacity="0.2" d="M424.046 348.728L422.812 360.569C422.812 360.599 422.779 360.629 422.779 360.659C421.937 361.865 420.913 363.039 419.859 364.186C418.745 365.36 417.177 366.656 415.37 367.892C415.217 368.012 414.976 367.83 415.068 367.65L423.654 348.638C423.744 348.426 424.076 348.516 424.046 348.728Z" fill="#2C2710"/>
<path d="M377.826 310.491C381.048 310.67 384.997 313.534 384.997 313.534C384.997 313.534 384.334 301.603 388.673 307.928C393.042 314.406 403.316 343.394 403.316 343.394C403.316 343.394 404.612 341.736 406.631 339.236L419.948 364.156C416.726 367.77 410.066 372.229 401.267 372.229C379.812 372.229 378.456 331.373 378.456 331.373C378.456 331.373 373.516 329.655 371.345 326.52L377.826 310.491Z" fill="#CA7358"/>
<path opacity="0.2" d="M403.014 348.847L403.316 343.423C403.316 343.394 403.316 343.364 403.346 343.364C403.465 343.185 404.188 342.28 405.183 341.043C405.275 340.924 405.454 341.013 405.395 341.166L403.256 348.907C403.226 349.059 403.014 349.029 403.014 348.847Z" fill="#171717"/>
<path d="M403.316 343.394L403.044 348.426" stroke="#282625" stroke-linecap="round" stroke-linejoin="round"/>
<path d="M424.105 347.461L422.749 360.569" stroke="#3D371E" stroke-linecap="round" stroke-linejoin="round"/>
<path d="M446.403 299.674L443.572 301.692" stroke="#282625" stroke-linecap="round" stroke-linejoin="round"/>
<path d="M434.352 313.02C437.303 312.026 438.692 311.333 438.692 311.333" stroke="#282625" stroke-linecap="round" stroke-linejoin="round"/>
<path d="M431.037 304.252C430.494 305.067 429.651 305.488 428.687 305.608" stroke="#282625" stroke-linecap="round" stroke-linejoin="round"/>
<path d="M456.951 337.429C457.611 323.688 468.7 323.025 468.7 323.025C472.738 325.979 481.026 335.228 487.172 346.016L463.608 357.165C460.717 351.168 456.739 341.859 456.951 337.429Z" fill="#FED532"/>
<path d="M422.991 374.128C422.991 372.139 431.82 369.58 440.528 367.591C449.357 365.542 465.508 363.4 466.622 363.251C466.652 363.251 466.682 363.221 466.652 363.191C466.443 362.767 464.934 360.056 463.247 356.382C463.247 356.349 463.247 356.319 463.277 356.319L486.599 345.051C486.629 345.051 486.659 345.051 486.659 345.081C489.672 350.325 493.229 357.105 494.916 363.251C499.979 381.992 486.297 384.342 479.548 384.703C472.95 385.065 454.84 382.685 454.389 382.625C454.389 382.625 454.389 382.625 454.359 382.625C453.998 382.747 440.499 386.693 436.189 386.693C432.274 386.693 432.121 385.095 432.151 384.766C432.151 384.733 432.121 384.703 432.091 384.733C431.578 384.856 427.692 385.668 427.812 382.051C427.812 382.022 427.782 381.992 427.752 381.992C427.361 382.051 424.98 382.446 424.559 380.758C423.866 378.136 432.513 374.881 434.923 373.916C434.985 373.886 434.953 373.826 434.893 373.826C430.285 375.093 422.991 377.112 422.991 374.128Z" fill="#CA7358"/>
<path d="M466.652 363.221L473.401 366.566" stroke="#282625" stroke-linecap="round" stroke-linejoin="round"/>
<path d="M463.217 356.349L460.323 349.842" stroke="#3D371E" stroke-linecap="round" stroke-linejoin="round"/>
<path d="M432.151 384.674L442.849 381.027" stroke="#282625" stroke-linecap="round" stroke-linejoin="round"/>
<path d="M427.812 381.962C427.812 381.962 435.105 378.617 441.191 376.419" stroke="#282625" stroke-linecap="round" stroke-linejoin="round"/>
<path d="M435.284 373.767L439.292 372.321" stroke="#282625" stroke-linecap="round" stroke-linejoin="round"/>
<path d="M427.904 299.674C427.692 300.184 427.391 300.97 427.543 301.421C427.692 301.722 427.904 301.934 428.203 302.024" stroke="#282625" stroke-linecap="round" stroke-linejoin="round"/>
<path d="M432.665 298.921C432.115 298.921 431.67 298.473 431.67 297.927C431.67 297.374 432.115 296.932 432.665 296.932C433.211 296.932 433.659 297.374 433.659 297.927C433.659 298.473 433.211 298.921 432.665 298.921Z" fill="#2F2329"/>
<path d="M425.461 298.407C424.915 298.407 424.467 297.962 424.467 297.413C424.467 296.866 424.915 296.418 425.461 296.418C426.011 296.418 426.456 296.866 426.456 297.413C426.456 297.962 426.011 298.407 425.461 298.407Z" fill="#2F2329"/>
<path d="M449.602 279.879C444.536 275.509 444.641 267.087 449.837 261.067C455.034 255.043 463.349 253.702 468.414 258.074C473.479 262.443 473.374 270.868 468.181 276.889C462.981 282.91 454.667 284.251 449.602 279.879Z" fill="#30242A"/>
<path d="M457.041 296.842C456.981 298.165 456.919 300.877 456.829 303.92C456.829 303.92 471.081 296.057 478.795 304.524C483.045 309.195 483.346 315.132 483.134 318.354C492.566 319.982 492.626 335.772 482.412 338.421C480.181 335.378 478.616 333.239 476.567 330.799C472.105 335.649 464.242 338.785 456.919 337.459C437.366 332.487 445.107 307.869 445.107 307.869C445.107 307.869 453.845 302.054 450.049 296.448C447.308 292.593 439.683 297.625 439.683 297.625C439.683 297.625 437.034 295.725 436.58 288.674C428.143 292.593 423.293 289.728 423.293 289.728C423.714 283.042 425.524 280.028 430.285 277.555C435.947 275.085 444.324 274.664 450.262 278.46C457.16 283.071 457.041 291.929 457.041 296.842Z" fill="#30242A"/>
<path d="M447.036 276.803C448.183 277.227 449.297 277.737 450.321 278.4C451.889 279.455 453.093 280.751 453.998 282.166" stroke="#191416" stroke-linecap="round" stroke-linejoin="round"/>
<path d="M445.591 311.605C443.811 311.605 442.365 310.162 442.365 308.382C442.365 306.599 443.811 305.157 445.591 305.157C447.371 305.157 448.813 306.599 448.813 308.382C448.813 310.162 447.371 311.605 445.591 311.605Z" fill="#FFDF9E"/>
<path d="M378.519 310.551C378.486 310.551 376.437 310.219 375.234 310.7C374.902 310.822 374.63 311.002 374.359 311.184C374.359 311.184 374.359 311.184 374.329 311.184C372.671 312.569 373.185 314.167 373.394 314.708C373.427 314.8 373.364 314.89 373.274 314.89C373.033 314.92 372.611 314.98 372.19 315.162C371.166 315.553 370.052 316.488 370.473 318.656C370.443 318.656 369.81 319.107 369.356 319.892C368.965 320.615 368.663 321.759 369.598 323.145C369.508 323.175 368.756 323.569 368.454 324.441C368.212 325.194 368.365 326.099 368.965 327.093C370.622 329.954 373.696 331.854 374.992 331.343C375.625 331.101 376.046 330.71 376.228 330.226C376.47 329.593 376.377 328.78 375.956 327.816C375.897 327.696 376.016 327.604 376.139 327.637C376.649 327.876 377.733 328.237 378.638 327.876C378.94 327.756 379.212 327.574 379.451 327.305C380.445 326.158 379.875 324.925 379.573 324.411C379.513 324.322 379.573 324.199 379.692 324.199C379.964 324.232 380.385 324.199 380.806 324.02C381.35 323.808 381.771 323.417 382.013 322.813C382.557 321.58 381.711 320.403 381.29 319.922C381.231 319.83 381.26 319.71 381.38 319.71C381.592 319.68 381.894 319.651 382.192 319.531C382.796 319.289 383.127 318.898 383.157 318.354C383.399 315.944 380.505 314.588 378.94 313.866C378.549 313.683 378.247 313.534 378.095 313.415" fill="#CA7358"/>
<path d="M376.168 330.438C376.619 329.623 376.437 328.78 376.016 327.786C375.986 327.696 376.076 327.604 376.168 327.637C376.679 327.876 377.763 328.267 378.728 327.905C379.03 327.786 379.301 327.604 379.543 327.335C380.627 326.099 379.875 324.802 379.603 324.351C379.573 324.292 379.603 324.232 379.663 324.232C379.905 324.262 380.415 324.262 380.899 324.08C381.44 323.868 381.861 323.476 382.103 322.873C382.676 321.64 381.771 320.403 381.38 319.952C381.32 319.863 381.35 319.77 381.47 319.74C381.682 319.71 381.983 319.68 382.285 319.561C382.885 319.319 383.217 318.928 383.249 318.384C383.488 315.974 380.597 314.618 379.03 313.896C378.638 313.713 378.307 313.534 378.157 313.415" stroke="#282625" stroke-linecap="round" stroke-linejoin="round"/>
<path d="M381.32 319.8C375.986 318.023 373.546 314.95 373.546 314.95" stroke="#282625" stroke-linecap="round" stroke-linejoin="round"/>
<path d="M379.573 324.322C375.685 323.115 371.557 320.102 370.533 318.686" stroke="#282625" stroke-linecap="round" stroke-linejoin="round"/>
<path d="M376.076 327.604C371.497 325.346 369.658 323.145 369.658 323.145" stroke="#282625" stroke-linecap="round" stroke-linejoin="round"/>
<path d="M384.997 313.534C384.997 314.8 385.418 317.572 385.418 317.572C385.418 317.572 383.217 324.169 384.937 329.533" stroke="#282625" stroke-linecap="round" stroke-linejoin="round"/>
<path d="M456.829 303.891V308.382" stroke="#191416" stroke-linecap="round" stroke-linejoin="round"/>
<path d="M476.597 330.74C478.132 329.142 479.428 326.791 479.428 326.791" stroke="#191416" stroke-linecap="round" stroke-linejoin="round"/>
<path d="M483.134 318.325C483.134 318.325 481.116 317.874 478.192 318.325" stroke="#191416" stroke-linecap="round" stroke-linejoin="round"/>
<path opacity="0.2" d="M320.204 258.633L367.227 246.543C369.138 246.053 371.076 247.206 371.566 249.117L380.783 284.959C381.272 286.87 380.12 288.809 378.217 289.295L331.194 301.385C329.283 301.878 327.335 300.728 326.846 298.826L317.632 262.987C317.151 261.07 318.289 259.125 320.204 258.633Z" fill="#202020"/>
<path d="M318.056 257.363L365.079 245.274C366.991 244.784 368.929 245.937 369.419 247.848L378.635 283.69C379.125 285.601 377.972 287.539 376.07 288.026L329.047 300.116C327.135 300.608 325.188 299.459 324.698 297.556L315.485 261.718C315.004 259.8 316.142 257.856 318.056 257.363Z" fill="white"/>
<path d="M323.384 260.717L338.248 256.897C339.123 256.67 340.025 257.205 340.252 258.08L340.27 258.149C340.494 259.027 339.963 259.929 339.084 260.153L324.223 263.976C323.345 264.2 322.443 263.668 322.219 262.79L322.202 262.721C321.975 261.843 322.509 260.941 323.384 260.717Z" fill="#FFBA61"/>
<path d="M360.08 251.283L369.67 248.819L370.506 252.074L360.916 254.541C360.041 254.765 359.139 254.233 358.912 253.355L358.894 253.287C358.67 252.412 359.202 251.51 360.08 251.283Z" fill="#FFBA61"/>
<path d="M339.765 272.714L344.729 271.439C345.607 271.212 346.509 271.747 346.736 272.622L346.751 272.69C346.978 273.568 346.443 274.47 345.568 274.694L340.602 275.973C339.727 276.197 338.825 275.665 338.598 274.787L338.58 274.718C338.353 273.831 338.887 272.941 339.765 272.714Z" fill="#5937BE"/>
<path d="M338.777 289.176L343.743 287.901C344.619 287.674 345.52 288.208 345.747 289.086L345.765 289.152C345.989 290.03 345.458 290.932 344.58 291.159L339.613 292.434C338.738 292.661 337.836 292.127 337.609 291.249L337.591 291.183C337.364 290.293 337.899 289.403 338.777 289.176Z" fill="#FED532"/>
<path d="M349.618 286.39L359.241 283.917C360.119 283.69 361.021 284.224 361.248 285.099L361.263 285.168C361.49 286.046 360.955 286.948 360.08 287.172L350.457 289.648C349.579 289.872 348.677 289.34 348.45 288.462L348.435 288.394C348.205 287.507 348.731 286.62 349.618 286.39Z" fill="#FED532"/>
<path d="M341.719 280.312L358.676 275.952C359.551 275.725 360.453 276.259 360.68 277.134L360.698 277.203C360.922 278.081 360.391 278.983 359.512 279.207L342.555 283.567C341.68 283.794 340.778 283.26 340.551 282.385L340.533 282.316C340.309 281.438 340.841 280.536 341.719 280.312Z" fill="#FFBA61"/>
<path d="M325.337 268.312L340.201 264.492C341.077 264.268 341.978 264.8 342.205 265.678L342.223 265.744C342.447 266.622 341.916 267.523 341.038 267.75L326.177 271.57C325.299 271.797 324.397 271.263 324.173 270.385L324.155 270.319C323.928 269.441 324.462 268.539 325.337 268.312Z" fill="#FED532"/>
<path d="M348.053 262.449L355.579 260.514C356.457 260.287 357.359 260.822 357.586 261.697L357.601 261.766C357.828 262.644 357.293 263.545 356.418 263.769L348.889 265.705C348.014 265.932 347.112 265.4 346.885 264.522L346.867 264.453C346.64 263.566 347.175 262.673 348.053 262.449Z" fill="#FED532"/>
<path d="M318.056 257.363L324.501 255.709L335.495 298.461L329.047 300.116C327.135 300.608 325.188 299.459 324.698 297.556L315.485 261.718C314.992 259.803 316.142 257.856 318.056 257.363Z" fill="white"/>
<path opacity="0.2" d="M318.056 257.363L324.501 255.709L335.495 298.461L329.047 300.116C327.135 300.608 325.188 299.459 324.698 297.556L315.485 261.718C314.992 259.803 316.142 257.856 318.056 257.363Z" fill="#FFBA61"/>
<path d="M371.046 254.183L327.132 265.472" stroke="#CDC2B3" stroke-linejoin="round"/>
<path d="M373.024 261.87L329.109 273.159" stroke="#CDC2B3" stroke-linejoin="round"/>
<path d="M375.031 269.671L331.116 280.96" stroke="#CDC2B3" stroke-linejoin="round"/>
<path d="M376.915 277.003L333.001 288.295" stroke="#CDC2B3" stroke-linejoin="round"/>
<path d="M324.501 255.709L335.495 298.461" stroke="black" stroke-linejoin="round"/>
<path d="M320 263.325L322.211 262.757" stroke="black" stroke-linecap="round" stroke-linejoin="round"/>
<path d="M321.948 270.898L324.158 270.328" stroke="black" stroke-linecap="round" stroke-linejoin="round"/>
<path d="M323.895 278.469L326.105 277.902" stroke="black" stroke-linecap="round" stroke-linejoin="round"/>
<path d="M325.872 286.157L328.082 285.589" stroke="black" stroke-linecap="round" stroke-linejoin="round"/>
<path d="M327.819 293.73L330.026 293.163" stroke="black" stroke-linecap="round" stroke-linejoin="round"/>
<path d="M369.828 411.782L373.797 418.308L381.431 418.765L376.455 424.532L378.355 431.888L371.315 428.961L364.939 433.097L365.554 425.473L359.623 420.647L367.05 418.908L369.828 411.782Z" fill="#FFBA61"/>
<path opacity="0.2" d="M313.045 257.575L299.701 223.714L280.999 236.416L313.045 257.575Z" fill="black"/>
<path d="M313.045 257.575L301.099 215.513L282.4 228.218L313.045 257.575Z" fill="#5937BE"/>
<path d="M176.258 351.834L172.782 346.715L166.588 346.649L170.381 341.784L168.547 335.903L174.365 337.991L179.358 334.386L179.167 340.583L184.161 344.248L178.22 345.956L176.258 351.834Z" fill="#FFBA61"/>
<path d="M527.04 293.459L529.925 287.082L531.845 293.629L539.726 290.254L535.029 297.213L540.966 301.146L533.228 301.716L534.219 309.195L528.852 303.9L523.868 307.815L524.94 301.699L518.071 301.158L524.238 297.174L520.783 290.636L527.04 293.459Z" stroke="#FFDF9E" stroke-linecap="round" stroke-linejoin="round"/>
<path d="M516.318 345.242L543.098 351.541" stroke="#23221F" stroke-linecap="round" stroke-linejoin="round"/>
<path d="M202.298 281.285L176.449 265.738" stroke="#23221F" stroke-linecap="round" stroke-linejoin="round"/>
<path d="M220.157 309.374L174.168 306.196" stroke="#23221F" stroke-linecap="round" stroke-linejoin="round"/>
</g>
<path d="M661.172 424.737C658.826 404.761 658.267 390.035 665.313 371.494C669.214 361.228 675.582 350.102 684.165 343.029C685.409 342.004 701.08 329.768 703.333 334.275C705.713 339.035 696.915 344.698 694.089 346.985C684.726 354.561 660.56 367.735 659.302 346.151C658.429 331.18 666.156 316.521 671.2 302.836C680.353 278.003 686.006 253.286 689.751 227.108" stroke="black" stroke-width="4" stroke-linecap="round"/>
<path d="M44.8282 424.737C47.1744 404.761 47.7333 390.035 40.687 371.494C36.786 361.228 30.4176 350.102 21.8353 343.029C20.5913 342.004 4.9204 329.768 2.66688 334.275C0.2872 339.035 9.08451 344.698 11.9112 346.985C21.2744 354.561 45.4397 367.735 46.6979 346.151C47.5706 331.18 39.844 316.521 34.7997 302.836C25.6469 278.003 19.9943 253.286 16.2493 227.108" stroke="black" stroke-width="4" stroke-linecap="round"/>
<defs>
<clipPath id="clip0_1701_5354">
<path d="M103 69.9425C103 58.8968 111.954 49.9425 123 49.9425H583C594.046 49.9425 603 58.8968 603 69.9425V497.943H103V69.9425Z" fill="white"/>
</clipPath>
</defs>
</svg>
