<svg width="1513" height="825" viewBox="0 0 1513 825" fill="none" xmlns="http://www.w3.org/2000/svg">
<path d="M1512 0H0V824.728H1512V0Z" fill="#532BCA"/>
<path d="M137.455 0H0V137.455H137.455V0Z" fill="#532BCA"/>
<path d="M68.7213 0H0V68.7213H68.7213V0Z" fill="#6C4BD3"/>
<path d="M68.7213 0V68.7213H0L68.7213 0Z" fill="#542EC7"/>
<path d="M137.443 0H68.7213V68.7213H137.443V0Z" fill="#562FCB"/>
<path d="M68.7213 0L137.443 68.7213H68.7213V0Z" fill="#7456D6"/>
<path d="M68.7213 68.7212H0V137.442H68.7213V68.7212Z" fill="#5F3ACE"/>
<path d="M0 68.7212H68.7213L0 137.442V68.7212Z" fill="#542DC8"/>
<path d="M137.443 68.7212H68.7213V137.442H137.443V68.7212Z" fill="#542EC7"/>
<path d="M68.7213 68.7212H137.443V137.442L68.7213 68.7212Z" fill="#7556D7"/>
<path d="M274.909 0H137.455V137.455H274.909V0Z" fill="#532BCA"/>
<path d="M206.182 0H137.461V68.7213H206.182V0Z" fill="#542DC8"/>
<path d="M206.182 0V68.7213H137.461L206.182 0Z" fill="#5530C5"/>
<path d="M274.903 0H206.182V68.7213H274.903V0Z" fill="#542DC8"/>
<path d="M206.182 0L274.903 68.7213H206.182V0Z" fill="#552FC6"/>
<path d="M206.182 68.7212H137.461V137.442H206.182V68.7212Z" fill="#532CC9"/>
<path d="M137.461 68.7212H206.182V137.442L137.461 68.7212Z" fill="#5A34CD"/>
<path d="M274.903 68.7212H206.182V137.442H274.903V68.7212Z" fill="#542CC9"/>
<path d="M206.182 68.7212H274.903L206.182 137.442V68.7212Z" fill="#542EC7"/>
<path d="M412.364 0H274.909V137.455H412.364V0Z" fill="#532BCA"/>
<path d="M343.624 0H274.903V68.7213H343.624V0Z" fill="#7455D6"/>
<path d="M343.624 0V68.7213H274.903L343.624 0Z" fill="#7B5ED9"/>
<path d="M412.364 0H343.643V68.7213H412.364V0Z" fill="#532CC9"/>
<path d="M343.643 0L412.364 68.7213H343.643V0Z" fill="#6F4FD5"/>
<path d="M343.624 68.7212H274.903V137.442H343.624V68.7212Z" fill="#5530C5"/>
<path d="M274.903 68.7212H343.624V137.442L274.903 68.7212Z" fill="#5530C5"/>
<path d="M412.364 68.7212H343.643V137.442H412.364V68.7212Z" fill="#532CC9"/>
<path d="M343.643 68.7212H412.364L343.643 137.442V68.7212Z" fill="#603CCF"/>
<path d="M549.818 0H412.364V137.455H549.818V0Z" fill="#532BCA"/>
<path d="M481.085 0H412.364V68.7213H481.085V0Z" fill="#542DC8"/>
<path d="M412.364 68.7213C412.364 50.4953 419.604 33.0157 432.492 20.128C445.38 7.24026 462.859 0 481.085 0V17.1803C467.416 17.1803 454.306 22.6105 444.64 32.2763C434.974 41.9421 429.544 55.0518 429.544 68.7213" fill="#5932CC"/>
<path d="M549.806 0H481.085V68.7213H549.806V0Z" fill="#542EC7"/>
<path d="M481.085 0C499.311 0 516.791 7.24026 529.678 20.128C542.566 33.0157 549.806 50.4953 549.806 68.7213H532.626C532.626 55.0518 527.196 41.9421 517.53 32.2763C507.864 22.6105 494.755 17.1803 481.085 17.1803" fill="#5C36CD"/>
<path d="M481.085 68.7212H412.364V137.442H481.085V68.7212Z" fill="#5C36CD"/>
<path d="M412.364 68.7212C412.364 86.9472 419.604 104.427 432.492 117.314C445.38 130.202 462.859 137.442 481.085 137.442V120.262C467.416 120.262 454.306 114.832 444.64 105.166C434.974 95.5004 429.544 82.3907 429.544 68.7212" fill="#552FC6"/>
<path d="M549.806 68.7212H481.085V137.442H549.806V68.7212Z" fill="#532CC9"/>
<path d="M481.085 137.442C499.311 137.442 516.791 130.202 529.678 117.314C542.566 104.427 549.806 86.9472 549.806 68.7212H532.626C532.626 75.4896 531.293 82.1918 528.703 88.4451C526.113 94.6983 522.316 100.38 517.53 105.166C512.744 109.952 507.062 113.749 500.809 116.339C494.556 118.929 487.854 120.262 481.085 120.262" fill="#542EC7"/>
<path d="M687.285 0H549.824V137.461H687.285V0Z" fill="#6A49D3"/>
<path d="M549.824 0C586.281 0 621.245 14.4824 647.024 40.2613C672.803 66.0401 687.285 101.004 687.285 137.461H549.824" fill="#542EC7"/>
<path d="M824.728 0H687.267V137.461H824.728V0Z" fill="#5530C5"/>
<path d="M824.728 0V137.461H687.267L824.728 0Z" fill="#542CCA"/>
<path d="M962.182 0H824.728V137.455H962.182V0Z" fill="#532BCA"/>
<path d="M893.449 0H824.728V68.7213H893.449V0Z" fill="#5530C5"/>
<path d="M893.449 0V68.7213H824.728L893.449 0Z" fill="#5530C5"/>
<path d="M962.17 0H893.449V68.7213H962.17V0Z" fill="#542EC7"/>
<path d="M893.449 0H962.17L893.449 68.7213V0Z" fill="#532BCA"/>
<path d="M893.449 68.7212H824.728V137.442H893.449V68.7212Z" fill="#532CC9"/>
<path d="M824.728 68.7212H893.449V137.442L824.728 68.7212Z" fill="#6947D2"/>
<path d="M962.17 68.7212H893.449V137.442H962.17V68.7212Z" fill="#542EC7"/>
<path d="M893.449 68.7212L962.17 137.442H893.449V68.7212Z" fill="#6B49D3"/>
<path d="M1099.65 0H962.188V137.461H1099.65V0Z" fill="#7E61DA"/>
<path d="M1099.65 0H962.188V137.461H1099.65V0Z" fill="#542EC7"/>
<path d="M1237.09 0H1099.64V137.455H1237.09V0Z" fill="#532BCA"/>
<path d="M1168.35 0H1099.63V68.7213H1168.35V0Z" fill="#7455D6"/>
<path d="M1099.63 68.7213C1108.66 68.7213 1117.59 66.9438 1125.93 63.4902C1134.27 60.0366 1141.84 54.9747 1148.22 48.5933C1154.61 42.2119 1159.67 34.6362 1163.12 26.2985C1166.57 17.9608 1168.35 9.02461 1168.35 0L1099.63 0" fill="#532CC9"/>
<path d="M1237.09 0H1168.37V68.7213H1237.09V0Z" fill="#552FC6"/>
<path d="M1168.37 0C1168.37 9.02461 1170.15 17.9608 1173.6 26.2985C1177.05 34.6362 1182.12 42.2119 1188.5 48.5933C1194.88 54.9747 1202.46 60.0366 1210.79 63.4902C1219.13 66.9438 1228.07 68.7213 1237.09 68.7213V0" fill="#552FC6"/>
<path d="M1168.35 68.7212H1099.63V137.442H1168.35V68.7212Z" fill="#542CC9"/>
<path d="M1099.63 68.7212C1108.66 68.7212 1117.59 70.4987 1125.93 73.9523C1134.27 77.4059 1141.84 82.4678 1148.22 88.8492C1154.61 95.2306 1159.67 102.806 1163.12 111.144C1166.57 119.482 1168.35 128.418 1168.35 137.442H1099.63" fill="#6543D1"/>
<path d="M1237.09 68.7212H1168.37V137.442H1237.09V68.7212Z" fill="#532CC9"/>
<path d="M1168.37 137.442C1168.37 128.418 1170.15 119.482 1173.6 111.144C1177.05 102.806 1182.12 95.2306 1188.5 88.8492C1194.88 82.4678 1202.46 77.4059 1210.79 73.9523C1219.13 70.4987 1228.07 68.7212 1237.09 68.7212V137.442" fill="#7455D6"/>
<path d="M1374.55 0H1237.09V137.461H1374.55V0Z" fill="#6441D0"/>
<path d="M1374.55 0V137.461H1237.09L1374.55 0Z" fill="#6C4BD3"/>
<path d="M1512.01 0H1374.55V137.461H1512.01V0Z" fill="#7C5FD9"/>
<path d="M1374.55 137.461C1374.55 101.004 1389.03 66.0401 1414.81 40.2613C1440.59 14.4824 1475.56 0 1512.01 0L1374.55 137.461C1411.01 137.461 1445.97 122.978 1471.75 97.1993C1497.53 71.4205 1512.01 36.4568 1512.01 0" fill="#552FC6"/>
<path d="M137.455 137.455H0V274.909H137.455V137.455Z" fill="#532BCA"/>
<path d="M68.7213 137.461H0V206.182H68.7213V137.461Z" fill="#6643D1"/>
<path d="M0 206.182C0 187.956 7.24026 170.476 20.128 157.589C33.0157 144.701 50.4953 137.461 68.7213 137.461V154.641C55.0518 154.641 41.9421 160.071 32.2763 169.737C22.6105 179.403 17.1803 192.512 17.1803 206.182" fill="#532BCA"/>
<path d="M137.443 137.461H68.7213V206.182H137.443V137.461Z" fill="#542DCB"/>
<path d="M68.7213 137.461C86.9473 137.461 104.427 144.701 117.315 157.589C130.202 170.476 137.443 187.956 137.443 206.182H120.262C120.262 199.414 118.929 192.711 116.339 186.458C113.749 180.205 109.952 174.523 105.166 169.737C100.38 164.951 94.6984 161.155 88.4452 158.564C82.1919 155.974 75.4898 154.641 68.7213 154.641" fill="#5A34CC"/>
<path d="M68.7213 206.182H0V274.903H68.7213V206.182Z" fill="#6542D1"/>
<path d="M0 206.182C0 224.408 7.24026 241.887 20.128 254.775C33.0157 267.663 50.4953 274.903 68.7213 274.903V257.723C55.0518 257.723 41.9421 252.293 32.2763 242.627C22.6105 232.961 17.1803 219.851 17.1803 206.182" fill="#542FC6"/>
<path d="M137.443 206.182H68.7213V274.903H137.443V206.182Z" fill="#7658D7"/>
<path d="M68.7213 274.903C86.9473 274.903 104.427 267.663 117.315 254.775C130.202 241.887 137.443 224.408 137.443 206.182H120.262C120.262 212.95 118.929 219.653 116.339 225.906C113.749 232.159 109.952 237.841 105.166 242.627C100.38 247.413 94.6984 251.209 88.4452 253.8C82.1919 256.39 75.4898 257.723 68.7213 257.723" fill="#6D4CD4"/>
<path d="M274.909 137.455H137.455V274.909H274.909V137.455Z" fill="#532BCA"/>
<path d="M206.182 137.461H137.461V206.182H206.182V137.461Z" fill="#532CC9"/>
<path d="M206.182 137.461V206.182H137.461L206.182 137.461Z" fill="#5530C5"/>
<path d="M274.903 137.461H206.182V206.182H274.903V137.461Z" fill="#542DC8"/>
<path d="M206.182 137.461H274.903L206.182 206.182V137.461Z" fill="#7354D6"/>
<path d="M206.182 206.182H137.461V274.903H206.182V206.182Z" fill="#7E61DA"/>
<path d="M137.461 206.182H206.182V274.903L137.461 206.182Z" fill="#6D4CD4"/>
<path d="M274.903 206.182H206.182V274.903H274.903V206.182Z" fill="#7759D7"/>
<path d="M206.182 206.182L274.903 274.903H206.182V206.182Z" fill="#5B35CD"/>
<path d="M412.364 137.461H274.903V274.921H412.364V137.461Z" fill="#542CC9"/>
<path d="M274.903 274.921C274.903 238.464 289.386 203.501 315.164 177.722C340.943 151.943 375.907 137.461 412.364 137.461V274.921" fill="#5530C5"/>
<path d="M549.818 137.455H412.364V274.909H549.818V137.455Z" fill="#532BCA"/>
<path d="M481.085 137.461H412.364V206.182H481.085V137.461Z" fill="#532BCA"/>
<path d="M481.085 137.461V206.182H412.364L481.085 137.461Z" fill="#5F3ACE"/>
<path d="M549.806 137.461H481.085V206.182H549.806V137.461Z" fill="#6A48D3"/>
<path d="M481.085 137.461H549.806L481.085 206.182V137.461Z" fill="#5530C5"/>
<path d="M481.085 206.182H412.364V274.903H481.085V206.182Z" fill="#5530C5"/>
<path d="M412.364 206.182H481.085V274.903L412.364 206.182Z" fill="#5933CC"/>
<path d="M549.806 206.182H481.085V274.903H549.806V206.182Z" fill="#6F4FD4"/>
<path d="M481.085 206.182L549.806 274.903H481.085V206.182Z" fill="#5C37CD"/>
<path d="M687.285 137.461H549.824V274.921H687.285V137.461Z" fill="#542DC8"/>
<path d="M687.285 137.461V274.921H549.824L687.285 137.461Z" fill="#532BCA"/>
<path d="M824.728 137.461H687.267V274.921H824.728V137.461Z" fill="#613CCF"/>
<path d="M824.728 137.461H687.267V274.921H824.728V137.461Z" fill="#542DC8"/>
<path d="M962.188 137.461H824.728V274.921H962.188V137.461Z" fill="#532BCA"/>
<path d="M962.188 137.461H824.728V274.921H962.188V137.461Z" fill="#542DC8"/>
<path d="M1099.65 137.461H962.188V274.921H1099.65V137.461Z" fill="#6B4AD3"/>
<path d="M1099.65 137.461H962.188V274.921H1099.65V137.461Z" fill="#542DC8"/>
<path d="M1237.09 137.455H1099.64V274.909H1237.09V137.455Z" fill="#532BCA"/>
<path d="M1168.35 137.461H1099.63V206.182H1168.35V137.461Z" fill="#542DC8"/>
<path d="M1099.63 137.461C1108.66 137.461 1117.59 139.238 1125.93 142.692C1134.27 146.145 1141.84 151.207 1148.22 157.589C1154.61 163.97 1159.67 171.546 1163.12 179.883C1166.57 188.221 1168.35 197.157 1168.35 206.182H1099.63" fill="#532BCA"/>
<path d="M1237.09 137.461H1168.37V206.182H1237.09V137.461Z" fill="#542EC7"/>
<path d="M1168.37 206.182C1168.37 197.157 1170.15 188.221 1173.6 179.883C1177.05 171.546 1182.12 163.97 1188.5 157.589C1194.88 151.207 1202.46 146.145 1210.79 142.692C1219.13 139.238 1228.07 137.461 1237.09 137.461V206.182" fill="#6440D0"/>
<path d="M1168.35 206.182H1099.63V274.903H1168.35V206.182Z" fill="#532BCA"/>
<path d="M1099.63 274.903C1108.66 274.903 1117.59 273.126 1125.93 269.672C1134.27 266.219 1141.84 261.157 1148.22 254.775C1154.61 248.394 1159.67 240.818 1163.12 232.48C1166.57 224.143 1168.35 215.206 1168.35 206.182H1099.63" fill="#542DC8"/>
<path d="M1237.09 206.182H1168.37V274.903H1237.09V206.182Z" fill="#542EC7"/>
<path d="M1168.37 206.182C1168.37 215.206 1170.15 224.143 1173.6 232.48C1177.05 240.818 1182.12 248.394 1188.5 254.775C1194.88 261.157 1202.46 266.219 1210.79 269.672C1219.13 273.126 1228.07 274.903 1237.09 274.903V206.182" fill="#6744D1"/>
<path d="M1374.55 137.461H1237.09V274.921H1374.55V137.461Z" fill="#542EC7"/>
<path d="M1237.09 137.461C1273.55 137.461 1308.51 151.943 1334.29 177.722C1360.07 203.501 1374.55 238.464 1374.55 274.921H1237.09" fill="#5A34CD"/>
<path d="M1512 137.455H1374.55V274.909H1512V137.455Z" fill="#532BCA"/>
<path d="M1443.27 137.461H1374.55V206.182H1443.27V137.461Z" fill="#552ECB"/>
<path d="M1374.55 206.182C1392.78 206.182 1410.26 198.942 1423.15 186.054C1436.03 173.166 1443.27 155.687 1443.27 137.461H1374.55" fill="#7D61DA"/>
<path d="M1511.99 137.461H1443.27V206.182H1511.99V137.461Z" fill="#6C4AD3"/>
<path d="M1443.27 137.461C1443.27 155.687 1450.51 173.166 1463.4 186.054C1476.29 198.942 1493.77 206.182 1511.99 206.182V137.461" fill="#552FC6"/>
<path d="M1443.27 206.182H1374.55V274.903H1443.27V206.182Z" fill="#542FC6"/>
<path d="M1374.55 206.182C1392.78 206.182 1410.26 213.422 1423.15 226.31C1436.03 239.198 1443.27 256.677 1443.27 274.903H1374.55" fill="#542EC7"/>
<path d="M1511.99 206.182H1443.27V274.903H1511.99V206.182Z" fill="#5932CC"/>
<path d="M1443.27 274.903C1443.27 256.677 1450.51 239.198 1463.4 226.31C1476.29 213.422 1493.77 206.182 1511.99 206.182V274.903" fill="#532CC9"/>
<path d="M137.455 274.909H0V412.364H137.455V274.909Z" fill="#532BCA"/>
<path d="M68.7213 274.903H0V343.625H68.7213V274.903Z" fill="#785AD8"/>
<path d="M68.7213 274.903V343.625H0L68.7213 274.903Z" fill="#6441D0"/>
<path d="M137.443 274.903H68.7213V343.625H137.443V274.903Z" fill="#542DC8"/>
<path d="M68.7213 274.903L137.443 343.625H68.7213V274.903Z" fill="#5E39CE"/>
<path d="M68.7213 343.643H0V412.364H68.7213V343.643Z" fill="#5D38CE"/>
<path d="M0 343.643H68.7213L0 412.364V343.643Z" fill="#542FC6"/>
<path d="M137.443 343.643H68.7213V412.364H137.443V343.643Z" fill="#5530C5"/>
<path d="M68.7213 343.643H137.443V412.364L68.7213 343.643Z" fill="#552FC6"/>
<path d="M274.921 274.903H137.461V412.364H274.921V274.903Z" fill="#5530C5"/>
<path d="M137.461 412.364C137.461 375.907 151.943 340.943 177.722 315.165C203.501 289.386 238.464 274.903 274.921 274.903L137.461 412.364C173.917 412.364 208.881 397.882 234.66 372.103C260.439 346.324 274.921 311.36 274.921 274.903" fill="#7252D5"/>
<path d="M412.364 274.903H274.903V412.364H412.364V274.903Z" fill="#532CC9"/>
<path d="M274.903 274.903H412.364L274.903 412.364V274.903Z" fill="#603CCF"/>
<path d="M549.818 274.909H412.364V412.364H549.818V274.909Z" fill="#532BCA"/>
<path d="M481.085 274.903H412.364V343.625H481.085V274.903Z" fill="#542CC9"/>
<path d="M412.364 343.625C412.364 325.399 419.604 307.919 432.492 295.031C445.38 282.144 462.859 274.903 481.085 274.903V343.625" fill="#7557D7"/>
<path d="M549.806 274.903H481.085V343.625H549.806V274.903Z" fill="#552FC6"/>
<path d="M481.085 274.903C499.311 274.903 516.791 282.144 529.678 295.031C542.566 307.919 549.806 325.399 549.806 343.625H481.085" fill="#613ECF"/>
<path d="M481.085 343.643H412.364V412.364H481.085V343.643Z" fill="#5530C5"/>
<path d="M412.364 343.643C412.364 361.869 419.604 379.348 432.492 392.236C445.38 405.124 462.859 412.364 481.085 412.364V343.643" fill="#7A5DD8"/>
<path d="M549.806 343.643H481.085V412.364H549.806V343.643Z" fill="#542CCA"/>
<path d="M481.085 412.364C499.311 412.364 516.791 405.124 529.678 392.236C542.566 379.348 549.806 361.869 549.806 343.643H481.085" fill="#542EC7"/>
<path d="M687.285 274.903H549.824V412.364H687.285V274.903Z" fill="#7050D5"/>
<path d="M549.824 274.903L687.285 412.364H549.824V274.903Z" fill="#532BCA"/>
<path d="M824.728 274.903H687.267V412.364H824.728V274.903Z" fill="#532BCA"/>
<path d="M824.728 274.903H687.267V412.364H824.728V274.903Z" fill="#532CC9"/>
<path d="M962.182 274.909H824.728V412.364H962.182V274.909Z" fill="#532BCA"/>
<path d="M893.449 274.903H824.728V343.625H893.449V274.903Z" fill="#532CC9"/>
<path d="M824.728 343.625C842.954 343.625 860.433 336.384 873.321 323.497C886.209 310.609 893.449 293.129 893.449 274.903H824.728" fill="#7252D5"/>
<path d="M962.17 274.903H893.449V343.625H962.17V274.903Z" fill="#5C36CD"/>
<path d="M893.449 274.903C893.449 293.129 900.689 310.609 913.577 323.497C926.465 336.384 943.944 343.625 962.17 343.625V274.903" fill="#6E4DD4"/>
<path d="M893.449 343.643H824.728V412.364H893.449V343.643Z" fill="#532BCA"/>
<path d="M824.728 343.643C842.954 343.643 860.433 350.883 873.321 363.771C886.209 376.658 893.449 394.138 893.449 412.364H824.728" fill="#6947D2"/>
<path d="M962.17 343.643H893.449V412.364H962.17V343.643Z" fill="#7A5DD8"/>
<path d="M893.449 412.364C893.449 394.138 900.689 376.658 913.577 363.771C926.465 350.883 943.944 343.643 962.17 343.643V412.364" fill="#5E39CE"/>
<path d="M1099.64 274.909H962.182V412.364H1099.64V274.909Z" fill="#532BCA"/>
<path d="M1030.91 274.903H962.188V343.625H1030.91V274.903Z" fill="#532BCA"/>
<path d="M1030.91 274.903V343.625H962.188L1030.91 274.903Z" fill="#5730CB"/>
<path d="M1099.63 274.903H1030.91V343.625H1099.63V274.903Z" fill="#5A34CD"/>
<path d="M1030.91 274.903L1099.63 343.625H1030.91V274.903Z" fill="#5B35CD"/>
<path d="M1030.91 343.643H962.188V412.364H1030.91V343.643Z" fill="#542FC6"/>
<path d="M962.188 343.643H1030.91L962.188 412.364V343.643Z" fill="#7456D6"/>
<path d="M1099.63 343.643H1030.91V412.364H1099.63V343.643Z" fill="#542EC7"/>
<path d="M1030.91 343.643H1099.63V412.364L1030.91 343.643Z" fill="#552FC6"/>
<path d="M1237.09 274.909H1099.64V412.364H1237.09V274.909Z" fill="#532BCA"/>
<path d="M1168.35 274.903H1099.63V343.625H1168.35V274.903Z" fill="#542EC7"/>
<path d="M1168.35 274.903V343.625H1099.63L1168.35 274.903Z" fill="#7657D7"/>
<path d="M1237.09 274.903H1168.37V343.625H1237.09V274.903Z" fill="#542EC7"/>
<path d="M1168.37 274.903L1237.09 343.625H1168.37V274.903Z" fill="#6B4AD3"/>
<path d="M1168.35 343.643H1099.63V412.364H1168.35V343.643Z" fill="#7E62DA"/>
<path d="M1099.63 343.643H1168.35L1099.63 412.364V343.643Z" fill="#5A34CD"/>
<path d="M1237.09 343.643H1168.37V412.364H1237.09V343.643Z" fill="#6947D2"/>
<path d="M1168.37 343.643H1237.09V412.364L1168.37 343.643Z" fill="#532CC9"/>
<path d="M1374.55 274.909H1237.09V412.364H1374.55V274.909Z" fill="#532BCA"/>
<path d="M1305.81 274.903H1237.09V343.625H1305.81V274.903Z" fill="#532BCA"/>
<path d="M1237.09 343.625C1255.32 343.625 1272.8 336.384 1285.68 323.497C1298.57 310.609 1305.81 293.129 1305.81 274.903H1237.09" fill="#6745D1"/>
<path d="M1374.53 274.903H1305.81V343.625H1374.53V274.903Z" fill="#6846D2"/>
<path d="M1305.81 274.903C1305.81 293.129 1313.05 310.609 1325.94 323.497C1338.83 336.384 1356.31 343.625 1374.53 343.625V274.903" fill="#542CC9"/>
<path d="M1305.81 343.643H1237.09V412.364H1305.81V343.643Z" fill="#6E4ED4"/>
<path d="M1237.09 343.643C1255.32 343.643 1272.8 350.883 1285.68 363.771C1298.57 376.658 1305.81 394.138 1305.81 412.364H1237.09" fill="#6441D0"/>
<path d="M1374.53 343.643H1305.81V412.364H1374.53V343.643Z" fill="#562FCB"/>
<path d="M1305.81 412.364C1305.81 394.138 1313.05 376.658 1325.94 363.771C1338.83 350.883 1356.31 343.643 1374.53 343.643V412.364" fill="#542DC8"/>
<path d="M1512.01 274.903H1374.55V412.364H1512.01V274.903Z" fill="#542DC8"/>
<path d="M1374.55 274.903C1374.55 311.36 1389.03 346.324 1414.81 372.103C1440.59 397.882 1475.56 412.364 1512.01 412.364V274.903" fill="#7252D5"/>
<path d="M137.455 412.364H0V549.818H137.455V412.364Z" fill="#532BCA"/>
<path d="M68.7213 412.364H0V481.085H68.7213V412.364Z" fill="#552FC6"/>
<path d="M68.7213 412.364V481.085H0L68.7213 412.364Z" fill="#552FC6"/>
<path d="M137.443 412.364H68.7213V481.085H137.443V412.364Z" fill="#532CC9"/>
<path d="M68.7213 412.364L137.443 481.085H68.7213V412.364Z" fill="#552FC6"/>
<path d="M68.7213 481.085H0V549.806H68.7213V481.085Z" fill="#6C4BD3"/>
<path d="M0 481.085H68.7213L0 549.806V481.085Z" fill="#6C4AD3"/>
<path d="M137.443 481.085H68.7213V549.806H137.443V481.085Z" fill="#5730CB"/>
<path d="M68.7213 481.085H137.443V549.806L68.7213 481.085Z" fill="#532BCA"/>
<path d="M274.921 412.364H137.461V549.824H274.921V412.364Z" fill="#542DC8"/>
<path d="M137.461 549.824C173.917 549.824 208.881 535.342 234.66 509.563C260.439 483.784 274.921 448.821 274.921 412.364H137.461" fill="#542DC8"/>
<path d="M412.364 412.364H274.909V549.818H412.364V412.364Z" fill="#532BCA"/>
<path d="M343.624 412.364H274.903V481.085H343.624V412.364Z" fill="#5B35CD"/>
<path d="M343.624 412.364V481.085H274.903L343.624 412.364Z" fill="#6D4CD4"/>
<path d="M412.364 412.364H343.643V481.085H412.364V412.364Z" fill="#6A48D3"/>
<path d="M343.643 412.364L412.364 481.085H343.643V412.364Z" fill="#542DC8"/>
<path d="M343.624 481.085H274.903V549.806H343.624V481.085Z" fill="#6643D1"/>
<path d="M274.903 481.085H343.624V549.806L274.903 481.085Z" fill="#6D4CD3"/>
<path d="M412.364 481.085H343.643V549.806H412.364V481.085Z" fill="#5E3ACE"/>
<path d="M343.643 481.085H412.364L343.643 549.806V481.085Z" fill="#542EC7"/>
<path d="M549.818 412.364H412.364V549.818H549.818V412.364Z" fill="#532BCA"/>
<path d="M481.085 412.364H412.364V481.085H481.085V412.364Z" fill="#532BCA"/>
<path d="M412.364 481.085C412.364 462.859 419.604 445.38 432.492 432.492C445.38 419.604 462.859 412.364 481.085 412.364V481.085" fill="#5F3ACE"/>
<path d="M549.806 412.364H481.085V481.085H549.806V412.364Z" fill="#542DC8"/>
<path d="M481.085 412.364C499.311 412.364 516.791 419.604 529.678 432.492C542.566 445.38 549.806 462.859 549.806 481.085H481.085" fill="#6A48D3"/>
<path d="M481.085 481.085H412.364V549.806H481.085V481.085Z" fill="#542DC8"/>
<path d="M412.364 481.085C412.364 499.311 419.604 516.791 432.492 529.678C445.38 542.566 462.859 549.806 481.085 549.806V481.085" fill="#542FC6"/>
<path d="M549.806 481.085H481.085V549.806H549.806V481.085Z" fill="#542EC7"/>
<path d="M481.085 549.806C499.311 549.806 516.791 542.566 529.678 529.678C542.566 516.791 549.806 499.311 549.806 481.085H481.085" fill="#552FC6"/>
<path d="M687.273 412.364H549.818V549.818H687.273V412.364Z" fill="#532BCA"/>
<path d="M618.546 412.364H549.824V481.085H618.546V412.364Z" fill="#7A5DD9"/>
<path d="M618.546 412.364V481.085H549.824L618.546 412.364Z" fill="#542EC7"/>
<path d="M687.267 412.364H618.546V481.085H687.267V412.364Z" fill="#562FCB"/>
<path d="M618.546 412.364L687.267 481.085H618.546V412.364Z" fill="#6D4CD4"/>
<path d="M618.546 481.085H549.824V549.806H618.546V481.085Z" fill="#542CC9"/>
<path d="M549.824 481.085H618.546L549.824 549.806V481.085Z" fill="#552FC6"/>
<path d="M687.267 481.085H618.546V549.806H687.267V481.085Z" fill="#542EC7"/>
<path d="M618.546 481.085H687.267V549.806L618.546 481.085Z" fill="#542CCA"/>
<path d="M824.728 412.364H687.273V549.818H824.728V412.364Z" fill="#532BCA"/>
<path d="M755.988 412.364H687.267V481.085H755.988V412.364Z" fill="#532BCA"/>
<path d="M755.988 412.364V481.085H687.267L755.988 412.364Z" fill="#562FCB"/>
<path d="M824.728 412.364H756.006V481.085H824.728V412.364Z" fill="#532BCA"/>
<path d="M756.006 412.364L824.728 481.085H756.006V412.364Z" fill="#7151D5"/>
<path d="M755.988 481.085H687.267V549.806H755.988V481.085Z" fill="#542DC8"/>
<path d="M687.267 481.085H755.988L687.267 549.806V481.085Z" fill="#542DC8"/>
<path d="M824.728 481.085H756.006V549.806H824.728V481.085Z" fill="#542EC7"/>
<path d="M756.006 481.085H824.728V549.806L756.006 481.085Z" fill="#542EC7"/>
<path d="M962.188 412.364H824.728V549.824H962.188V412.364Z" fill="#542DC8"/>
<path d="M824.728 412.364H962.188L824.728 549.824V412.364Z" fill="#7B5ED9"/>
<path d="M1099.65 412.364H962.188V549.824H1099.65V412.364Z" fill="#532CC9"/>
<path d="M962.188 412.364H1099.65L962.188 549.824V412.364Z" fill="#542CC9"/>
<path d="M1237.09 412.364H1099.64V549.818H1237.09V412.364Z" fill="#532BCA"/>
<path d="M1168.35 412.364H1099.63V481.085H1168.35V412.364Z" fill="#5530C5"/>
<path d="M1099.63 481.085C1108.66 481.085 1117.59 479.308 1125.93 475.854C1134.27 472.4 1141.84 467.338 1148.22 460.957C1154.61 454.576 1159.67 447 1163.12 438.662C1166.57 430.325 1168.35 421.388 1168.35 412.364H1099.63" fill="#542CCA"/>
<path d="M1237.09 412.364H1168.37V481.085H1237.09V412.364Z" fill="#542CC9"/>
<path d="M1168.37 412.364C1168.37 421.388 1170.15 430.325 1173.6 438.662C1177.05 447 1182.12 454.576 1188.5 460.957C1194.88 467.338 1202.46 472.4 1210.79 475.854C1219.13 479.308 1228.07 481.085 1237.09 481.085V412.364" fill="#542FC6"/>
<path d="M1168.35 481.085H1099.63V549.806H1168.35V481.085Z" fill="#7D61DA"/>
<path d="M1099.63 481.085C1108.66 481.085 1117.59 482.863 1125.93 486.316C1134.27 489.77 1141.84 494.832 1148.22 501.213C1154.61 507.594 1159.67 515.17 1163.12 523.508C1166.57 531.845 1168.35 540.782 1168.35 549.806H1099.63" fill="#542EC7"/>
<path d="M1237.09 481.085H1168.37V549.806H1237.09V481.085Z" fill="#532BCA"/>
<path d="M1168.37 549.806C1168.37 540.782 1170.15 531.845 1173.6 523.508C1177.05 515.17 1182.12 507.594 1188.5 501.213C1194.88 494.832 1202.46 489.77 1210.79 486.316C1219.13 482.863 1228.07 481.085 1237.09 481.085V549.806" fill="#532CC9"/>
<path d="M1374.55 412.364H1237.09V549.818H1374.55V412.364Z" fill="#532BCA"/>
<path d="M1305.81 412.364H1237.09V481.085H1305.81V412.364Z" fill="#6441D0"/>
<path d="M1237.09 412.364C1237.09 430.59 1244.33 448.069 1257.22 460.957C1270.11 473.845 1287.59 481.085 1305.81 481.085V412.364" fill="#6441D0"/>
<path d="M1374.53 412.364H1305.81V481.085H1374.53V412.364Z" fill="#6A48D2"/>
<path d="M1305.81 481.085C1324.04 481.085 1341.52 473.845 1354.41 460.957C1367.29 448.069 1374.53 430.59 1374.53 412.364H1305.81" fill="#6E4DD4"/>
<path d="M1305.81 481.085H1237.09V549.806H1305.81V481.085Z" fill="#5F3ACE"/>
<path d="M1237.09 549.806C1237.09 531.58 1244.33 514.101 1257.22 501.213C1270.11 488.325 1287.59 481.085 1305.81 481.085V549.806" fill="#7D60DA"/>
<path d="M1374.53 481.085H1305.81V549.806H1374.53V481.085Z" fill="#532CC9"/>
<path d="M1305.81 481.085C1324.04 481.085 1341.52 488.325 1354.41 501.213C1367.29 514.101 1374.53 531.58 1374.53 549.806H1305.81" fill="#542EC7"/>
<path d="M1512.01 412.364H1374.55V549.824H1512.01V412.364Z" fill="#7354D6"/>
<path d="M1374.55 412.364H1512.01L1374.55 549.824V412.364Z" fill="#552FC6"/>
<path d="M137.461 549.824H0V687.285H137.461V549.824Z" fill="#633FD0"/>
<path d="M137.461 549.824H0V687.285H137.461V549.824Z" fill="#6846D2"/>
<path d="M274.921 549.824H137.461V687.285H274.921V549.824Z" fill="#5C37CD"/>
<path d="M137.461 549.824L274.921 687.285H137.461V549.824Z" fill="#542CCA"/>
<path d="M412.364 549.824H274.903V687.285H412.364V549.824Z" fill="#6441D0"/>
<path d="M274.903 549.824C311.36 549.824 346.324 564.307 372.103 590.085C397.881 615.864 412.364 650.828 412.364 687.285H274.903" fill="#542DC8"/>
<path d="M549.818 549.818H412.364V687.273H549.818V549.818Z" fill="#532BCA"/>
<path d="M481.085 549.824H412.364V618.545H481.085V549.824Z" fill="#795BD8"/>
<path d="M446.724 618.545C465.701 618.545 481.085 603.162 481.085 584.185C481.085 565.208 465.701 549.824 446.724 549.824C427.748 549.824 412.364 565.208 412.364 584.185C412.364 603.162 427.748 618.545 446.724 618.545Z" fill="#6441D0"/>
<path d="M549.806 549.824H481.085V618.545H549.806V549.824Z" fill="#542DC8"/>
<path d="M549.806 549.824H481.085V618.545H549.806V549.824Z" fill="#5530C5"/>
<path d="M481.085 618.546H412.364V687.267H481.085V618.546Z" fill="#532CC9"/>
<path d="M446.724 687.267C465.701 687.267 481.085 671.883 481.085 652.907C481.085 633.93 465.701 618.546 446.724 618.546C427.748 618.546 412.364 633.93 412.364 652.907C412.364 671.883 427.748 687.267 446.724 687.267Z" fill="#542EC7"/>
<path d="M549.806 618.546H481.085V687.267H549.806V618.546Z" fill="#603CCF"/>
<path d="M549.806 618.546H481.085V687.267H549.806V618.546Z" fill="#532CC9"/>
<path d="M687.285 549.824H549.824V687.285H687.285V549.824Z" fill="#542CCA"/>
<path d="M549.824 549.824H687.285V687.285L549.824 549.824Z" fill="#785AD8"/>
<path d="M824.728 549.818H687.273V687.273H824.728V549.818Z" fill="#532BCA"/>
<path d="M755.988 549.824H687.267V618.545H755.988V549.824Z" fill="#5530C5"/>
<path d="M687.267 549.824C705.493 549.824 722.973 557.064 735.86 569.952C748.748 582.84 755.988 600.319 755.988 618.545H687.267" fill="#7050D5"/>
<path d="M824.728 549.824H756.006V618.545H824.728V549.824Z" fill="#7B5FD9"/>
<path d="M756.006 618.545C756.006 600.319 763.247 582.84 776.134 569.952C789.022 557.064 806.502 549.824 824.728 549.824V618.545" fill="#532CC9"/>
<path d="M755.988 618.546H687.267V687.267H755.988V618.546Z" fill="#542EC7"/>
<path d="M687.267 687.267C705.493 687.267 722.973 680.027 735.86 667.139C748.748 654.251 755.988 636.772 755.988 618.546H687.267" fill="#542DC8"/>
<path d="M824.728 618.546H756.006V687.267H824.728V618.546Z" fill="#7759D7"/>
<path d="M756.006 618.546C756.006 636.772 763.247 654.251 776.134 667.139C789.022 680.027 806.502 687.267 824.728 687.267V618.546" fill="#5731CC"/>
<path d="M962.182 549.818H824.728V687.273H962.182V549.818Z" fill="#532BCA"/>
<path d="M893.449 549.824H824.728V618.545H893.449V549.824Z" fill="#5D37CE"/>
<path d="M893.449 549.824V618.545H824.728L893.449 549.824Z" fill="#532BCA"/>
<path d="M962.17 549.824H893.449V618.545H962.17V549.824Z" fill="#5E3ACE"/>
<path d="M893.449 549.824H962.17L893.449 618.545V549.824Z" fill="#532CC9"/>
<path d="M893.449 618.546H824.728V687.267H893.449V618.546Z" fill="#6A49D3"/>
<path d="M824.728 618.546H893.449V687.267L824.728 618.546Z" fill="#532CC9"/>
<path d="M962.17 618.546H893.449V687.267H962.17V618.546Z" fill="#542DC8"/>
<path d="M893.449 618.546L962.17 687.267H893.449V618.546Z" fill="#7455D6"/>
<path d="M1099.64 549.818H962.182V687.273H1099.64V549.818Z" fill="#532BCA"/>
<path d="M1030.91 549.824H962.188V618.545H1030.91V549.824Z" fill="#552FC6"/>
<path d="M962.188 618.545C962.188 600.319 969.429 582.84 982.316 569.952C995.204 557.064 1012.68 549.824 1030.91 549.824V618.545" fill="#552FC6"/>
<path d="M1099.63 549.824H1030.91V618.545H1099.63V549.824Z" fill="#5C37CD"/>
<path d="M1030.91 549.824C1049.14 549.824 1066.62 557.064 1079.5 569.952C1092.39 582.84 1099.63 600.319 1099.63 618.545H1030.91" fill="#532CC9"/>
<path d="M1030.91 618.546H962.188V687.267H1030.91V618.546Z" fill="#542DC8"/>
<path d="M962.188 618.546C962.188 636.772 969.429 654.251 982.316 667.139C995.204 680.027 1012.68 687.267 1030.91 687.267V618.546" fill="#552FC6"/>
<path d="M1099.63 618.546H1030.91V687.267H1099.63V618.546Z" fill="#795BD8"/>
<path d="M1030.91 687.267C1049.14 687.267 1066.62 680.027 1079.5 667.139C1092.39 654.251 1099.63 636.772 1099.63 618.546H1030.91" fill="#7D61DA"/>
<path d="M1237.09 549.824H1099.63V687.285H1237.09V549.824Z" fill="#5530C5"/>
<path d="M1099.63 549.824C1136.09 549.824 1171.05 564.307 1196.83 590.085C1222.61 615.864 1237.09 650.828 1237.09 687.285L1099.63 549.824C1099.63 586.281 1114.11 621.245 1139.89 647.024C1165.67 672.802 1200.63 687.285 1237.09 687.285" fill="#5832CC"/>
<path d="M1374.55 549.818H1237.09V687.273H1374.55V549.818Z" fill="#532BCA"/>
<path d="M1305.81 549.824H1237.09V618.545H1305.81V549.824Z" fill="#542DC8"/>
<path d="M1305.81 549.824V618.545H1237.09L1305.81 549.824Z" fill="#5B36CD"/>
<path d="M1374.53 549.824H1305.81V618.545H1374.53V549.824Z" fill="#552ECB"/>
<path d="M1305.81 549.824L1374.53 618.545H1305.81V549.824Z" fill="#7152D5"/>
<path d="M1305.81 618.546H1237.09V687.267H1305.81V618.546Z" fill="#6F4ED4"/>
<path d="M1237.09 618.546H1305.81L1237.09 687.267V618.546Z" fill="#5F3ACF"/>
<path d="M1374.53 618.546H1305.81V687.267H1374.53V618.546Z" fill="#5831CC"/>
<path d="M1305.81 618.546H1374.53V687.267L1305.81 618.546Z" fill="#532BCA"/>
<path d="M1512.01 549.824H1374.55V687.285H1512.01V549.824Z" fill="#7658D7"/>
<path d="M1512.01 549.824H1374.55V687.285H1512.01V549.824Z" fill="#7455D6"/>
<path d="M137.461 687.267H0V824.728H137.461V687.267Z" fill="#532BCA"/>
<path d="M137.461 687.267V824.728H0L137.461 687.267Z" fill="#532BCA"/>
<path d="M274.909 687.273H137.455V824.728H274.909V687.273Z" fill="#532BCA"/>
<path d="M206.182 687.267H137.461V755.988H206.182V687.267Z" fill="#552ECB"/>
<path d="M206.182 687.267V755.988H137.461L206.182 687.267Z" fill="#5530C5"/>
<path d="M274.903 687.267H206.182V755.988H274.903V687.267Z" fill="#5530C5"/>
<path d="M206.182 687.267L274.903 755.988H206.182V687.267Z" fill="#5832CC"/>
<path d="M206.182 756.006H137.461V824.728H206.182V756.006Z" fill="#785AD8"/>
<path d="M137.461 756.006H206.182L137.461 824.728V756.006Z" fill="#7658D7"/>
<path d="M274.903 756.006H206.182V824.728H274.903V756.006Z" fill="#562FCB"/>
<path d="M206.182 756.006H274.903V824.728L206.182 756.006Z" fill="#542DC8"/>
<path d="M412.364 687.267H274.903V824.728H412.364V687.267Z" fill="#532BCA"/>
<path d="M274.903 687.267C311.36 687.267 346.324 701.75 372.103 727.528C397.881 753.307 412.364 788.271 412.364 824.728L274.903 687.267C274.903 723.724 289.386 758.688 315.164 784.466C340.943 810.245 375.907 824.728 412.364 824.728" fill="#7252D5"/>
<path d="M549.818 687.273H412.364V824.728H549.818V687.273Z" fill="#532BCA"/>
<path d="M481.085 687.267H412.364V755.988H481.085V687.267Z" fill="#542EC7"/>
<path d="M481.085 687.267V755.988H412.364L481.085 687.267Z" fill="#5530C5"/>
<path d="M549.806 687.267H481.085V755.988H549.806V687.267Z" fill="#5730CB"/>
<path d="M481.085 687.267L549.806 755.988H481.085V687.267Z" fill="#6846D2"/>
<path d="M481.085 756.006H412.364V824.728H481.085V756.006Z" fill="#5730CC"/>
<path d="M412.364 756.006H481.085L412.364 824.728V756.006Z" fill="#6542D1"/>
<path d="M549.806 756.006H481.085V824.728H549.806V756.006Z" fill="#532CC9"/>
<path d="M481.085 756.006H549.806V824.728L481.085 756.006Z" fill="#5932CC"/>
<path d="M687.285 687.267H549.824V824.728H687.285V687.267Z" fill="#6744D1"/>
<path d="M549.824 687.267C586.281 687.267 621.245 701.75 647.024 727.528C672.803 753.307 687.285 788.271 687.285 824.728L549.824 687.267C549.824 723.724 564.307 758.688 590.086 784.466C615.865 810.245 650.828 824.728 687.285 824.728" fill="#5530C5"/>
<path d="M824.728 687.273H687.273V824.728H824.728V687.273Z" fill="#532BCA"/>
<path d="M755.988 687.267H687.267V755.988H755.988V687.267Z" fill="#7C60D9"/>
<path d="M721.628 755.988C740.604 755.988 755.988 740.605 755.988 721.628C755.988 702.651 740.604 687.267 721.628 687.267C702.651 687.267 687.267 702.651 687.267 721.628C687.267 740.605 702.651 755.988 721.628 755.988Z" fill="#532BCA"/>
<path d="M824.728 687.267H756.006V755.988H824.728V687.267Z" fill="#5933CC"/>
<path d="M824.728 687.267H756.006V755.988H824.728V687.267Z" fill="#542DC8"/>
<path d="M755.988 756.006H687.267V824.728H755.988V756.006Z" fill="#5730CB"/>
<path d="M721.628 824.728C740.604 824.728 755.988 809.344 755.988 790.367C755.988 771.39 740.604 756.006 721.628 756.006C702.651 756.006 687.267 771.39 687.267 790.367C687.267 809.344 702.651 824.728 721.628 824.728Z" fill="#532CC9"/>
<path d="M824.728 756.006H756.006V824.728H824.728V756.006Z" fill="#542EC7"/>
<path d="M824.728 756.006H756.006V824.728H824.728V756.006Z" fill="#552FC6"/>
<path d="M962.188 687.267H824.728V824.728H962.188V687.267Z" fill="#5A34CD"/>
<path d="M962.188 687.267H824.728V824.728H962.188V687.267Z" fill="#5530C5"/>
<path d="M1099.64 687.273H962.182V824.728H1099.64V687.273Z" fill="#532BCA"/>
<path d="M1030.91 687.267H962.188V755.988H1030.91V687.267Z" fill="#5831CC"/>
<path d="M962.188 755.988C971.213 755.988 980.149 754.211 988.487 750.757C996.824 747.304 1004.4 742.242 1010.78 735.86C1017.16 729.479 1022.22 721.903 1025.68 713.566C1029.13 705.228 1030.91 696.292 1030.91 687.267H962.188" fill="#532BCA"/>
<path d="M1099.63 687.267H1030.91V755.988H1099.63V687.267Z" fill="#7051D5"/>
<path d="M1030.91 687.267C1030.91 705.493 1038.15 722.973 1051.04 735.86C1063.93 748.748 1081.4 755.988 1099.63 755.988V687.267" fill="#5A34CD"/>
<path d="M1030.91 756.006H962.188V824.728H1030.91V756.006Z" fill="#542DC8"/>
<path d="M962.188 756.006C971.213 756.006 980.149 757.784 988.487 761.237C996.824 764.691 1004.4 769.753 1010.78 776.134C1017.16 782.516 1022.22 790.091 1025.68 798.429C1029.13 806.767 1030.91 815.703 1030.91 824.728H962.188" fill="#542CC9"/>
<path d="M1099.63 756.006H1030.91V824.728H1099.63V756.006Z" fill="#6441D0"/>
<path d="M1030.91 824.728C1030.91 806.502 1038.15 789.022 1051.04 776.134C1063.93 763.247 1081.4 756.006 1099.63 756.006V824.728" fill="#7759D7"/>
<path d="M1237.09 687.267H1099.63V824.728H1237.09V687.267Z" fill="#7151D5"/>
<path d="M1099.63 687.267C1136.09 687.267 1171.05 701.75 1196.83 727.528C1222.61 753.307 1237.09 788.271 1237.09 824.728H1099.63" fill="#5730CB"/>
<path d="M1374.55 687.267H1237.09V824.728H1374.55V687.267Z" fill="#542DC8"/>
<path d="M1237.09 824.728C1273.55 824.728 1308.51 810.245 1334.29 784.466C1360.07 758.688 1374.55 723.724 1374.55 687.267H1237.09" fill="#5730CB"/>
<path d="M1512 687.273H1374.55V824.728H1512V687.273Z" fill="#532BCA"/>
<path d="M1443.27 687.267H1374.55V755.988H1443.27V687.267Z" fill="#5A34CD"/>
<path d="M1374.55 755.988C1374.55 746.964 1376.33 738.028 1379.78 729.69C1383.24 721.352 1388.3 713.776 1394.68 707.395C1401.06 701.014 1408.64 695.952 1416.97 692.498C1425.31 689.045 1434.25 687.267 1443.27 687.267V755.988" fill="#7455D6"/>
<path d="M1511.99 687.267H1443.27V755.988H1511.99V687.267Z" fill="#7D60DA"/>
<path d="M1443.27 687.267C1461.5 687.267 1478.98 694.507 1491.87 707.395C1504.75 720.283 1511.99 737.762 1511.99 755.988H1443.27" fill="#532BCA"/>
<path d="M1443.27 756.006H1374.55V824.728H1443.27V756.006Z" fill="#7050D5"/>
<path d="M1374.55 756.006C1374.55 765.031 1376.33 773.967 1379.78 782.305C1383.24 790.642 1388.3 798.218 1394.68 804.6C1401.06 810.981 1408.64 816.043 1416.97 819.496C1425.31 822.95 1434.25 824.728 1443.27 824.728V756.006" fill="#6845D2"/>
<path d="M1511.99 756.006H1443.27V824.728H1511.99V756.006Z" fill="#542FC6"/>
<path d="M1443.27 824.728C1461.5 824.728 1478.98 817.487 1491.87 804.6C1504.75 791.712 1511.99 774.232 1511.99 756.006H1443.27" fill="#542DC8"/>
</svg>
