<svg width="95" height="66" viewBox="0 0 95 66" fill="none" xmlns="http://www.w3.org/2000/svg">
<path d="M93.9279 1.16516C89.3198 22.3808 80.847 43.8119 60.7977 54.9467C50.0922 60.8922 35.5837 59.8906 34.1614 45.3639C33.1927 35.47 37.0476 19.47 48.4899 17.2643C61.1254 14.8286 43.5709 38.582 41.2233 40.776C30.2354 51.046 18.6413 56.3449 4.54793 60.6741C-0.731414 62.2959 2.30059 63.4941 5.96364 63.7949C9.14187 64.056 12.7639 64.2687 15.8982 63.6772C16.8542 63.4968 10.5884 63.3802 9.59919 63.4098C5.35736 63.5369 0.455322 63.5165 1.46304 57.9578C1.62501 57.0647 3.84836 48.8899 5.13408 48.9115C5.80307 48.9228 7.41125 54.7253 7.81138 55.4714C10.4104 60.317 13.1043 62.3031 18.4138 63.0073" stroke="#FEDC2F" stroke-width="2" stroke-linecap="round"/>
</svg>
