<svg width="520" height="90" viewBox="0 0 520 90" fill="none" xmlns="http://www.w3.org/2000/svg">
<path d="M31.866 85.0218L6.10352e-05 66.17L5.42294 45.9315L33.8742 63.5984L38.3786 66.3953C44.9164 70.455 53.5183 67.0526 55.5101 59.6191C56.7687 54.9218 54.9287 49.9414 50.9185 47.1906L12.2015 20.6335L17.6244 0.39502L45.8837 19.6357L58.8154 28.4404L65.0967 32.7172C75.9922 40.1355 81.0051 53.6327 77.5936 66.3647C72.2827 86.1853 49.5267 95.4699 31.866 85.0218Z" fill="url(#paint0_linear_3344_4699)"/>
<path opacity="0.4" d="M33.8742 63.5981L36.6488 65.6162C37.8943 66.5221 39.3025 67.1798 40.7966 67.5534L42.5345 67.9879L6.10352e-05 66.1698L33.8742 63.5981Z" fill="url(#paint1_linear_3344_4699)" fill-opacity="0.8"/>
<path opacity="0.4" d="M45.8837 19.6357L58.8154 28.4405L12.2015 20.6335L45.8837 19.6357Z" fill="url(#paint2_linear_3344_4699)" fill-opacity="0.8"/>
<path d="M54.647 0.00181722L17.6243 0.395034L12.2015 20.6335L50.9738 19.3891C58.6655 19.1423 64.4138 26.3898 62.422 33.8232C61.1634 38.5205 57.0797 41.9137 52.2313 42.2908L5.42287 45.9315L0 66.17L57.2733 61.9143C70.4183 60.9376 81.5081 51.7552 84.9197 39.0231C90.2306 19.2025 75.1656 -0.21611 54.647 0.00181722Z" fill="url(#paint3_linear_3344_4699)"/>
<path d="M158.954 75.1797L146.106 51.8597H142.498V75.1797H127.45V13.4037H152.706C157.575 13.4037 161.711 14.2544 165.114 15.9557C168.575 17.657 171.156 20.0037 172.858 22.9957C174.559 25.929 175.41 29.2144 175.41 32.8517C175.41 36.9584 174.236 40.625 171.89 43.8517C169.602 47.0784 166.199 49.3664 161.682 50.7157L175.938 75.1797H158.954ZM142.498 41.2117H151.826C154.583 41.2117 156.636 40.537 157.986 39.1877C159.394 37.8384 160.098 35.9317 160.098 33.4677C160.098 31.121 159.394 29.273 157.986 27.9237C156.636 26.5744 154.583 25.8997 151.826 25.8997H142.498V41.2117ZM231.144 49.8357C231.144 51.2437 231.056 52.7104 230.88 54.2357H196.824C197.058 57.2864 198.026 59.633 199.728 61.2757C201.488 62.8597 203.629 63.6517 206.152 63.6517C209.906 63.6517 212.517 62.0677 213.984 58.8997H230C229.178 62.1264 227.682 65.0304 225.512 67.6117C223.4 70.193 220.73 72.217 217.504 73.6837C214.277 75.1504 210.669 75.8837 206.68 75.8837C201.869 75.8837 197.586 74.857 193.832 72.8037C190.077 70.7504 187.144 67.817 185.032 64.0037C182.92 60.1904 181.864 55.7317 181.864 50.6277C181.864 45.5237 182.89 41.065 184.944 37.2517C187.056 33.4384 189.989 30.505 193.744 28.4517C197.498 26.3984 201.81 25.3717 206.68 25.3717C211.432 25.3717 215.656 26.369 219.352 28.3637C223.048 30.3584 225.922 33.2037 227.976 36.8997C230.088 40.5957 231.144 44.9077 231.144 49.8357ZM215.744 45.8757C215.744 43.2944 214.864 41.241 213.104 39.7157C211.344 38.1904 209.144 37.4277 206.504 37.4277C203.981 37.4277 201.84 38.161 200.08 39.6277C198.378 41.0944 197.322 43.177 196.912 45.8757H215.744ZM236.09 50.5397C236.09 45.4944 237.029 41.065 238.906 37.2517C240.842 33.4384 243.453 30.505 246.738 28.4517C250.024 26.3984 253.69 25.3717 257.738 25.3717C261.2 25.3717 264.221 26.0757 266.802 27.4837C269.442 28.8917 271.466 30.7397 272.874 33.0277V26.0757H287.922V75.1797H272.874V68.2277C271.408 70.5157 269.354 72.3637 266.714 73.7717C264.133 75.1797 261.112 75.8837 257.65 75.8837C253.661 75.8837 250.024 74.857 246.738 72.8037C243.453 70.6917 240.842 67.729 238.906 63.9157C237.029 60.0437 236.09 55.585 236.09 50.5397ZM272.874 50.6277C272.874 46.873 271.818 43.9104 269.706 41.7397C267.653 39.569 265.13 38.4837 262.138 38.4837C259.146 38.4837 256.594 39.569 254.482 41.7397C252.429 43.8517 251.402 46.785 251.402 50.5397C251.402 54.2944 252.429 57.2864 254.482 59.5157C256.594 61.6864 259.146 62.7717 262.138 62.7717C265.13 62.7717 267.653 61.6864 269.706 59.5157C271.818 57.345 272.874 54.3824 272.874 50.6277ZM313.857 10.0597V75.1797H298.809V10.0597H313.857ZM352.13 62.4197V75.1797H344.474C339.018 75.1797 334.765 73.8597 331.714 71.2197C328.663 68.521 327.138 64.1504 327.138 58.1077V38.5717H321.154V26.0757H327.138V14.1077H342.186V26.0757H352.042V38.5717H342.186V58.2837C342.186 59.7504 342.538 60.8064 343.242 61.4517C343.946 62.097 345.119 62.4197 346.762 62.4197H352.13ZM368.08 20.9717C365.44 20.9717 363.269 20.209 361.568 18.6837C359.925 17.0997 359.104 15.1637 359.104 12.8757C359.104 10.529 359.925 8.59302 361.568 7.06768C363.269 5.48368 365.44 4.69168 368.08 4.69168C370.661 4.69168 372.773 5.48368 374.416 7.06768C376.117 8.59302 376.968 10.529 376.968 12.8757C376.968 15.1637 376.117 17.0997 374.416 18.6837C372.773 20.209 370.661 20.9717 368.08 20.9717ZM375.56 26.0757V75.1797H360.512V26.0757H375.56ZM416.385 25.5477C422.134 25.5477 426.71 27.425 430.113 31.1797C433.574 34.8757 435.305 39.9797 435.305 46.4917V75.1797H420.345V48.5157C420.345 45.2304 419.494 42.6784 417.793 40.8597C416.092 39.041 413.804 38.1317 410.929 38.1317C408.054 38.1317 405.766 39.041 404.065 40.8597C402.364 42.6784 401.513 45.2304 401.513 48.5157V75.1797H386.465V26.0757H401.513V32.5877C403.038 30.417 405.092 28.7157 407.673 27.4837C410.254 26.193 413.158 25.5477 416.385 25.5477ZM453.33 20.9717C450.69 20.9717 448.519 20.209 446.818 18.6837C445.175 17.0997 444.354 15.1637 444.354 12.8757C444.354 10.529 445.175 8.59302 446.818 7.06768C448.519 5.48368 450.69 4.69168 453.33 4.69168C455.911 4.69168 458.023 5.48368 459.666 7.06768C461.367 8.59302 462.218 10.529 462.218 12.8757C462.218 15.1637 461.367 17.0997 459.666 18.6837C458.023 20.209 455.911 20.9717 453.33 20.9717ZM460.81 26.0757V75.1797H445.762V26.0757H460.81ZM468.723 50.6277C468.723 45.5237 469.75 41.065 471.803 37.2517C473.915 33.4384 476.819 30.505 480.515 28.4517C484.27 26.3984 488.552 25.3717 493.363 25.3717C499.523 25.3717 504.656 26.985 508.763 30.2117C512.928 33.4384 515.656 37.985 516.947 43.8517H500.931C499.582 40.097 496.971 38.2197 493.099 38.2197C490.342 38.2197 488.142 39.305 486.499 41.4757C484.856 43.5877 484.035 46.6384 484.035 50.6277C484.035 54.617 484.856 57.697 486.499 59.8677C488.142 61.9797 490.342 63.0357 493.099 63.0357C496.971 63.0357 499.582 61.1584 500.931 57.4037H516.947C515.656 63.153 512.928 67.6704 508.763 70.9557C504.598 74.241 499.464 75.8837 493.363 75.8837C488.552 75.8837 484.27 74.857 480.515 72.8037C476.819 70.7504 473.915 67.817 471.803 64.0037C469.75 60.1904 468.723 55.7317 468.723 50.6277Z" fill="white"/>
<defs>
<linearGradient id="paint0_linear_3344_4699" x1="-21.4999" y1="-9.99988" x2="122" y2="89.0001" gradientUnits="userSpaceOnUse">
<stop stop-color="#D6D6D6"/>
<stop offset="1" stop-color="white"/>
<stop offset="1" stop-color="white"/>
</linearGradient>
<linearGradient id="paint1_linear_3344_4699" x1="21.2673" y1="63.5981" x2="20.9958" y2="66.3281" gradientUnits="userSpaceOnUse">
<stop offset="0.270833" stop-color="#C4C4C4"/>
<stop offset="1" stop-color="#D9D9D9" stop-opacity="0"/>
</linearGradient>
<linearGradient id="paint2_linear_3344_4699" x1="35.5084" y1="19.6357" x2="34.5345" y2="24.9882" gradientUnits="userSpaceOnUse">
<stop offset="0.270833" stop-color="#C4C4C4"/>
<stop offset="1" stop-color="#D9D9D9" stop-opacity="0"/>
</linearGradient>
<linearGradient id="paint3_linear_3344_4699" x1="87.5344" y1="32.988" x2="2.5344" y2="32.988" gradientUnits="userSpaceOnUse">
<stop offset="0.567708" stop-color="white"/>
<stop offset="1" stop-color="white"/>
</linearGradient>
</defs>
</svg>
