<svg width="187" height="44" viewBox="0 0 187 44" fill="none" xmlns="http://www.w3.org/2000/svg">
<path d="M16.0527 34.6422L4.75189 28.1504L6.67503 21.1811L16.7648 27.2648L18.3622 28.228C20.6808 29.626 23.7313 28.4543 24.4376 25.8945C24.884 24.277 24.2315 22.5619 22.8093 21.6147L9.07895 12.4695L11.0021 5.50024L21.0238 12.1259L25.6098 15.1579L27.8374 16.6306C31.7013 19.1852 33.4791 23.8331 32.2692 28.2174C30.3858 35.0428 22.3157 38.24 16.0527 34.6422Z" fill="url(#paint0_linear_3510_5479)"/>
<path d="M16.7648 27.2649L17.2252 27.59C18.013 28.1464 18.8988 28.549 19.8361 28.7765L4.75189 28.1505L16.7648 27.2649Z" fill="url(#paint1_linear_3510_5479)" fill-opacity="0.8"/>
<path d="M21.0238 12.126L25.6098 15.158L9.07898 12.4696L21.0238 12.126Z" fill="url(#paint2_linear_3510_5479)" fill-opacity="0.8"/>
<path d="M24.1316 5.36488L11.0021 5.50029L9.07895 12.4696L22.829 12.0411C25.5567 11.9561 27.5952 14.4518 26.8889 17.0116C26.4425 18.6291 24.9943 19.7976 23.2749 19.9274L6.67503 21.1812L4.75189 28.1504L25.063 26.6849C29.7246 26.3486 33.6575 23.1866 34.8673 18.8022C36.7508 11.9768 31.4082 5.28984 24.1316 5.36488Z" fill="url(#paint3_linear_3510_5479)"/>
<path d="M54.304 36.25V12.41H63.168C64.7893 12.41 66.2187 12.7087 67.456 13.306C68.7147 13.882 69.696 14.7353 70.4 15.866C71.104 16.9753 71.456 18.33 71.456 19.93C71.456 21.5727 71.0613 22.97 70.272 24.122C69.504 25.274 68.4587 26.1273 67.136 26.682L72.608 36.25H67.68L61.824 25.786L64.64 27.45H58.656V36.25H54.304ZM58.656 23.61H63.232C64.0213 23.61 64.704 23.4607 65.28 23.162C65.856 22.842 66.304 22.4047 66.624 21.85C66.944 21.2953 67.104 20.6553 67.104 19.93C67.104 19.1833 66.944 18.5433 66.624 18.01C66.304 17.4553 65.856 17.0287 65.28 16.73C64.704 16.41 64.0213 16.25 63.232 16.25H58.656V23.61ZM82.3955 36.634C80.6035 36.634 79.0355 36.2287 77.6915 35.418C76.3475 34.6073 75.3022 33.5087 74.5555 32.122C73.8088 30.7353 73.4355 29.1993 73.4355 27.514C73.4355 25.7647 73.8088 24.218 74.5555 22.874C75.3235 21.5087 76.3582 20.4313 77.6595 19.642C78.9822 18.8527 80.4542 18.458 82.0755 18.458C83.4408 18.458 84.6355 18.682 85.6595 19.13C86.7048 19.578 87.5902 20.1967 88.3155 20.986C89.0408 21.7753 89.5955 22.682 89.9795 23.706C90.3635 24.7087 90.5555 25.7967 90.5555 26.97C90.5555 27.2687 90.5342 27.578 90.4915 27.898C90.4702 28.218 90.4168 28.4953 90.3315 28.73H76.8915V25.53H87.9635L85.9795 27.034C86.1715 26.0527 86.1182 25.178 85.8195 24.41C85.5422 23.642 85.0728 23.034 84.4115 22.586C83.7715 22.138 82.9928 21.914 82.0755 21.914C81.2008 21.914 80.4222 22.138 79.7395 22.586C79.0568 23.0127 78.5342 23.6527 78.1715 24.506C77.8302 25.338 77.7022 26.3513 77.7875 27.546C77.7022 28.6127 77.8408 29.562 78.2035 30.394C78.5875 31.2047 79.1422 31.834 79.8675 32.282C80.6142 32.73 81.4675 32.954 82.4275 32.954C83.3875 32.954 84.1982 32.7513 84.8595 32.346C85.5422 31.9407 86.0755 31.3967 86.4595 30.714L89.8515 32.378C89.5102 33.21 88.9768 33.946 88.2515 34.586C87.5262 35.226 86.6622 35.7273 85.6595 36.09C84.6782 36.4527 83.5902 36.634 82.3955 36.634ZM98.9508 36.634C97.7348 36.634 96.6788 36.4313 95.7828 36.026C94.8868 35.6207 94.1934 35.0447 93.7028 34.298C93.2121 33.53 92.9668 32.6447 92.9668 31.642C92.9668 30.682 93.1801 29.8287 93.6068 29.082C94.0334 28.314 94.6948 27.674 95.5908 27.162C96.4868 26.65 97.6174 26.2873 98.9828 26.074L104.679 25.146V28.346L99.7828 29.178C98.9508 29.3273 98.3321 29.594 97.9268 29.978C97.5214 30.362 97.3188 30.8633 97.3188 31.482C97.3188 32.0793 97.5428 32.5593 97.9908 32.922C98.4601 33.2633 99.0361 33.434 99.7188 33.434C100.593 33.434 101.361 33.2527 102.023 32.89C102.705 32.506 103.228 31.9833 103.591 31.322C103.975 30.6607 104.167 29.9353 104.167 29.146V24.666C104.167 23.9193 103.868 23.3007 103.271 22.81C102.695 22.298 101.927 22.042 100.967 22.042C100.071 22.042 99.2708 22.2873 98.5668 22.778C97.8841 23.2473 97.3828 23.8767 97.0628 24.666L93.6388 23.002C93.9801 22.0847 94.5134 21.2953 95.2388 20.634C95.9854 19.9513 96.8601 19.418 97.8628 19.034C98.8654 18.65 99.9534 18.458 101.127 18.458C102.556 18.458 103.815 18.7247 104.903 19.258C105.991 19.77 106.833 20.4953 107.431 21.434C108.049 22.3513 108.359 23.4287 108.359 24.666V36.25H104.391V33.274L105.287 33.21C104.839 33.9567 104.305 34.586 103.687 35.098C103.068 35.5887 102.364 35.9727 101.575 36.25C100.785 36.506 99.9108 36.634 98.9508 36.634ZM112.233 36.25V12.026H116.425V36.25H112.233ZM128.232 36.442C126.269 36.442 124.744 35.9087 123.656 34.842C122.589 33.754 122.056 32.2287 122.056 30.266V22.586H119.048V18.842H119.368C120.221 18.842 120.882 18.618 121.352 18.17C121.821 17.722 122.056 17.0713 122.056 16.218V14.874H126.248V18.842H130.248V22.586H126.248V30.042C126.248 30.618 126.344 31.1087 126.536 31.514C126.749 31.9193 127.069 32.2287 127.496 32.442C127.944 32.6553 128.509 32.762 129.192 32.762C129.341 32.762 129.512 32.7513 129.704 32.73C129.917 32.7087 130.12 32.6873 130.312 32.666V36.25C130.013 36.2927 129.672 36.3353 129.288 36.378C128.904 36.4207 128.552 36.442 128.232 36.442ZM133.515 36.25V18.842H137.707V36.25H133.515ZM133.515 16.89V12.41H137.707V16.89H133.515ZM141.577 36.25V18.842H145.513V22.266L145.193 21.658C145.598 20.6127 146.26 19.8233 147.177 19.29C148.116 18.7353 149.204 18.458 150.441 18.458C151.721 18.458 152.852 18.7353 153.833 19.29C154.836 19.8447 155.614 20.6233 156.169 21.626C156.724 22.6073 157.001 23.7487 157.001 25.05V36.25H152.809V26.042C152.809 25.274 152.66 24.6127 152.361 24.058C152.062 23.5033 151.646 23.0767 151.113 22.778C150.601 22.458 149.993 22.298 149.289 22.298C148.606 22.298 147.998 22.458 147.465 22.778C146.932 23.0767 146.516 23.5033 146.217 24.058C145.918 24.6127 145.769 25.274 145.769 26.042V36.25H141.577ZM160.546 36.25V18.842H164.738V36.25H160.546ZM160.546 16.89V12.41H164.738V16.89H160.546ZM176.992 36.634C175.264 36.634 173.707 36.2393 172.32 35.45C170.955 34.6393 169.878 33.5513 169.088 32.186C168.299 30.7993 167.904 29.242 167.904 27.514C167.904 25.786 168.299 24.2393 169.088 22.874C169.878 21.5087 170.955 20.4313 172.32 19.642C173.707 18.8527 175.264 18.458 176.992 18.458C178.23 18.458 179.382 18.682 180.448 19.13C181.515 19.5567 182.432 20.154 183.2 20.922C183.99 21.6687 184.555 22.5647 184.896 23.61L181.216 25.21C180.896 24.3353 180.352 23.6313 179.584 23.098C178.838 22.5647 177.974 22.298 176.992 22.298C176.075 22.298 175.254 22.522 174.528 22.97C173.824 23.418 173.27 24.0367 172.864 24.826C172.459 25.6153 172.256 26.522 172.256 27.546C172.256 28.57 172.459 29.4767 172.864 30.266C173.27 31.0553 173.824 31.674 174.528 32.122C175.254 32.57 176.075 32.794 176.992 32.794C177.995 32.794 178.87 32.5273 179.616 31.994C180.363 31.4607 180.896 30.746 181.216 29.85L184.896 31.514C184.555 32.4953 184 33.3807 183.232 34.17C182.464 34.938 181.547 35.546 180.48 35.994C179.414 36.4207 178.251 36.634 176.992 36.634Z" fill="white"/>
<defs>
<linearGradient id="paint0_linear_3510_5479" x1="34.4999" y1="23.75" x2="6.99994" y2="15.75" gradientUnits="userSpaceOnUse">
<stop offset="0.296875" stop-color="#4A2E9E"/>
<stop offset="1" stop-color="#382277"/>
</linearGradient>
<linearGradient id="paint1_linear_3510_5479" x1="12.294" y1="27.2649" x2="12.2032" y2="28.2055" gradientUnits="userSpaceOnUse">
<stop offset="0.270833" stop-color="#351575"/>
<stop offset="1" stop-color="#45008A" stop-opacity="0"/>
</linearGradient>
<linearGradient id="paint2_linear_3510_5479" x1="17.3444" y1="12.126" x2="17.0181" y2="13.9725" gradientUnits="userSpaceOnUse">
<stop offset="0.270833" stop-color="#351575"/>
<stop offset="1" stop-color="#45008A" stop-opacity="0"/>
</linearGradient>
<linearGradient id="paint3_linear_3510_5479" x1="35.7946" y1="16.7239" x2="5.65068" y2="16.7239" gradientUnits="userSpaceOnUse">
<stop offset="0.567708" stop-color="#5937BE"/>
<stop offset="1" stop-color="#5937BE"/>
</linearGradient>
</defs>
</svg>
