<svg width="672" height="561" viewBox="0 0 672 561" fill="none" xmlns="http://www.w3.org/2000/svg">
<rect y="13" width="672" height="548" rx="32" fill="#F1EEFC"/>
<rect x="96" y="107" width="480" height="360" rx="20" fill="white"/>
<path d="M139.882 178.304V157.574H147.423C148.814 157.574 150.038 157.834 151.096 158.353C152.153 158.854 152.979 159.596 153.572 160.579C154.184 161.544 154.49 162.703 154.49 164.057C154.49 165.486 154.129 166.71 153.405 167.73C152.7 168.751 151.745 169.493 150.539 169.957L155.325 178.304H151.597L146.504 169.261L148.647 170.513H143.165V178.304H139.882ZM143.165 167.591H147.478C148.239 167.591 148.897 167.443 149.454 167.146C150.01 166.849 150.437 166.441 150.734 165.922C151.049 165.384 151.207 164.753 151.207 164.03C151.207 163.306 151.049 162.685 150.734 162.165C150.437 161.627 150.01 161.219 149.454 160.941C148.897 160.644 148.239 160.496 147.478 160.496H143.165V167.591Z" fill="black"/>
<path d="M164.008 178.638C162.505 178.638 161.169 178.295 160.001 177.609C158.851 176.904 157.951 175.958 157.302 174.77C156.652 173.565 156.328 172.22 156.328 170.736C156.328 169.214 156.652 167.87 157.302 166.701C157.969 165.532 158.86 164.614 159.973 163.946C161.086 163.26 162.347 162.917 163.757 162.917C164.889 162.917 165.9 163.111 166.79 163.501C167.681 163.89 168.432 164.428 169.044 165.115C169.656 165.783 170.12 166.552 170.435 167.424C170.769 168.296 170.936 169.224 170.936 170.207C170.936 170.448 170.927 170.699 170.908 170.958C170.89 171.218 170.853 171.459 170.797 171.682H158.804V169.177H169.016L167.514 170.318C167.699 169.409 167.634 168.602 167.319 167.897C167.022 167.174 166.558 166.608 165.928 166.2C165.315 165.773 164.592 165.56 163.757 165.56C162.922 165.56 162.18 165.773 161.531 166.2C160.882 166.608 160.381 167.202 160.028 167.981C159.676 168.741 159.537 169.669 159.611 170.763C159.518 171.784 159.657 172.674 160.028 173.435C160.418 174.195 160.956 174.789 161.642 175.216C162.347 175.642 163.145 175.856 164.035 175.856C164.944 175.856 165.714 175.652 166.345 175.243C166.994 174.835 167.504 174.307 167.875 173.657L170.435 174.91C170.139 175.614 169.675 176.254 169.044 176.83C168.432 177.386 167.69 177.831 166.818 178.165C165.965 178.481 165.028 178.638 164.008 178.638Z" fill="black"/>
<path d="M174.005 178.304V163.25H177.01V166.2L176.648 165.81C177.019 164.864 177.613 164.15 178.429 163.668C179.246 163.167 180.192 162.917 181.268 162.917C182.381 162.917 183.364 163.158 184.217 163.64C185.071 164.122 185.738 164.79 186.221 165.643C186.703 166.497 186.944 167.48 186.944 168.593V178.304H183.828V169.428C183.828 168.667 183.688 168.027 183.41 167.508C183.132 166.97 182.733 166.562 182.214 166.283C181.713 165.987 181.138 165.838 180.488 165.838C179.839 165.838 179.255 165.987 178.735 166.283C178.235 166.562 177.845 166.97 177.567 167.508C177.288 168.046 177.149 168.686 177.149 169.428V178.304H174.005Z" fill="black"/>
<path d="M196.821 178.471C195.244 178.471 194.019 178.026 193.148 177.136C192.276 176.245 191.84 174.993 191.84 173.379V166.089H189.196V163.25H189.614C190.319 163.25 190.866 163.046 191.255 162.638C191.645 162.23 191.84 161.674 191.84 160.969V159.8H194.984V163.25H198.407V166.089H194.984V173.24C194.984 173.759 195.068 174.205 195.235 174.576C195.402 174.928 195.671 175.206 196.042 175.41C196.413 175.596 196.895 175.689 197.488 175.689C197.637 175.689 197.804 175.679 197.989 175.661C198.175 175.642 198.351 175.624 198.518 175.605V178.304C198.258 178.341 197.971 178.379 197.655 178.416C197.34 178.453 197.062 178.471 196.821 178.471Z" fill="black"/>
<path d="M213.602 178.638C212.099 178.638 210.764 178.295 209.595 177.609C208.445 176.904 207.527 175.958 206.84 174.77C206.172 173.583 205.838 172.238 205.838 170.736C205.838 169.252 206.172 167.916 206.84 166.729C207.508 165.541 208.426 164.614 209.595 163.946C210.764 163.26 212.099 162.917 213.602 162.917C214.622 162.917 215.578 163.102 216.468 163.473C217.358 163.825 218.128 164.317 218.778 164.948C219.445 165.579 219.937 166.311 220.252 167.146L217.498 168.426C217.182 167.647 216.672 167.025 215.967 166.562C215.281 166.079 214.492 165.838 213.602 165.838C212.749 165.838 211.979 166.052 211.292 166.478C210.625 166.886 210.096 167.471 209.706 168.231C209.317 168.973 209.122 169.817 209.122 170.763C209.122 171.71 209.317 172.563 209.706 173.323C210.096 174.065 210.625 174.65 211.292 175.077C211.979 175.503 212.749 175.717 213.602 175.717C214.511 175.717 215.299 175.485 215.967 175.021C216.654 174.539 217.164 173.899 217.498 173.101L220.252 174.409C219.956 175.206 219.473 175.93 218.805 176.579C218.156 177.21 217.386 177.711 216.496 178.082C215.605 178.453 214.641 178.638 213.602 178.638Z" fill="black"/>
<path d="M230.588 178.638C229.141 178.638 227.815 178.295 226.609 177.609C225.422 176.922 224.476 175.985 223.771 174.798C223.066 173.611 222.713 172.266 222.713 170.763C222.713 169.242 223.066 167.897 223.771 166.729C224.476 165.541 225.422 164.614 226.609 163.946C227.796 163.26 229.123 162.917 230.588 162.917C232.072 162.917 233.399 163.26 234.567 163.946C235.755 164.614 236.691 165.541 237.378 166.729C238.083 167.897 238.435 169.242 238.435 170.763C238.435 172.285 238.083 173.639 237.378 174.826C236.673 176.013 235.727 176.95 234.54 177.637C233.352 178.304 232.035 178.638 230.588 178.638ZM230.588 175.717C231.479 175.717 232.267 175.503 232.953 175.077C233.64 174.65 234.178 174.065 234.567 173.323C234.976 172.563 235.18 171.71 235.18 170.763C235.18 169.817 234.976 168.973 234.567 168.231C234.178 167.489 233.64 166.905 232.953 166.478C232.267 166.052 231.479 165.838 230.588 165.838C229.716 165.838 228.928 166.052 228.223 166.478C227.537 166.905 226.989 167.489 226.581 168.231C226.192 168.973 225.997 169.817 225.997 170.763C225.997 171.71 226.192 172.563 226.581 173.323C226.989 174.065 227.537 174.65 228.223 175.077C228.928 175.503 229.716 175.717 230.588 175.717Z" fill="black"/>
<path d="M241.505 178.304V157.24H244.649V178.304H241.505Z" fill="black"/>
<path d="M248.326 178.304V157.24H251.47V178.304H248.326Z" fill="black"/>
<path d="M262.214 178.638C260.712 178.638 259.376 178.295 258.207 177.609C257.057 176.904 256.157 175.958 255.508 174.77C254.859 173.565 254.534 172.22 254.534 170.736C254.534 169.214 254.859 167.87 255.508 166.701C256.176 165.532 257.066 164.614 258.179 163.946C259.292 163.26 260.554 162.917 261.964 162.917C263.095 162.917 264.106 163.111 264.997 163.501C265.887 163.89 266.638 164.428 267.251 165.115C267.863 165.783 268.327 166.552 268.642 167.424C268.976 168.296 269.143 169.224 269.143 170.207C269.143 170.448 269.134 170.699 269.115 170.958C269.096 171.218 269.059 171.459 269.004 171.682H257.011V169.177H267.223L265.72 170.318C265.906 169.409 265.841 168.602 265.525 167.897C265.229 167.174 264.765 166.608 264.134 166.2C263.522 165.773 262.798 165.56 261.964 165.56C261.129 165.56 260.387 165.773 259.738 166.2C259.088 166.608 258.587 167.202 258.235 167.981C257.883 168.741 257.743 169.669 257.818 170.763C257.725 171.784 257.864 172.674 258.235 173.435C258.625 174.195 259.163 174.789 259.849 175.216C260.554 175.642 261.352 175.856 262.242 175.856C263.151 175.856 263.921 175.652 264.552 175.243C265.201 174.835 265.711 174.307 266.082 173.657L268.642 174.91C268.345 175.614 267.881 176.254 267.251 176.83C266.638 177.386 265.896 177.831 265.025 178.165C264.171 178.481 263.234 178.638 262.214 178.638Z" fill="black"/>
<path d="M279.363 178.638C277.86 178.638 276.525 178.295 275.356 177.609C274.206 176.904 273.287 175.958 272.601 174.77C271.933 173.583 271.599 172.238 271.599 170.736C271.599 169.252 271.933 167.916 272.601 166.729C273.269 165.541 274.187 164.614 275.356 163.946C276.525 163.26 277.86 162.917 279.363 162.917C280.383 162.917 281.338 163.102 282.229 163.473C283.119 163.825 283.889 164.317 284.538 164.948C285.206 165.579 285.698 166.311 286.013 167.146L283.258 168.426C282.943 167.647 282.433 167.025 281.728 166.562C281.042 166.079 280.253 165.838 279.363 165.838C278.509 165.838 277.74 166.052 277.053 166.478C276.385 166.886 275.857 167.471 275.467 168.231C275.078 168.973 274.883 169.817 274.883 170.763C274.883 171.71 275.078 172.563 275.467 173.323C275.857 174.065 276.385 174.65 277.053 175.077C277.74 175.503 278.509 175.717 279.363 175.717C280.272 175.717 281.06 175.485 281.728 175.021C282.414 174.539 282.925 173.899 283.258 173.101L286.013 174.409C285.716 175.206 285.234 175.93 284.566 176.579C283.917 177.21 283.147 177.711 282.257 178.082C281.366 178.453 280.402 178.638 279.363 178.638Z" fill="black"/>
<path d="M295.598 178.471C294.021 178.471 292.797 178.026 291.925 177.136C291.053 176.245 290.617 174.993 290.617 173.379V166.089H287.973V163.25H288.391C289.096 163.25 289.643 163.046 290.033 162.638C290.422 162.23 290.617 161.674 290.617 160.969V159.8H293.761V163.25H297.184V166.089H293.761V173.24C293.761 173.759 293.845 174.205 294.012 174.576C294.179 174.928 294.448 175.206 294.819 175.41C295.19 175.596 295.672 175.689 296.266 175.689C296.414 175.689 296.581 175.679 296.767 175.661C296.952 175.642 297.128 175.624 297.295 175.605V178.304C297.036 178.341 296.748 178.379 296.433 178.416C296.117 178.453 295.839 178.471 295.598 178.471Z" fill="black"/>
<path d="M300.364 178.304V163.25H303.508V178.304H300.364ZM300.364 161.191V157.574H303.508V161.191H300.364Z" fill="black"/>
<path d="M314.447 178.638C313 178.638 311.674 178.295 310.468 177.609C309.281 176.922 308.335 175.985 307.63 174.798C306.925 173.611 306.572 172.266 306.572 170.763C306.572 169.242 306.925 167.897 307.63 166.729C308.335 165.541 309.281 164.614 310.468 163.946C311.655 163.26 312.981 162.917 314.447 162.917C315.931 162.917 317.257 163.26 318.426 163.946C319.613 164.614 320.55 165.541 321.237 166.729C321.941 167.897 322.294 169.242 322.294 170.763C322.294 172.285 321.941 173.639 321.237 174.826C320.532 176.013 319.586 176.95 318.398 177.637C317.211 178.304 315.894 178.638 314.447 178.638ZM314.447 175.717C315.337 175.717 316.126 175.503 316.812 175.077C317.499 174.65 318.037 174.065 318.426 173.323C318.834 172.563 319.038 171.71 319.038 170.763C319.038 169.817 318.834 168.973 318.426 168.231C318.037 167.489 317.499 166.905 316.812 166.478C316.126 166.052 315.337 165.838 314.447 165.838C313.575 165.838 312.787 166.052 312.082 166.478C311.395 166.905 310.848 167.489 310.44 168.231C310.05 168.973 309.856 169.817 309.856 170.763C309.856 171.71 310.05 172.563 310.44 173.323C310.848 174.065 311.395 174.65 312.082 175.077C312.787 175.503 313.575 175.717 314.447 175.717Z" fill="black"/>
<path d="M325.364 178.304V163.25H328.369V166.2L328.007 165.81C328.378 164.864 328.972 164.15 329.788 163.668C330.604 163.167 331.55 162.917 332.626 162.917C333.739 162.917 334.723 163.158 335.576 163.64C336.429 164.122 337.097 164.79 337.579 165.643C338.062 166.497 338.303 167.48 338.303 168.593V178.304H335.186V169.428C335.186 168.667 335.047 168.027 334.769 167.508C334.491 166.97 334.092 166.562 333.572 166.283C333.072 165.987 332.496 165.838 331.847 165.838C331.198 165.838 330.614 165.987 330.094 166.283C329.593 166.562 329.204 166.97 328.925 167.508C328.647 168.046 328.508 168.686 328.508 169.428V178.304H325.364Z" fill="black"/>
<path d="M527.449 160.217V167.681C527.449 172.145 524.899 174.058 521.072 174.058H508.333C507.681 174.058 507.058 174 506.478 173.87C506.116 173.812 505.768 173.71 505.449 173.594C503.275 172.783 501.957 170.899 501.957 167.681V160.217C501.957 155.754 504.507 153.841 508.333 153.841H521.072C524.319 153.841 526.652 155.217 527.275 158.362C527.377 158.942 527.449 159.536 527.449 160.217Z" stroke="#292D32" stroke-width="2.5" stroke-miterlimit="10" stroke-linecap="round" stroke-linejoin="round"/>
<path d="M531.799 164.565V172.029C531.799 176.493 529.248 178.406 525.422 178.406H512.683C511.61 178.406 510.639 178.261 509.799 177.942C508.074 177.305 506.9 175.986 506.48 173.87C507.06 174 507.683 174.058 508.335 174.058H521.074C524.9 174.058 527.451 172.145 527.451 167.681V160.218C527.451 159.536 527.393 158.928 527.277 158.363C530.031 158.942 531.799 160.884 531.799 164.565Z" stroke="#292D32" stroke-width="2.5" stroke-miterlimit="10" stroke-linecap="round" stroke-linejoin="round"/>
<path d="M514.693 167.782C516.806 167.782 518.519 166.069 518.519 163.956C518.519 161.843 516.806 160.13 514.693 160.13C512.58 160.13 510.867 161.843 510.867 163.956C510.867 166.069 512.58 167.782 514.693 167.782Z" stroke="#292D32" stroke-width="2.5" stroke-miterlimit="10" stroke-linecap="round" stroke-linejoin="round"/>
<path d="M506.406 160.768V167.145" stroke="#292D32" stroke-width="2.5" stroke-miterlimit="10" stroke-linecap="round" stroke-linejoin="round"/>
<path d="M522.988 160.769V167.145" stroke="#292D32" stroke-width="2.5" stroke-miterlimit="10" stroke-linecap="round" stroke-linejoin="round"/>
<path d="M142.184 277.435V263.765H137.969V261.887H148.403V263.765H144.25V277.435H142.184Z" fill="#9E9CA0"/>
<path d="M154.02 277.685C152.935 277.685 151.954 277.435 151.078 276.934C150.201 276.419 149.506 275.717 148.991 274.826C148.476 273.936 148.219 272.927 148.219 271.8C148.219 270.673 148.469 269.671 148.97 268.795C149.485 267.918 150.18 267.223 151.057 266.708C151.934 266.193 152.921 265.936 154.02 265.936C155.106 265.936 156.087 266.193 156.963 266.708C157.84 267.209 158.528 267.897 159.029 268.774C159.544 269.65 159.801 270.659 159.801 271.8C159.801 272.941 159.537 273.957 159.008 274.847C158.48 275.723 157.777 276.419 156.9 276.934C156.038 277.435 155.078 277.685 154.02 277.685ZM154.02 275.807C154.716 275.807 155.342 275.633 155.899 275.285C156.469 274.937 156.914 274.457 157.234 273.845C157.568 273.233 157.735 272.551 157.735 271.8C157.735 271.035 157.568 270.36 157.234 269.776C156.914 269.177 156.469 268.704 155.899 268.357C155.342 267.995 154.716 267.814 154.02 267.814C153.311 267.814 152.671 267.995 152.1 268.357C151.544 268.704 151.099 269.177 150.765 269.776C150.431 270.36 150.264 271.035 150.264 271.8C150.264 272.551 150.431 273.233 150.765 273.845C151.099 274.457 151.544 274.937 152.1 275.285C152.671 275.633 153.311 275.807 154.02 275.807Z" fill="#9E9CA0"/>
<path d="M166.699 277.56C165.6 277.56 164.752 277.247 164.153 276.621C163.569 275.995 163.277 275.111 163.277 273.97V268.043H161.232V266.186H161.649C162.15 266.186 162.546 266.033 162.839 265.727C163.131 265.421 163.277 265.017 163.277 264.517V263.598H165.218V266.186H167.743V268.043H165.218V273.908C165.218 274.283 165.273 274.61 165.385 274.889C165.51 275.167 165.712 275.39 165.99 275.557C166.268 275.71 166.637 275.786 167.096 275.786C167.193 275.786 167.312 275.779 167.451 275.765C167.604 275.751 167.743 275.737 167.868 275.723V277.435C167.687 277.477 167.485 277.504 167.263 277.518C167.04 277.546 166.852 277.56 166.699 277.56Z" fill="#9E9CA0"/>
<path d="M173.558 277.685C172.821 277.685 172.167 277.553 171.596 277.289C171.04 277.01 170.602 276.635 170.282 276.162C169.962 275.675 169.802 275.118 169.802 274.492C169.802 273.894 169.927 273.358 170.177 272.885C170.442 272.398 170.845 271.988 171.388 271.654C171.944 271.32 172.64 271.083 173.475 270.944L177.649 270.256V271.883L173.913 272.51C173.189 272.635 172.661 272.864 172.327 273.198C172.007 273.532 171.847 273.943 171.847 274.43C171.847 274.889 172.028 275.271 172.389 275.577C172.765 275.883 173.231 276.037 173.788 276.037C174.497 276.037 175.109 275.89 175.624 275.598C176.153 275.292 176.563 274.882 176.856 274.367C177.162 273.852 177.315 273.282 177.315 272.656V269.797C177.315 269.184 177.085 268.69 176.626 268.315C176.181 267.925 175.589 267.73 174.852 267.73C174.212 267.73 173.642 267.897 173.141 268.231C172.654 268.551 172.292 268.983 172.056 269.525L170.365 268.649C170.574 268.134 170.908 267.675 171.367 267.271C171.826 266.854 172.362 266.527 172.974 266.29C173.586 266.054 174.226 265.936 174.894 265.936C175.756 265.936 176.515 266.103 177.169 266.437C177.823 266.757 178.33 267.209 178.692 267.793C179.068 268.363 179.256 269.031 179.256 269.797V277.435H177.356V275.306L177.711 275.431C177.475 275.877 177.155 276.266 176.751 276.6C176.348 276.934 175.875 277.198 175.332 277.393C174.789 277.588 174.198 277.685 173.558 277.685Z" fill="#9E9CA0"/>
<path d="M182.265 277.435V261.637H184.206V277.435H182.265Z" fill="#9E9CA0"/>
<path d="M191.054 277.435V261.887H196.543C197.572 261.887 198.477 262.082 199.256 262.471C200.035 262.861 200.64 263.417 201.072 264.141C201.517 264.864 201.739 265.713 201.739 266.687C201.739 267.786 201.461 268.718 200.905 269.483C200.348 270.249 199.597 270.798 198.651 271.132L202.261 277.435H199.882L196.084 270.694L197.44 271.487H193.099V277.435H191.054ZM193.099 269.609H196.605C197.218 269.609 197.753 269.49 198.212 269.254C198.672 269.017 199.026 268.677 199.277 268.231C199.541 267.786 199.673 267.271 199.673 266.687C199.673 266.089 199.541 265.574 199.277 265.143C199.026 264.697 198.672 264.357 198.212 264.12C197.753 263.883 197.218 263.765 196.605 263.765H193.099V269.609Z" fill="#9E9CA0"/>
<path d="M208.901 277.685C207.816 277.685 206.849 277.428 206 276.913C205.152 276.398 204.484 275.696 203.997 274.805C203.51 273.901 203.266 272.892 203.266 271.779C203.266 270.652 203.503 269.65 203.976 268.774C204.463 267.897 205.117 267.209 205.938 266.708C206.772 266.193 207.705 265.936 208.734 265.936C209.569 265.936 210.306 266.089 210.946 266.395C211.6 266.687 212.15 267.09 212.595 267.605C213.054 268.106 213.402 268.683 213.638 269.337C213.889 269.977 214.014 270.645 214.014 271.341C214.014 271.494 214 271.668 213.972 271.863C213.958 272.043 213.938 272.217 213.91 272.384H204.685V270.715H212.783L211.865 271.466C211.99 270.743 211.92 270.096 211.656 269.525C211.392 268.955 211.002 268.503 210.487 268.169C209.972 267.835 209.388 267.668 208.734 267.668C208.08 267.668 207.482 267.835 206.939 268.169C206.397 268.503 205.972 268.983 205.666 269.609C205.374 270.221 205.256 270.951 205.312 271.8C205.256 272.621 205.381 273.344 205.687 273.97C206.007 274.583 206.452 275.063 207.023 275.41C207.607 275.744 208.24 275.911 208.922 275.911C209.673 275.911 210.306 275.737 210.821 275.39C211.336 275.042 211.753 274.597 212.073 274.054L213.701 274.889C213.478 275.403 213.131 275.877 212.658 276.308C212.198 276.725 211.649 277.059 211.009 277.31C210.383 277.56 209.68 277.685 208.901 277.685Z" fill="#9E9CA0"/>
<path d="M216.545 277.435V266.186H218.444V268.377L218.131 268.19C218.409 267.48 218.854 266.93 219.466 266.541C220.093 266.137 220.823 265.936 221.658 265.936C222.465 265.936 223.181 266.117 223.807 266.478C224.447 266.84 224.948 267.341 225.31 267.981C225.686 268.621 225.873 269.344 225.873 270.151V277.435H223.912V270.777C223.912 270.151 223.8 269.623 223.578 269.191C223.355 268.76 223.035 268.426 222.618 268.19C222.214 267.939 221.748 267.814 221.22 267.814C220.691 267.814 220.218 267.939 219.8 268.19C219.397 268.426 219.077 268.767 218.84 269.212C218.604 269.643 218.486 270.165 218.486 270.777V277.435H216.545Z" fill="#9E9CA0"/>
<path d="M233.221 277.56C232.122 277.56 231.273 277.247 230.675 276.621C230.091 275.995 229.799 275.111 229.799 273.97V268.043H227.753V266.186H228.171C228.672 266.186 229.068 266.033 229.36 265.727C229.652 265.421 229.799 265.017 229.799 264.517V263.598H231.739V266.186H234.265V268.043H231.739V273.908C231.739 274.283 231.795 274.61 231.906 274.889C232.032 275.167 232.233 275.39 232.512 275.557C232.79 275.71 233.159 275.786 233.618 275.786C233.715 275.786 233.833 275.779 233.972 275.765C234.125 275.751 234.265 275.737 234.39 275.723V277.435C234.209 277.477 234.007 277.504 233.785 277.518C233.562 277.546 233.374 277.56 233.221 277.56Z" fill="#9E9CA0"/>
<path d="M149.426 319.591C147.78 319.591 146.296 319.278 144.974 318.652C143.675 318.026 142.586 317.203 141.704 316.183C140.846 315.162 140.232 314.061 139.861 312.878L141.878 312.148C142.528 313.91 143.49 315.255 144.765 316.183C146.064 317.11 147.606 317.574 149.391 317.574C150.574 317.574 151.606 317.377 152.487 316.983C153.391 316.588 154.099 316.032 154.609 315.313C155.119 314.594 155.374 313.748 155.374 312.774C155.374 311.429 154.991 310.386 154.226 309.643C153.484 308.901 152.51 308.368 151.304 308.043L146.574 306.652C144.649 306.096 143.223 305.203 142.296 303.974C141.391 302.722 140.939 301.307 140.939 299.73C140.939 298.362 141.264 297.168 141.913 296.148C142.586 295.104 143.49 294.293 144.626 293.713C145.762 293.133 147.049 292.843 148.487 292.843C149.994 292.843 151.339 293.133 152.522 293.713C153.728 294.27 154.736 295.012 155.548 295.939C156.383 296.843 156.974 297.852 157.322 298.965L155.339 299.696C154.759 298.096 153.867 296.89 152.661 296.078C151.455 295.243 150.075 294.826 148.522 294.826C147.501 294.826 146.586 295.023 145.774 295.417C144.962 295.812 144.325 296.368 143.861 297.087C143.397 297.806 143.165 298.652 143.165 299.626C143.165 300.809 143.501 301.817 144.174 302.652C144.846 303.487 145.971 304.148 147.548 304.635L151.791 305.887C153.646 306.443 155.072 307.301 156.07 308.461C157.09 309.597 157.6 311 157.6 312.67C157.6 314.038 157.252 315.243 156.557 316.287C155.861 317.307 154.887 318.119 153.635 318.722C152.406 319.301 151.003 319.591 149.426 319.591ZM148.209 322.652V289.783H150.226V322.652H148.209Z" fill="black"/>
<path d="M173.238 319.174V313.47H161.342V309.504L172.959 293.261H177.898V309.504H181.69V313.47H177.898V319.174H173.238ZM164.82 311.209L163.985 309.504H173.238V296.983L174.455 297.365L164.82 311.209Z" fill="black"/>
<path d="M195.161 319.591C193.097 319.591 191.288 319.035 189.735 317.922C188.181 316.809 186.964 315.243 186.083 313.226C185.225 311.209 184.796 308.867 184.796 306.2C184.796 303.51 185.225 301.168 186.083 299.174C186.941 297.18 188.146 295.626 189.7 294.513C191.254 293.4 193.062 292.843 195.126 292.843C197.236 292.843 199.057 293.4 200.587 294.513C202.141 295.626 203.358 297.191 204.239 299.209C205.12 301.203 205.561 303.533 205.561 306.2C205.561 308.867 205.12 311.209 204.239 313.226C203.381 315.22 202.175 316.786 200.622 317.922C199.068 319.035 197.248 319.591 195.161 319.591ZM195.196 315.278C196.378 315.278 197.387 314.919 198.222 314.2C199.057 313.458 199.694 312.415 200.135 311.07C200.599 309.701 200.83 308.078 200.83 306.2C200.83 304.322 200.599 302.71 200.135 301.365C199.694 299.997 199.045 298.954 198.187 298.235C197.352 297.516 196.332 297.157 195.126 297.157C193.967 297.157 192.97 297.516 192.135 298.235C191.3 298.954 190.651 299.997 190.187 301.365C189.746 302.71 189.526 304.322 189.526 306.2C189.526 308.055 189.746 309.667 190.187 311.035C190.651 312.38 191.3 313.423 192.135 314.165C192.993 314.907 194.013 315.278 195.196 315.278Z" fill="black"/>
<path d="M211.057 324.6V322.339C211.822 322.154 212.437 321.794 212.9 321.261C213.387 320.751 213.689 320.055 213.805 319.174H211.752V314.304H216.344V317.296C216.344 319.336 215.892 320.971 214.987 322.2C214.106 323.429 212.796 324.229 211.057 324.6Z" fill="black"/>
<path d="M230.098 319.591C228.683 319.591 227.338 319.336 226.063 318.826C224.811 318.293 223.732 317.551 222.828 316.6C221.947 315.626 221.344 314.478 221.019 313.157L225.158 311.696C225.576 312.878 226.214 313.783 227.071 314.409C227.929 315.012 228.938 315.313 230.098 315.313C231.025 315.313 231.825 315.139 232.498 314.791C233.193 314.443 233.738 313.945 234.132 313.296C234.527 312.623 234.724 311.835 234.724 310.93C234.724 310.026 234.527 309.261 234.132 308.635C233.761 307.986 233.228 307.487 232.532 307.139C231.837 306.791 231.013 306.617 230.063 306.617C229.622 306.617 229.158 306.664 228.671 306.757C228.208 306.849 227.79 306.988 227.419 307.174L226.341 304.913L233.054 297.261H222.48V293.261H238.376V296.983L231.628 304.878L231.698 303.104C233.251 303.128 234.608 303.464 235.767 304.113C236.927 304.762 237.831 305.655 238.48 306.791C239.129 307.928 239.454 309.261 239.454 310.791C239.454 312.461 239.048 313.968 238.237 315.313C237.425 316.635 236.312 317.678 234.898 318.443C233.483 319.209 231.883 319.591 230.098 319.591Z" fill="black"/>
<path d="M243.674 319.174L254.457 297.261H242.248V293.261H259.431V297.261L248.892 319.174H243.674Z" fill="black"/>
<path d="M262.199 319.174V315.591L269.225 308.252C270.617 306.791 271.683 305.632 272.425 304.774C273.19 303.893 273.724 303.139 274.025 302.513C274.327 301.887 274.477 301.249 274.477 300.6C274.477 299.51 274.13 298.652 273.434 298.026C272.762 297.4 271.892 297.087 270.825 297.087C269.712 297.087 268.75 297.412 267.938 298.061C267.127 298.687 266.535 299.615 266.164 300.843L262.025 299.557C262.304 298.188 262.872 297.006 263.73 296.009C264.588 294.988 265.631 294.212 266.86 293.678C268.112 293.122 269.434 292.843 270.825 292.843C272.495 292.843 273.956 293.145 275.208 293.748C276.483 294.351 277.469 295.197 278.164 296.287C278.883 297.377 279.243 298.652 279.243 300.113C279.243 301.041 279.069 301.957 278.721 302.861C278.373 303.765 277.851 304.693 277.156 305.643C276.46 306.571 275.556 307.615 274.443 308.774L268.356 315.174H279.59V319.174H262.199Z" fill="black"/>
<mask id="path-11-outside-1_1701_5284" maskUnits="userSpaceOnUse" x="489.217" y="295.826" width="46" height="57" fill="black">
<rect fill="white" x="489.217" y="295.826" width="46" height="57"/>
<path d="M522.262 299.562C528.55 300.362 533.083 306.148 531.352 312.246C529.509 318.739 526.81 324.975 523.314 330.787C519.819 336.599 515.575 341.906 510.704 346.577C506.129 350.965 498.893 349.673 495.238 344.494C491.583 339.314 492.937 332.22 497.222 327.547C499.637 324.912 501.79 322.035 503.642 318.955C505.494 315.876 507.027 312.626 508.222 309.257C510.341 303.282 515.973 298.761 522.262 299.562Z"/>
</mask>
<path d="M522.262 299.562C528.55 300.362 533.083 306.148 531.352 312.246C529.509 318.739 526.81 324.975 523.314 330.787C519.819 336.599 515.575 341.906 510.704 346.577C506.129 350.965 498.893 349.673 495.238 344.494C491.583 339.314 492.937 332.22 497.222 327.547C499.637 324.912 501.79 322.035 503.642 318.955C505.494 315.876 507.027 312.626 508.222 309.257C510.341 303.282 515.973 298.761 522.262 299.562Z" fill="#FF6F0F"/>
<path d="M522.262 299.562C528.55 300.362 533.083 306.148 531.352 312.246C529.509 318.739 526.81 324.975 523.314 330.787C519.819 336.599 515.575 341.906 510.704 346.577C506.129 350.965 498.893 349.673 495.238 344.494C491.583 339.314 492.937 332.22 497.222 327.547C499.637 324.912 501.79 322.035 503.642 318.955C505.494 315.876 507.027 312.626 508.222 309.257C510.341 303.282 515.973 298.761 522.262 299.562Z" stroke="white" stroke-width="6" mask="url(#path-11-outside-1_1701_5284)"/>
<mask id="path-12-outside-2_1701_5284" maskUnits="userSpaceOnUse" x="382.217" y="300.826" width="112" height="71" fill="black">
<rect fill="white" x="382.217" y="300.826" width="112" height="71"/>
<path d="M394.008 304.347C387.796 305.614 383.708 311.722 385.888 317.674C388.681 325.295 392.677 332.447 397.746 338.849C405.198 348.261 414.76 355.787 425.659 360.82C436.558 365.853 448.488 368.251 460.485 367.82C468.645 367.527 476.681 365.931 484.293 363.115C490.239 360.915 492.236 353.841 489.173 348.291C486.109 342.742 479.136 340.862 473.061 342.675C468.721 343.971 464.219 344.715 459.661 344.879C451.263 345.18 442.912 343.502 435.283 339.979C427.653 336.456 420.96 331.187 415.744 324.599C412.913 321.023 410.56 317.113 408.731 312.969C406.173 307.169 400.219 303.08 394.008 304.347Z"/>
</mask>
<path d="M394.008 304.347C387.796 305.614 383.708 311.722 385.888 317.674C388.681 325.295 392.677 332.447 397.746 338.849C405.198 348.261 414.76 355.787 425.659 360.82C436.558 365.853 448.488 368.251 460.485 367.82C468.645 367.527 476.681 365.931 484.293 363.115C490.239 360.915 492.236 353.841 489.173 348.291C486.109 342.742 479.136 340.862 473.061 342.675C468.721 343.971 464.219 344.715 459.661 344.879C451.263 345.18 442.912 343.502 435.283 339.979C427.653 336.456 420.96 331.187 415.744 324.599C412.913 321.023 410.56 317.113 408.731 312.969C406.173 307.169 400.219 303.08 394.008 304.347Z" fill="#0167E7"/>
<path d="M394.008 304.347C387.796 305.614 383.708 311.722 385.888 317.674C388.681 325.295 392.677 332.447 397.746 338.849C405.198 348.261 414.76 355.787 425.659 360.82C436.558 365.853 448.488 368.251 460.485 367.82C468.645 367.527 476.681 365.931 484.293 363.115C490.239 360.915 492.236 353.841 489.173 348.291C486.109 342.742 479.136 340.862 473.061 342.675C468.721 343.971 464.219 344.715 459.661 344.879C451.263 345.18 442.912 343.502 435.283 339.979C427.653 336.456 420.96 331.187 415.744 324.599C412.913 321.023 410.56 317.113 408.731 312.969C406.173 307.169 400.219 303.08 394.008 304.347Z" stroke="white" stroke-width="6" mask="url(#path-12-outside-2_1701_5284)"/>
<mask id="path-13-outside-3_1701_5284" maskUnits="userSpaceOnUse" x="378.217" y="211.826" width="159" height="89" fill="black">
<rect fill="white" x="378.217" y="211.826" width="159" height="89"/>
<path d="M522.783 291.348C529.122 291.348 534.349 286.181 533.402 279.912C532.436 273.52 530.661 267.261 528.109 261.288C524.05 251.786 518.109 243.204 510.644 236.06C503.178 228.917 494.343 223.359 484.672 219.722C475 216.086 464.693 214.445 454.37 214.9C444.047 215.355 433.924 217.896 424.61 222.369C415.296 226.843 406.984 233.156 400.176 240.929C393.368 248.702 388.205 257.773 384.997 267.595C382.981 273.77 381.764 280.161 381.364 286.613C380.972 292.94 386.633 297.628 392.948 297.07C399.263 296.512 403.802 290.895 404.6 284.606C405.025 281.257 405.767 277.946 406.82 274.721C409.065 267.845 412.679 261.496 417.445 256.055C422.211 250.614 428.029 246.194 434.548 243.063C441.068 239.932 448.155 238.153 455.381 237.835C462.607 237.516 469.822 238.664 476.592 241.21C483.362 243.756 489.546 247.646 494.772 252.647C499.998 257.647 504.157 263.654 506.998 270.306C508.331 273.426 509.361 276.658 510.079 279.957C511.427 286.151 516.443 291.348 522.783 291.348Z"/>
</mask>
<path d="M522.783 291.348C529.122 291.348 534.349 286.181 533.402 279.912C532.436 273.52 530.661 267.261 528.109 261.288C524.05 251.786 518.109 243.204 510.644 236.06C503.178 228.917 494.343 223.359 484.672 219.722C475 216.086 464.693 214.445 454.37 214.9C444.047 215.355 433.924 217.896 424.61 222.369C415.296 226.843 406.984 233.156 400.176 240.929C393.368 248.702 388.205 257.773 384.997 267.595C382.981 273.77 381.764 280.161 381.364 286.613C380.972 292.94 386.633 297.628 392.948 297.07C399.263 296.512 403.802 290.895 404.6 284.606C405.025 281.257 405.767 277.946 406.82 274.721C409.065 267.845 412.679 261.496 417.445 256.055C422.211 250.614 428.029 246.194 434.548 243.063C441.068 239.932 448.155 238.153 455.381 237.835C462.607 237.516 469.822 238.664 476.592 241.21C483.362 243.756 489.546 247.646 494.772 252.647C499.998 257.647 504.157 263.654 506.998 270.306C508.331 273.426 509.361 276.658 510.079 279.957C511.427 286.151 516.443 291.348 522.783 291.348Z" fill="#00A858"/>
<path d="M522.783 291.348C529.122 291.348 534.349 286.181 533.402 279.912C532.436 273.52 530.661 267.261 528.109 261.288C524.05 251.786 518.109 243.204 510.644 236.06C503.178 228.917 494.343 223.359 484.672 219.722C475 216.086 464.693 214.445 454.37 214.9C444.047 215.355 433.924 217.896 424.61 222.369C415.296 226.843 406.984 233.156 400.176 240.929C393.368 248.702 388.205 257.773 384.997 267.595C382.981 273.77 381.764 280.161 381.364 286.613C380.972 292.94 386.633 297.628 392.948 297.07C399.263 296.512 403.802 290.895 404.6 284.606C405.025 281.257 405.767 277.946 406.82 274.721C409.065 267.845 412.679 261.496 417.445 256.055C422.211 250.614 428.029 246.194 434.548 243.063C441.068 239.932 448.155 238.153 455.381 237.835C462.607 237.516 469.822 238.664 476.592 241.21C483.362 243.756 489.546 247.646 494.772 252.647C499.998 257.647 504.157 263.654 506.998 270.306C508.331 273.426 509.361 276.658 510.079 279.957C511.427 286.151 516.443 291.348 522.783 291.348Z" stroke="white" stroke-width="6" mask="url(#path-13-outside-3_1701_5284)"/>
<rect x="137.739" y="405.261" width="13.913" height="13.913" rx="4" fill="#00A858"/>
<rect x="257.739" y="405.261" width="13.913" height="13.913" rx="4" fill="#0167E7"/>
<rect x="416" y="405.261" width="13.913" height="13.913" rx="4" fill="#FF6F0F"/>
<path d="M167.172 420.043V404.496H172.828C173.871 404.496 174.79 404.69 175.583 405.08C176.39 405.456 177.016 406.012 177.461 406.75C177.906 407.473 178.129 408.343 178.129 409.358C178.129 410.36 177.899 411.223 177.44 411.946C176.995 412.67 176.376 413.226 175.583 413.616C174.79 414.005 173.871 414.2 172.828 414.2H169.635V420.043H167.172ZM169.635 412.009H172.89C173.447 412.009 173.934 411.897 174.351 411.675C174.769 411.452 175.096 411.146 175.332 410.757C175.569 410.353 175.687 409.88 175.687 409.337C175.687 408.795 175.569 408.329 175.332 407.939C175.096 407.536 174.769 407.23 174.351 407.021C173.934 406.798 173.447 406.687 172.89 406.687H169.635V412.009Z" fill="#9E9CA0"/>
<path d="M183.082 420.294C182.316 420.294 181.642 420.162 181.057 419.897C180.487 419.619 180.042 419.243 179.722 418.77C179.402 418.283 179.242 417.713 179.242 417.059C179.242 416.447 179.374 415.897 179.638 415.41C179.916 414.923 180.341 414.513 180.911 414.179C181.482 413.845 182.198 413.609 183.061 413.47L186.984 412.823V414.68L183.52 415.285C182.894 415.397 182.435 415.598 182.143 415.89C181.85 416.169 181.704 416.53 181.704 416.976C181.704 417.407 181.864 417.762 182.184 418.04C182.518 418.304 182.943 418.437 183.457 418.437C184.097 418.437 184.654 418.297 185.127 418.019C185.614 417.741 185.989 417.372 186.254 416.913C186.518 416.44 186.65 415.918 186.65 415.348V412.447C186.65 411.89 186.442 411.438 186.024 411.09C185.621 410.729 185.078 410.548 184.396 410.548C183.77 410.548 183.221 410.715 182.748 411.049C182.289 411.369 181.948 411.786 181.725 412.301L179.763 411.32C179.972 410.763 180.313 410.277 180.786 409.859C181.259 409.428 181.809 409.094 182.435 408.857C183.075 408.621 183.749 408.503 184.459 408.503C185.349 408.503 186.136 408.67 186.817 409.003C187.513 409.337 188.049 409.803 188.424 410.402C188.814 410.986 189.009 411.668 189.009 412.447V420.043H186.755V417.998L187.235 418.061C186.97 418.52 186.629 418.917 186.212 419.25C185.809 419.584 185.343 419.842 184.814 420.023C184.299 420.203 183.722 420.294 183.082 420.294Z" fill="#9E9CA0"/>
<path d="M191.766 420.043V408.753H194.124V420.043H191.766ZM191.766 407.209V404.496H194.124V407.209H191.766Z" fill="#9E9CA0"/>
<path d="M202.099 420.294C201.014 420.294 200.04 420.037 199.177 419.522C198.328 418.993 197.654 418.283 197.153 417.393C196.666 416.503 196.422 415.501 196.422 414.388C196.422 413.275 196.673 412.273 197.174 411.383C197.675 410.492 198.349 409.79 199.198 409.275C200.047 408.76 201.007 408.503 202.078 408.503C202.982 408.503 203.782 408.683 204.478 409.045C205.174 409.407 205.723 409.908 206.127 410.548L205.772 411.09V404.245H208.109V420.043H205.876V417.748L206.148 418.186C205.758 418.868 205.201 419.39 204.478 419.751C203.755 420.113 202.961 420.294 202.099 420.294ZM202.328 418.103C202.982 418.103 203.567 417.943 204.081 417.623C204.61 417.303 205.021 416.864 205.313 416.308C205.619 415.737 205.772 415.097 205.772 414.388C205.772 413.678 205.619 413.045 205.313 412.489C205.021 411.932 204.61 411.494 204.081 411.174C203.567 410.854 202.982 410.694 202.328 410.694C201.675 410.694 201.083 410.854 200.555 411.174C200.026 411.494 199.615 411.932 199.323 412.489C199.031 413.045 198.885 413.678 198.885 414.388C198.885 415.097 199.031 415.737 199.323 416.308C199.615 416.864 200.019 417.303 200.534 417.623C201.062 417.943 201.661 418.103 202.328 418.103Z" fill="#9E9CA0"/>
<path d="M287.172 420.043V404.496H292.828C293.871 404.496 294.79 404.69 295.583 405.08C296.39 405.456 297.016 406.012 297.461 406.75C297.906 407.473 298.129 408.343 298.129 409.358C298.129 410.36 297.899 411.223 297.44 411.946C296.995 412.67 296.376 413.226 295.583 413.616C294.79 414.005 293.871 414.2 292.828 414.2H289.635V420.043H287.172ZM289.635 412.009H292.89C293.447 412.009 293.934 411.897 294.351 411.675C294.769 411.452 295.096 411.146 295.332 410.757C295.569 410.353 295.687 409.88 295.687 409.337C295.687 408.795 295.569 408.329 295.332 407.939C295.096 407.536 294.769 407.23 294.351 407.021C293.934 406.798 293.447 406.687 292.89 406.687H289.635V412.009Z" fill="#9E9CA0"/>
<path d="M305.328 420.294C304.201 420.294 303.199 420.037 302.323 419.522C301.46 418.993 300.785 418.283 300.298 417.393C299.811 416.489 299.568 415.48 299.568 414.367C299.568 413.226 299.811 412.217 300.298 411.341C300.799 410.464 301.467 409.776 302.302 409.275C303.136 408.76 304.083 408.503 305.14 408.503C305.989 408.503 306.747 408.649 307.415 408.941C308.083 409.233 308.646 409.637 309.105 410.151C309.564 410.652 309.912 411.23 310.149 411.883C310.399 412.537 310.524 413.233 310.524 413.97C310.524 414.151 310.517 414.339 310.503 414.534C310.489 414.729 310.462 414.91 310.42 415.077H301.425V413.198H309.084L307.957 414.054C308.096 413.372 308.048 412.767 307.811 412.238C307.589 411.696 307.241 411.271 306.768 410.965C306.309 410.645 305.766 410.485 305.14 410.485C304.514 410.485 303.957 410.645 303.47 410.965C302.983 411.271 302.608 411.717 302.343 412.301C302.079 412.871 301.975 413.567 302.03 414.388C301.961 415.153 302.065 415.821 302.343 416.391C302.636 416.962 303.039 417.407 303.554 417.727C304.083 418.047 304.681 418.207 305.349 418.207C306.03 418.207 306.608 418.054 307.081 417.748C307.568 417.442 307.95 417.045 308.229 416.558L310.149 417.497C309.926 418.026 309.578 418.506 309.105 418.937C308.646 419.355 308.089 419.689 307.436 419.939C306.796 420.176 306.093 420.294 305.328 420.294Z" fill="#9E9CA0"/>
<path d="M312.826 420.043V408.753H315.08V410.965L314.808 410.673C315.087 409.963 315.532 409.428 316.144 409.066C316.756 408.69 317.466 408.503 318.273 408.503C319.107 408.503 319.845 408.683 320.485 409.045C321.125 409.407 321.626 409.908 321.988 410.548C322.349 411.188 322.53 411.925 322.53 412.76V420.043H320.193V413.386C320.193 412.816 320.088 412.336 319.88 411.946C319.671 411.543 319.372 411.237 318.982 411.028C318.607 410.805 318.175 410.694 317.688 410.694C317.201 410.694 316.763 410.805 316.374 411.028C315.998 411.237 315.706 411.543 315.497 411.946C315.288 412.35 315.184 412.83 315.184 413.386V420.043H312.826Z" fill="#9E9CA0"/>
<path d="M330.271 420.294C329.186 420.294 328.212 420.037 327.35 419.522C326.501 418.993 325.826 418.283 325.325 417.393C324.838 416.503 324.595 415.501 324.595 414.388C324.595 413.275 324.845 412.273 325.346 411.383C325.847 410.492 326.522 409.79 327.371 409.275C328.219 408.76 329.179 408.503 330.251 408.503C331.155 408.503 331.955 408.683 332.651 409.045C333.346 409.407 333.896 409.908 334.299 410.548L333.944 411.09V404.245H336.282V420.043H334.049V417.748L334.32 418.186C333.931 418.868 333.374 419.39 332.651 419.751C331.927 420.113 331.134 420.294 330.271 420.294ZM330.501 418.103C331.155 418.103 331.739 417.943 332.254 417.623C332.783 417.303 333.193 416.864 333.485 416.308C333.791 415.737 333.944 415.097 333.944 414.388C333.944 413.678 333.791 413.045 333.485 412.489C333.193 411.932 332.783 411.494 332.254 411.174C331.739 410.854 331.155 410.694 330.501 410.694C329.847 410.694 329.256 410.854 328.727 411.174C328.198 411.494 327.788 411.932 327.496 412.489C327.204 413.045 327.057 413.678 327.057 414.388C327.057 415.097 327.204 415.737 327.496 416.308C327.788 416.864 328.191 417.303 328.706 417.623C329.235 417.943 329.833 418.103 330.501 418.103Z" fill="#9E9CA0"/>
<path d="M339.035 420.043V408.753H341.393V420.043H339.035ZM339.035 407.209V404.496H341.393V407.209H339.035Z" fill="#9E9CA0"/>
<path d="M344.15 420.043V408.753H346.404V410.965L346.133 410.673C346.411 409.963 346.857 409.428 347.469 409.066C348.081 408.69 348.79 408.503 349.597 408.503C350.432 408.503 351.17 408.683 351.81 409.045C352.45 409.407 352.95 409.908 353.312 410.548C353.674 411.188 353.855 411.925 353.855 412.76V420.043H351.517V413.386C351.517 412.816 351.413 412.336 351.204 411.946C350.996 411.543 350.697 411.237 350.307 411.028C349.931 410.805 349.5 410.694 349.013 410.694C348.526 410.694 348.088 410.805 347.698 411.028C347.323 411.237 347.03 411.543 346.822 411.946C346.613 412.35 346.509 412.83 346.509 413.386V420.043H344.15Z" fill="#9E9CA0"/>
<path d="M361.826 424.635C361.005 424.635 360.247 424.503 359.551 424.238C358.855 423.974 358.257 423.605 357.756 423.132C357.255 422.673 356.88 422.13 356.629 421.504L358.8 420.607C358.994 421.136 359.349 421.574 359.864 421.922C360.393 422.27 361.04 422.443 361.805 422.443C362.403 422.443 362.939 422.325 363.412 422.089C363.885 421.866 364.26 421.532 364.539 421.087C364.817 420.656 364.956 420.134 364.956 419.522V416.976L365.374 417.456C364.984 418.179 364.441 418.729 363.746 419.104C363.064 419.48 362.292 419.668 361.429 419.668C360.386 419.668 359.447 419.424 358.612 418.937C357.777 418.45 357.116 417.783 356.629 416.934C356.156 416.085 355.92 415.132 355.92 414.075C355.92 413.003 356.156 412.05 356.629 411.216C357.116 410.381 357.77 409.72 358.591 409.233C359.412 408.746 360.351 408.503 361.408 408.503C362.271 408.503 363.036 408.69 363.704 409.066C364.386 409.428 364.942 409.957 365.374 410.652L365.06 411.237V408.753H367.294V419.522C367.294 420.496 367.057 421.365 366.584 422.13C366.125 422.91 365.485 423.522 364.664 423.967C363.843 424.412 362.897 424.635 361.826 424.635ZM361.7 417.477C362.327 417.477 362.883 417.33 363.37 417.038C363.857 416.732 364.24 416.329 364.518 415.828C364.81 415.313 364.956 414.736 364.956 414.096C364.956 413.456 364.81 412.878 364.518 412.363C364.226 411.849 363.836 411.445 363.349 411.153C362.862 410.847 362.313 410.694 361.7 410.694C361.06 410.694 360.49 410.847 359.989 411.153C359.488 411.445 359.092 411.849 358.8 412.363C358.521 412.864 358.382 413.442 358.382 414.096C358.382 414.722 358.521 415.292 358.8 415.807C359.092 416.322 359.488 416.732 359.989 417.038C360.49 417.33 361.06 417.477 361.7 417.477Z" fill="#9E9CA0"/>
<path d="M452.988 420.294C451.861 420.294 450.81 420.092 449.837 419.689C448.877 419.285 448.028 418.722 447.29 417.998C446.567 417.275 445.997 416.426 445.579 415.452C445.176 414.478 444.974 413.414 444.974 412.259C444.974 411.104 445.176 410.04 445.579 409.066C445.997 408.078 446.567 407.23 447.29 406.52C448.014 405.797 448.863 405.24 449.837 404.85C450.81 404.447 451.861 404.245 452.988 404.245C454.129 404.245 455.179 404.447 456.139 404.85C457.113 405.24 457.962 405.797 458.685 406.52C459.423 407.243 459.993 408.092 460.397 409.066C460.8 410.04 461.002 411.104 461.002 412.259C461.002 413.414 460.793 414.478 460.376 415.452C459.972 416.426 459.409 417.275 458.685 417.998C457.962 418.722 457.113 419.285 456.139 419.689C455.165 420.092 454.115 420.294 452.988 420.294ZM452.988 418.04C453.795 418.04 454.532 417.894 455.2 417.602C455.882 417.31 456.473 416.906 456.974 416.391C457.475 415.863 457.864 415.25 458.143 414.555C458.421 413.845 458.56 413.08 458.56 412.259C458.56 411.438 458.421 410.68 458.143 409.984C457.864 409.289 457.475 408.677 456.974 408.148C456.473 407.619 455.882 407.209 455.2 406.917C454.532 406.624 453.795 406.478 452.988 406.478C452.181 406.478 451.437 406.624 450.755 406.917C450.087 407.209 449.503 407.619 449.002 408.148C448.501 408.677 448.111 409.289 447.833 409.984C447.569 410.68 447.436 411.438 447.436 412.259C447.436 413.08 447.569 413.845 447.833 414.555C448.111 415.25 448.501 415.863 449.002 416.391C449.503 416.906 450.094 417.31 450.776 417.602C451.457 417.894 452.195 418.04 452.988 418.04Z" fill="#9E9CA0"/>
<path d="M466.802 420.043L462.378 408.753H464.945L468.346 417.957H467.407L470.809 408.753H473.397L468.952 420.043H466.802Z" fill="#9E9CA0"/>
<path d="M480.097 420.294C478.97 420.294 477.968 420.037 477.092 419.522C476.229 418.993 475.554 418.283 475.067 417.393C474.58 416.489 474.337 415.48 474.337 414.367C474.337 413.226 474.58 412.217 475.067 411.341C475.568 410.464 476.236 409.776 477.071 409.275C477.905 408.76 478.852 408.503 479.909 408.503C480.758 408.503 481.516 408.649 482.184 408.941C482.852 409.233 483.415 409.637 483.874 410.151C484.333 410.652 484.681 411.23 484.918 411.883C485.168 412.537 485.293 413.233 485.293 413.97C485.293 414.151 485.286 414.339 485.272 414.534C485.258 414.729 485.231 414.91 485.189 415.077H476.194V413.198H483.853L482.726 414.054C482.865 413.372 482.817 412.767 482.58 412.238C482.358 411.696 482.01 411.271 481.537 410.965C481.078 410.645 480.535 410.485 479.909 410.485C479.283 410.485 478.726 410.645 478.239 410.965C477.752 411.271 477.377 411.717 477.112 412.301C476.848 412.871 476.744 413.567 476.799 414.388C476.73 415.153 476.834 415.821 477.112 416.391C477.405 416.962 477.808 417.407 478.323 417.727C478.852 418.047 479.45 418.207 480.118 418.207C480.799 418.207 481.377 418.054 481.85 417.748C482.337 417.442 482.719 417.045 482.998 416.558L484.918 417.497C484.695 418.026 484.347 418.506 483.874 418.937C483.415 419.355 482.858 419.689 482.205 419.939C481.565 420.176 480.862 420.294 480.097 420.294Z" fill="#9E9CA0"/>
<path d="M487.595 420.043V408.753H489.849V411.028L489.64 410.694C489.89 409.957 490.294 409.428 490.85 409.108C491.407 408.774 492.075 408.607 492.854 408.607H493.543V410.757H492.562C491.783 410.757 491.15 411 490.663 411.487C490.19 411.96 489.953 412.642 489.953 413.532V420.043H487.595Z" fill="#9E9CA0"/>
<path d="M500.373 420.294C499.288 420.294 498.314 420.037 497.452 419.522C496.603 418.993 495.928 418.283 495.427 417.393C494.94 416.503 494.697 415.501 494.697 414.388C494.697 413.275 494.947 412.273 495.448 411.383C495.949 410.492 496.624 409.79 497.472 409.275C498.321 408.76 499.281 408.503 500.352 408.503C501.257 408.503 502.057 408.683 502.752 409.045C503.448 409.407 503.998 409.908 504.401 410.548L504.046 411.09V404.245H506.384V420.043H504.151V417.748L504.422 418.186C504.032 418.868 503.476 419.39 502.752 419.751C502.029 420.113 501.236 420.294 500.373 420.294ZM500.603 418.103C501.257 418.103 501.841 417.943 502.356 417.623C502.885 417.303 503.295 416.864 503.587 416.308C503.893 415.737 504.046 415.097 504.046 414.388C504.046 413.678 503.893 413.045 503.587 412.489C503.295 411.932 502.885 411.494 502.356 411.174C501.841 410.854 501.257 410.694 500.603 410.694C499.949 410.694 499.358 410.854 498.829 411.174C498.3 411.494 497.89 411.932 497.598 412.489C497.305 413.045 497.159 413.678 497.159 414.388C497.159 415.097 497.305 415.737 497.598 416.308C497.89 416.864 498.293 417.303 498.808 417.623C499.337 417.943 499.935 418.103 500.603 418.103Z" fill="#9E9CA0"/>
<path d="M513.165 420.294C512.316 420.294 511.572 420.106 510.932 419.73C510.292 419.341 509.791 418.805 509.429 418.123C509.081 417.428 508.907 416.628 508.907 415.723V408.753H511.266V415.515C511.266 416.03 511.37 416.482 511.579 416.871C511.787 417.261 512.079 417.567 512.455 417.79C512.831 417.998 513.262 418.103 513.749 418.103C514.25 418.103 514.688 417.991 515.064 417.769C515.44 417.546 515.732 417.233 515.94 416.83C516.163 416.426 516.274 415.953 516.274 415.41V408.753H518.612V420.043H516.379V417.831L516.629 418.123C516.365 418.819 515.926 419.355 515.314 419.73C514.702 420.106 513.986 420.294 513.165 420.294Z" fill="#9E9CA0"/>
<path d="M526.666 420.294C525.539 420.294 524.537 420.037 523.661 419.522C522.798 418.993 522.123 418.283 521.636 417.393C521.15 416.489 520.906 415.48 520.906 414.367C520.906 413.226 521.15 412.217 521.636 411.341C522.137 410.464 522.805 409.776 523.64 409.275C524.475 408.76 525.421 408.503 526.478 408.503C527.327 408.503 528.085 408.649 528.753 408.941C529.421 409.233 529.984 409.637 530.443 410.151C530.903 410.652 531.25 411.23 531.487 411.883C531.737 412.537 531.863 413.233 531.863 413.97C531.863 414.151 531.856 414.339 531.842 414.534C531.828 414.729 531.8 414.91 531.758 415.077H522.763V413.198H530.423L529.296 414.054C529.435 413.372 529.386 412.767 529.15 412.238C528.927 411.696 528.579 411.271 528.106 410.965C527.647 410.645 527.104 410.485 526.478 410.485C525.852 410.485 525.296 410.645 524.809 410.965C524.322 411.271 523.946 411.717 523.682 412.301C523.417 412.871 523.313 413.567 523.369 414.388C523.299 415.153 523.403 415.821 523.682 416.391C523.974 416.962 524.377 417.407 524.892 417.727C525.421 418.047 526.019 418.207 526.687 418.207C527.369 418.207 527.946 418.054 528.419 417.748C528.906 417.442 529.289 417.045 529.567 416.558L531.487 417.497C531.264 418.026 530.916 418.506 530.443 418.937C529.984 419.355 529.428 419.689 528.774 419.939C528.134 420.176 527.431 420.294 526.666 420.294Z" fill="#9E9CA0"/>
<path d="M236.263 36.6628C256.239 38.5719 270.965 39.0267 289.506 33.2932C299.771 30.119 310.897 24.937 317.971 17.9536C318.996 16.9414 331.232 4.19003 326.725 2.35634C321.965 0.420006 316.302 7.57834 314.015 9.87838C306.439 17.4972 293.265 37.1604 314.849 38.1842C329.82 38.8943 344.479 32.6072 358.164 28.5027C382.997 21.0551 407.714 16.4556 433.892 13.4083" stroke="black" stroke-width="4" stroke-linecap="round"/>
</svg>
