<svg width="48" height="48" viewBox="0 0 48 48" fill="none" xmlns="http://www.w3.org/2000/svg">
<rect width="48" height="48" rx="12" fill="#F7F7F7"/>
<path d="M20.2896 32.1256C27.8368 32.1256 31.9648 25.8728 31.9648 20.4504C31.9648 20.2728 31.9648 20.096 31.9528 19.92C32.7559 19.3391 33.4491 18.6199 34 17.796C33.2512 18.128 32.4567 18.3456 31.6432 18.4416C32.4998 17.9288 33.141 17.1222 33.4472 16.172C32.6417 16.65 31.7605 16.9868 30.8416 17.168C30.2229 16.5101 29.4047 16.0745 28.5135 15.9285C27.6223 15.7826 26.7078 15.9344 25.9116 16.3605C25.1154 16.7866 24.4819 17.4633 24.109 18.2857C23.7361 19.1082 23.6446 20.0307 23.8488 20.9104C22.2174 20.8285 20.6215 20.4045 19.1645 19.666C17.7076 18.9274 16.4223 17.8907 15.392 16.6232C14.8673 17.5265 14.7066 18.5958 14.9426 19.6135C15.1786 20.6312 15.7936 21.5206 16.6624 22.1008C16.0094 22.0816 15.3705 21.9054 14.8 21.5872V21.6392C14.8003 22.5865 15.1282 23.5046 15.7282 24.2378C16.3282 24.9709 17.1634 25.474 18.092 25.6616C17.4879 25.8263 16.8541 25.8504 16.2392 25.732C16.5015 26.5472 17.012 27.2602 17.6994 27.7711C18.3867 28.282 19.2165 28.5654 20.0728 28.5816C19.222 29.2503 18.2478 29.7447 17.2057 30.0366C16.1637 30.3284 15.0743 30.4119 14 30.2824C15.8765 31.4865 18.0599 32.1253 20.2896 32.1224" fill="#109CF1"/>
</svg>
